SplineFontDB: 3.2
FontName: Strobrod-Bold
FullName: Strobrod Bold
FamilyName: Strobrod
Weight: Bold
Copyright: SIL Open Font License (OFL)
Version: 1.0
ItalicAngle: 0
UnderlinePosition: -96
UnderlineWidth: 33
Ascent: 1152
Descent: 288
InvalidEm: 0
sfntRevision: 0x00010000
LayerCount: 2
Layer: 0 1 "Back" 1
Layer: 1 1 "Fore" 0
XUID: [1021 1013 1635499644 14379]
StyleMap: 0x0020
FSType: 0
OS2Version: 2
OS2_WeightWidthSlopeOnly: 0
OS2_UseTypoMetrics: 0
CreationTime: 1594373670
ModificationTime: 1609157037
PfmFamily: 49
TTFWeight: 700
TTFWidth: 5
LineGap: 0
VLineGap: 0
Panose: 2 11 8 9 0 0 0 0 0 0
OS2TypoAscent: 768
OS2TypoAOffset: 0
OS2TypoDescent: -192
OS2TypoDOffset: 0
OS2TypoLinegap: -96
OS2WinAscent: 768
OS2WinAOffset: 0
OS2WinDescent: 192
OS2WinDOffset: 0
HheadAscent: 768
HheadAOffset: 0
HheadDescent: -192
HheadDOffset: 0
OS2SubXSize: 152
OS2SubYSize: 164
OS2SubXOff: 11
OS2SubYOff: 33
OS2SupXSize: 152
OS2SupYSize: 164
OS2SupXOff: -38
OS2SupYOff: 112
OS2StrikeYSize: 11
OS2StrikeYPos: 60
OS2CapHeight: 576
OS2XHeight: 480
OS2Vendor: 'Bird'
OS2CodePages: 203f00ff.dffd0000
Lookup: 265 0 0 "'kern' Horizontal Kerning lookup 0" { } [' RQD' ('DFLT' <'dflt' > ) 'kern' ('DFLT' <'dflt' > ) ]
MarkAttachClasses: 1
DEI: 91125
ShortTable: maxp 16
  1
  0
  355
  272
  15
  0
  0
  1
  0
  0
  0
  0
  0
  0
  0
  0
EndShort
LangName: 1033 "" "" "Bold" "" "" "Version 1.0" "" "" "" "" "" "" "" "SIL Open Font License (OFL)" "http://scripts.sil.org/OFL"
GaspTable: 1 65535 1 0
Encoding: UnicodeFull
Compacted: 1
UnicodeInterp: none
NameList: AGL For New Fonts
DisplaySize: -48
AntiAlias: 1
FitToEm: 0
WinInfo: 0 37 14
BeginPrivate: 0
EndPrivate
BeginChars: 1114113 357

StartChar: .notdef
Encoding: 1114112 -1 0
Width: 576
VWidth: 960
Flags: W
LayerCount: 2
Fore
SplineSet
384 384 m 1,0,1
 384 360 384 360 384 288 c 1,2,3
 336 288 336 288 192 288 c 1,4,5
 192 216 l 0,6,7
 192 144 192 144 192 96 c 1,8,9
 256 96 256 96 384 96 c 1,10,11
 384 192 l 0,12,13
 384 288 384 288 384 384 c 1,14,15
 416 384 416 384 480 384 c 1,16,17
 480 240 l 256,18,19
 480 96 480 96 480 0 c 1,20,21
 336 0 l 0,22,23
 192 0 192 0 96 0 c 1,24,25
 96 144 l 0,26,27
 96 288 96 288 96 384 c 1,28,29
 192 384 192 384 384 384 c 1,0,1
EndSplineSet
EndChar

StartChar: exclam
Encoding: 33 33 4
Width: 576
VWidth: 960
Flags: W
LayerCount: 2
Fore
SplineSet
384 576 m 1,0,1
 384 456 384 456 384 96 c 1,2,3
 336 96 336 96 192 96 c 1,4,5
 192 288 l 256,6,7
 192 480 192 480 192 576 c 1,8,9
 256 576 256 576 384 576 c 1,0,1
384 0 m 1,10,11
 384 -24 384 -24 384 -96 c 1,12,13
 336 -96 336 -96 192 -96 c 1,14,15
 192 -72 192 -72 192 0 c 1,16,17
 240 0 240 0 384 0 c 1,10,11
EndSplineSet
EndChar

StartChar: quotedbl
Encoding: 34 34 5
Width: 576
VWidth: 960
Flags: W
LayerCount: 2
Fore
SplineSet
288 672 m 1,0,1
 288 624 288 624 288 480 c 1,2,3
 240 480 240 480 96 480 c 1,4,5
 96 528 96 528 96 672 c 1,6,7
 144 672 144 672 288 672 c 1,0,1
576 672 m 1,8,9
 576 624 576 624 576 480 c 1,10,11
 528 480 528 480 384 480 c 1,12,13
 384 528 384 528 384 672 c 1,14,15
 432 672 432 672 576 672 c 1,8,9
EndSplineSet
EndChar

StartChar: numbersign
Encoding: 35 35 6
Width: 576
VWidth: 960
Flags: W
LayerCount: 2
Fore
SplineSet
96 0 m 1,0,1
 96 24 96 24 96 96 c 1,2,3
 48 96 l 256,4,5
 0 96 l 1,6,7
 0 128 0 128 0 192 c 1,8,9
 24 192 24 192 96 192 c 1,10,11
 96 216 96 216 96 288 c 1,12,13
 72 288 72 288 0 288 c 1,14,15
 0 312 0 312 0 384 c 1,16,17
 24 384 24 384 96 384 c 1,18,19
 96 432 l 256,20,21
 96 480 l 1,22,23
 160 480 160 480 288 480 c 1,24,25
 288 456 288 456 288 384 c 1,26,27
 336 384 l 0,28,29
 384 384 l 257,30,31
 384 432 l 256,32,33
 384 480 l 1,34,35
 416 480 416 480 480 480 c 1,36,37
 480 456 480 456 480 384 c 1,38,39
 504 384 504 384 576 384 c 1,40,41
 576 336 l 0,42,43
 576 288 l 257,44,45
 528 288 l 256,46,47
 480 288 l 257,48,49
 480 240 l 256,50,51
 480 192 l 257,52,53
 528 192 l 256,54,55
 576 192 l 257,56,57
 576 144 l 0,58,59
 576 96 l 1,60,61
 544 96 544 96 480 96 c 1,62,63
 480 48 l 256,64,65
 480 0 l 1,66,67
 448 0 448 0 384 0 c 1,68,69
 384 48 l 256,70,71
 384 96 l 1,72,73
 352 96 352 96 288 96 c 1,74,75
 288 48 l 256,76,77
 288 0 l 1,78,79
 224 0 224 0 96 0 c 1,0,1
288 288 m 1,80,81
 288 264 288 264 288 192 c 1,82,83
 312 192 312 192 384 192 c 1,84,85
 384 240 l 256,86,87
 384 288 l 1,88,89
 352 288 352 288 288 288 c 1,80,81
EndSplineSet
EndChar

StartChar: dollar
Encoding: 36 36 7
Width: 576
VWidth: 960
Flags: W
LayerCount: 2
Fore
SplineSet
576 384 m 1,0,1
 528 384 528 384 384 384 c 1,2,3
 384 360 384 360 384 288 c 1,4,5
 408 288 408 288 480 288 c 1,6,7
 480 240 l 256,8,9
 480 192 l 1,10,11
 512 192 512 192 576 192 c 1,12,13
 576 168 576 168 576 96 c 1,14,15
 552 96 552 96 480 96 c 1,16,17
 480 72 480 72 480 0 c 1,18,19
 432 0 l 256,20,21
 384 0 l 1,22,23
 384 -32 384 -32 384 -96 c 1,24,25
 360 -96 360 -96 288 -96 c 1,26,27
 288 -72 288 -72 288 0 c 1,28,29
 240 0 240 0 96 0 c 1,30,31
 96 24 96 24 96 96 c 1,32,33
 144 96 144 96 288 96 c 1,34,35
 288 120 288 120 288 192 c 1,36,37
 264 192 264 192 192 192 c 1,38,39
 192 216 192 216 192 288 c 1,40,41
 168 288 168 288 96 288 c 1,42,43
 96 336 l 0,44,45
 96 384 l 1,46,47
 128 384 128 384 192 384 c 1,48,49
 192 408 192 408 192 480 c 1,50,51
 216 480 216 480 288 480 c 1,52,53
 288 504 288 504 288 576 c 1,54,55
 312 576 312 576 384 576 c 1,56,57
 384 528 l 256,58,59
 384 480 l 1,60,61
 448 480 448 480 576 480 c 1,62,63
 576 456 576 456 576 384 c 1,0,1
EndSplineSet
EndChar

StartChar: percent
Encoding: 37 37 8
Width: 576
VWidth: 960
Flags: W
LayerCount: 2
Fore
SplineSet
96 -96 m 1,0,1
 96 -48 96 -48 96 96 c 1,2,3
 144 96 l 0,4,5
 192 96 l 1,6,7
 192 160 192 160 192 288 c 1,8,9
 240 288 l 256,10,11
 288 288 l 1,12,13
 288 336 288 336 288 408 c 256,14,15
 288 480 l 1,16,17
 256 480 256 480 192 480 c 1,18,19
 192 432 l 256,20,21
 192 384 l 1,22,23
 160 384 160 384 96 384 c 1,24,25
 96 432 l 256,26,27
 96 480 l 257,28,29
 48 480 l 256,30,31
 0 480 l 1,32,33
 0 512 0 512 0 576 c 1,34,35
 24 576 24 576 96 576 c 1,36,37
 96 600 96 600 96 672 c 1,38,39
 144 672 l 0,40,41
 192 672 l 1,42,43
 192 640 192 640 192 576 c 1,44,45
 168 576 168 576 96 576 c 1,46,47
 96 552 96 552 96 480 c 1,48,49
 120 480 120 480 192 480 c 1,50,51
 192 504 192 504 192 576 c 1,52,53
 216 576 216 576 288 576 c 1,54,55
 288 552 288 552 288 480 c 1,56,57
 312 480 312 480 384 480 c 1,58,59
 384 528 384 528 384 672 c 1,60,61
 408 672 408 672 480 672 c 1,62,63
 480 624 480 624 480 480 c 1,64,65
 456 480 456 480 384 480 c 1,66,67
 384 432 384 432 384 360 c 256,68,69
 384 288 l 1,70,71
 352 288 352 288 288 288 c 1,72,73
 288 240 288 240 288 96 c 1,74,75
 312 96 312 96 384 96 c 1,76,77
 384 120 384 120 384 192 c 1,78,79
 408 192 408 192 480 192 c 1,80,81
 480 168 480 168 480 96 c 1,82,83
 504 96 504 96 576 96 c 1,84,85
 576 72 576 72 576 0 c 1,86,87
 552 0 552 0 480 0 c 1,88,89
 480 -24 480 -24 480 -96 c 1,90,91
 456 -96 456 -96 384 -96 c 1,92,93
 384 -72 384 -72 384 0 c 1,94,95
 408 0 408 0 480 0 c 1,96,97
 480 48 l 256,98,99
 480 96 l 1,100,101
 448 96 448 96 384 96 c 1,102,103
 384 72 384 72 384 0 c 1,104,105
 360 0 360 0 288 0 c 1,106,107
 288 48 l 256,108,109
 288 96 l 1,110,111
 256 96 256 96 192 96 c 1,112,113
 192 48 192 48 192 -96 c 1,114,115
 168 -96 168 -96 96 -96 c 1,0,1
EndSplineSet
EndChar

StartChar: ampersand
Encoding: 38 38 9
Width: 576
VWidth: 960
Flags: W
LayerCount: 2
Fore
SplineSet
576 96 m 1,0,1
 576 72 576 72 576 0 c 1,2,3
 552 0 552 0 480 0 c 1,4,5
 480 48 l 256,6,7
 480 96 l 1,8,9
 448 96 448 96 384 96 c 1,10,11
 384 72 384 72 384 0 c 1,12,13
 312 0 312 0 96 0 c 1,14,15
 96 24 96 24 96 96 c 1,16,17
 72 96 72 96 0 96 c 1,18,19
 0 144 0 144 0 288 c 1,20,21
 24 288 24 288 96 288 c 1,22,23
 96 360 96 360 96 576 c 1,24,25
 144 576 144 576 288 576 c 1,26,27
 288 600 288 600 288 672 c 1,28,29
 336 672 336 672 480 672 c 1,30,31
 480 648 480 648 480 576 c 1,32,33
 432 576 432 576 288 576 c 1,34,35
 288 528 288 528 288 384 c 1,36,37
 312 384 312 384 384 384 c 1,38,39
 384 360 384 360 384 288 c 1,40,41
 336 288 336 288 192 288 c 1,42,43
 192 240 192 240 192 168 c 256,44,45
 192 96 l 1,46,47
 256 96 256 96 384 96 c 1,48,49
 384 144 384 144 384 288 c 1,50,51
 408 288 408 288 480 288 c 1,52,53
 480 312 480 312 480 384 c 1,54,55
 504 384 504 384 576 384 c 1,56,57
 576 336 l 0,58,59
 576 288 l 1,60,61
 544 288 544 288 480 288 c 1,62,63
 480 240 480 240 480 96 c 1,64,65
 504 96 504 96 576 96 c 1,0,1
EndSplineSet
EndChar

StartChar: quotesingle
Encoding: 39 39 10
Width: 576
VWidth: 960
Flags: W
LayerCount: 2
Fore
SplineSet
480 672 m 1,0,1
 480 624 480 624 480 480 c 1,2,3
 432 480 432 480 288 480 c 1,4,5
 288 528 288 528 288 672 c 1,6,7
 336 672 336 672 480 672 c 1,0,1
EndSplineSet
EndChar

StartChar: parenleft
Encoding: 40 40 11
Width: 576
VWidth: 960
Flags: W
LayerCount: 2
Fore
SplineSet
480 672 m 1,0,1
 480 648 480 648 480 576 c 1,2,3
 456 576 456 576 384 576 c 1,4,5
 384 432 384 432 384 0 c 1,6,7
 432 0 l 256,8,9
 480 0 l 257,10,11
 480 -48 l 256,12,13
 480 -96 l 1,14,15
 416 -96 416 -96 288 -96 c 1,16,17
 288 -72 288 -72 288 0 c 1,18,19
 264 0 264 0 192 0 c 1,20,21
 192 144 192 144 192 576 c 1,22,23
 216 576 216 576 288 576 c 1,24,25
 288 600 288 600 288 672 c 1,26,27
 336 672 336 672 480 672 c 1,0,1
EndSplineSet
EndChar

StartChar: parenright
Encoding: 41 41 12
Width: 576
VWidth: 960
Flags: W
LayerCount: 2
Fore
SplineSet
384 672 m 1,0,1
 384 648 384 648 384 576 c 1,2,3
 408 576 408 576 480 576 c 1,4,5
 480 432 480 432 480 0 c 1,6,7
 456 0 456 0 384 0 c 1,8,9
 384 -24 384 -24 384 -96 c 1,10,11
 288 -96 l 0,12,13
 192 -96 l 257,14,15
 192 -48 l 256,16,17
 192 0 l 1,18,19
 224 0 224 0 288 0 c 1,20,21
 288 144 288 144 288 576 c 1,22,23
 264 576 264 576 192 576 c 1,24,25
 192 600 192 600 192 672 c 1,26,27
 240 672 240 672 384 672 c 1,0,1
EndSplineSet
EndChar

StartChar: asterisk
Encoding: 42 42 13
Width: 576
VWidth: 960
Flags: W
LayerCount: 2
Fore
SplineSet
96 384 m 1,0,1
 96 360 96 360 96 288 c 1,2,3
 120 288 120 288 192 288 c 1,4,5
 192 360 l 256,6,7
 192 432 192 432 192 480 c 1,8,9
 256 480 256 480 384 480 c 1,10,11
 384 432 384 432 384 288 c 1,12,13
 408 288 408 288 480 288 c 1,14,15
 480 336 l 0,16,17
 480 384 l 257,18,19
 528 384 l 256,20,21
 576 384 l 1,22,23
 576 352 576 352 576 288 c 1,24,25
 528 288 l 256,26,27
 480 288 l 1,28,29
 480 256 480 256 480 192 c 1,30,31
 528 192 l 256,32,33
 576 192 l 1,34,35
 576 160 576 160 576 96 c 1,36,37
 528 96 l 256,38,39
 480 96 l 1,40,41
 480 128 480 128 480 192 c 1,42,43
 432 192 l 256,44,45
 384 192 l 1,46,47
 384 128 384 128 384 0 c 1,48,49
 288 0 l 0,50,51
 192 0 l 257,52,53
 192 72 l 256,54,55
 192 144 192 144 192 192 c 1,56,57
 160 192 160 192 96 192 c 1,58,59
 96 168 96 168 96 96 c 1,60,61
 72 96 72 96 0 96 c 1,62,63
 0 144 l 0,64,65
 0 192 l 1,66,67
 32 192 32 192 96 192 c 1,68,69
 96 216 96 216 96 288 c 1,70,71
 48 288 l 256,72,73
 0 288 l 1,74,75
 0 320 0 320 0 384 c 1,76,77
 24 384 24 384 96 384 c 1,0,1
EndSplineSet
EndChar

StartChar: plus
Encoding: 43 43 14
Width: 576
VWidth: 960
Flags: W
LayerCount: 2
Fore
SplineSet
0 192 m 1,0,1
 0 216 0 216 0 288 c 1,2,3
 48 288 48 288 192 288 c 1,4,5
 192 336 192 336 192 408 c 256,6,7
 192 480 l 1,8,9
 256 480 256 480 384 480 c 1,10,11
 384 432 384 432 384 288 c 1,12,13
 432 288 432 288 576 288 c 1,14,15
 576 264 576 264 576 192 c 1,16,17
 528 192 528 192 384 192 c 1,18,19
 384 144 384 144 384 72 c 256,20,21
 384 0 l 1,22,23
 320 0 320 0 192 0 c 1,24,25
 192 48 192 48 192 192 c 1,26,27
 144 192 144 192 0 192 c 1,0,1
EndSplineSet
EndChar

StartChar: comma
Encoding: 44 44 15
Width: 576
VWidth: 960
Flags: W
LayerCount: 2
Fore
SplineSet
384 96 m 1,0,1
 384 24 l 0,2,3
 384 -48 384 -48 384 -96 c 1,4,5
 352 -96 352 -96 288 -96 c 1,6,7
 288 -120 288 -120 288 -192 c 1,8,9
 192 -192 l 0,10,11
 96 -192 l 1,12,13
 96 -160 96 -160 96 -96 c 1,14,15
 120 -96 120 -96 192 -96 c 1,16,17
 192 -48 192 -48 192 96 c 1,18,19
 240 96 240 96 384 96 c 1,0,1
EndSplineSet
EndChar

StartChar: hyphen
Encoding: 45 45 16
Width: 576
VWidth: 960
Flags: W
LayerCount: 2
Fore
SplineSet
576 288 m 1,0,1
 576 264 576 264 576 192 c 1,2,3
 456 192 456 192 96 192 c 1,4,5
 96 240 l 256,6,7
 96 288 l 257,8,9
 288 288 l 256,10,11
 480 288 480 288 576 288 c 1,0,1
EndSplineSet
EndChar

StartChar: period
Encoding: 46 46 17
Width: 576
VWidth: 960
Flags: W
LayerCount: 2
Fore
SplineSet
96 0 m 1,0,1
 96 36 96 36 96 144 c 1,2,3
 156 144 156 144 336 144 c 1,4,5
 336 108 336 108 336 0 c 1,6,7
 276 0 276 0 96 0 c 1,0,1
EndSplineSet
EndChar

StartChar: slash
Encoding: 47 47 18
Width: 576
VWidth: 960
Flags: W
LayerCount: 2
Fore
SplineSet
96 -96 m 1,0,1
 96 -48 96 -48 96 96 c 1,2,3
 120 96 120 96 192 96 c 1,4,5
 192 144 192 144 192 288 c 1,6,7
 216 288 216 288 288 288 c 1,8,9
 288 336 288 336 288 480 c 1,10,11
 312 480 312 480 384 480 c 1,12,13
 384 528 384 528 384 672 c 1,14,15
 432 672 432 672 576 672 c 1,16,17
 576 624 576 624 576 480 c 1,18,19
 552 480 552 480 480 480 c 1,20,21
 480 432 480 432 480 288 c 1,22,23
 456 288 456 288 384 288 c 1,24,25
 384 240 384 240 384 96 c 1,26,27
 360 96 360 96 288 96 c 1,28,29
 288 48 288 48 288 -24 c 0,30,31
 288 -96 l 1,32,33
 224 -96 224 -96 96 -96 c 1,0,1
EndSplineSet
EndChar

StartChar: zero
Encoding: 48 48 19
Width: 576
VWidth: 960
Flags: W
LayerCount: 2
Fore
SplineSet
480 576 m 1,0,1
 480 528 l 256,2,3
 480 480 l 257,4,5
 408 480 l 256,6,7
 336 480 336 480 288 480 c 1,8,9
 288 416 288 416 288 288 c 1,10,11
 312 288 312 288 384 288 c 1,12,13
 384 264 384 264 384 192 c 1,14,15
 360 192 360 192 288 192 c 1,16,17
 288 168 288 168 288 96 c 1,18,19
 336 96 336 96 480 96 c 1,20,21
 480 144 480 144 480 288 c 1,22,23
 456 288 456 288 384 288 c 1,24,25
 384 312 384 312 384 384 c 1,26,27
 408 384 408 384 480 384 c 1,28,29
 480 408 480 408 480 480 c 1,30,31
 504 480 504 480 576 480 c 1,32,33
 576 384 576 384 576 96 c 1,34,35
 552 96 552 96 480 96 c 1,36,37
 480 72 480 72 480 0 c 1,38,39
 408 0 408 0 192 0 c 1,40,41
 192 24 192 24 192 96 c 1,42,43
 168 96 168 96 96 96 c 1,44,45
 96 192 96 192 96 480 c 1,46,47
 120 480 120 480 192 480 c 1,48,49
 192 504 192 504 192 576 c 1,50,51
 264 576 264 576 480 576 c 1,0,1
EndSplineSet
EndChar

StartChar: one
Encoding: 49 49 20
Width: 576
VWidth: 960
Flags: W
LayerCount: 2
Fore
SplineSet
384 576 m 1,0,1
 384 384 l 0,2,3
 384 192 384 192 384 96 c 1,4,5
 432 96 l 256,6,7
 480 96 l 257,8,9
 480 48 l 256,10,11
 480 0 l 1,12,13
 352 0 352 0 96 0 c 1,14,15
 96 48 l 256,16,17
 96 96 l 1,18,19
 128 96 128 96 192 96 c 1,20,21
 192 168 192 168 192 384 c 1,22,23
 168 384 168 384 96 384 c 1,24,25
 96 408 96 408 96 480 c 1,26,27
 120 480 120 480 192 480 c 1,28,29
 192 504 192 504 192 576 c 1,30,31
 240 576 240 576 384 576 c 1,0,1
EndSplineSet
EndChar

StartChar: two
Encoding: 50 50 21
Width: 576
VWidth: 960
Flags: W
LayerCount: 2
Fore
SplineSet
96 576 m 1,0,1
 168 576 168 576 384 576 c 1,2,3
 384 552 384 552 384 480 c 1,4,5
 408 480 408 480 480 480 c 1,6,7
 480 432 480 432 480 288 c 1,8,9
 456 288 456 288 384 288 c 1,10,11
 384 264 384 264 384 192 c 1,12,13
 336 192 336 192 192 192 c 1,14,15
 192 144 l 0,16,17
 192 96 l 1,18,19
 288 96 288 96 384 96 c 0,20,21
 480 96 l 1,22,23
 480 64 480 64 480 0 c 1,24,25
 384 0 384 0 240 0 c 256,26,27
 96 0 l 1,28,29
 96 64 96 64 96 192 c 1,30,31
 120 192 120 192 192 192 c 1,32,33
 192 216 192 216 192 288 c 1,34,35
 240 288 240 288 264 288 c 0,36,37
 288 288 l 1,38,39
 288 336 288 336 288 408 c 256,40,41
 288 480 l 1,42,43
 224 480 224 480 96 480 c 1,44,45
 96 504 96 504 96 576 c 1,0,1
EndSplineSet
EndChar

StartChar: three
Encoding: 51 51 22
Width: 576
VWidth: 960
Flags: W
LayerCount: 2
Fore
SplineSet
96 576 m 1,0,1
 192 576 192 576 480 576 c 1,2,3
 480 528 480 528 480 456 c 0,4,5
 480 384 l 1,6,7
 448 384 448 384 384 384 c 1,8,9
 384 360 384 360 384 288 c 1,10,11
 408 288 408 288 480 288 c 1,12,13
 480 240 480 240 480 96 c 1,14,15
 456 96 456 96 384 96 c 1,16,17
 384 72 384 72 384 0 c 1,18,19
 288 0 288 0 192 0 c 0,20,21
 96 0 l 1,22,23
 96 32 96 32 96 96 c 1,24,25
 192 96 192 96 240 96 c 256,26,27
 288 96 l 1,28,29
 288 160 288 160 288 288 c 1,30,31
 264 288 264 288 192 288 c 1,32,33
 192 312 192 312 192 384 c 1,34,35
 216 384 216 384 288 384 c 1,36,37
 288 408 288 408 288 480 c 1,38,39
 240 480 240 480 96 480 c 1,40,41
 96 504 96 504 96 576 c 1,0,1
EndSplineSet
EndChar

StartChar: four
Encoding: 52 52 23
Width: 576
VWidth: 960
Flags: W
LayerCount: 2
Fore
SplineSet
480 480 m 1,0,1
 456 480 456 480 384 480 c 1,2,3
 384 432 384 432 384 288 c 1,4,5
 360 288 360 288 288 288 c 1,6,7
 288 264 288 264 288 192 c 1,8,9
 336 192 336 192 480 192 c 1,10,11
 480 216 480 216 480 288 c 1,12,13
 504 288 504 288 576 288 c 1,14,15
 576 216 576 216 576 0 c 1,16,17
 528 0 l 256,18,19
 480 0 l 257,20,21
 480 48 l 256,22,23
 480 96 l 1,24,25
 352 96 352 96 96 96 c 1,26,27
 96 144 96 144 96 288 c 1,28,29
 120 288 120 288 192 288 c 1,30,31
 192 336 192 336 192 480 c 1,32,33
 216 480 216 480 288 480 c 1,34,35
 288 504 288 504 288 576 c 1,36,37
 336 576 336 576 480 576 c 1,38,39
 480 552 480 552 480 480 c 1,0,1
EndSplineSet
EndChar

StartChar: five
Encoding: 53 53 24
Width: 576
VWidth: 960
Flags: W
LayerCount: 2
Fore
SplineSet
480 480 m 1,0,1
 432 480 432 480 288 480 c 1,2,3
 288 456 288 456 288 384 c 1,4,5
 312 384 l 0,6,7
 336 384 336 384 384 384 c 1,8,9
 384 336 l 0,10,11
 384 288 l 1,12,13
 416 288 416 288 480 288 c 1,14,15
 480 216 l 0,16,17
 480 144 480 144 480 96 c 1,18,19
 432 96 l 256,20,21
 384 96 l 257,22,23
 384 48 l 256,24,25
 384 0 l 1,26,27
 288 0 288 0 96 0 c 1,28,29
 96 48 l 256,30,31
 96 96 l 1,32,33
 192 96 192 96 384 96 c 1,34,35
 384 144 384 144 384 288 c 1,36,37
 288 288 l 0,38,39
 192 288 192 288 96 288 c 1,40,41
 96 384 96 384 96 576 c 1,42,43
 192 576 192 576 480 576 c 1,44,45
 480 552 480 552 480 480 c 1,0,1
EndSplineSet
EndChar

StartChar: six
Encoding: 54 54 25
Width: 576
VWidth: 960
Flags: W
LayerCount: 2
Fore
SplineSet
384 480 m 1,0,1
 360 480 360 480 288 480 c 1,2,3
 288 456 288 456 288 384 c 1,4,5
 312 384 l 0,6,7
 336 384 336 384 384 384 c 1,8,9
 384 352 384 352 384 288 c 1,10,11
 360 288 360 288 288 288 c 1,12,13
 288 240 288 240 288 96 c 1,14,15
 312 96 l 0,16,17
 336 96 336 96 384 96 c 1,18,19
 384 168 l 256,20,21
 384 240 384 240 384 288 c 1,22,23
 416 288 416 288 480 288 c 1,24,25
 480 240 480 240 480 96 c 1,26,27
 432 96 l 256,28,29
 384 96 l 257,30,31
 384 48 l 256,32,33
 384 0 l 1,34,35
 320 0 320 0 192 0 c 1,36,37
 192 48 l 256,38,39
 192 96 l 257,40,41
 144 96 l 0,42,43
 96 96 l 257,44,45
 96 240 l 256,46,47
 96 384 96 384 96 480 c 1,48,49
 128 480 128 480 192 480 c 1,50,51
 192 504 192 504 192 576 c 1,52,53
 240 576 240 576 384 576 c 1,54,55
 384 552 384 552 384 480 c 1,0,1
EndSplineSet
EndChar

StartChar: seven
Encoding: 55 55 26
Width: 576
VWidth: 960
Flags: W
LayerCount: 2
Fore
SplineSet
480 576 m 1,0,1
 480 504 480 504 480 288 c 1,2,3
 432 288 l 256,4,5
 384 288 l 1,6,7
 384 256 384 256 384 192 c 1,8,9
 336 192 l 0,10,11
 288 192 l 1,12,13
 288 128 288 128 288 0 c 1,14,15
 192 0 l 0,16,17
 96 0 l 1,18,19
 96 64 96 64 96 192 c 1,20,21
 120 192 120 192 192 192 c 1,22,23
 192 216 192 216 192 288 c 1,24,25
 216 288 216 288 288 288 c 1,26,27
 288 312 288 312 288 384 c 0,28,29
 288 408 288 408 288 480 c 1,30,31
 240 480 240 480 96 480 c 1,32,33
 96 504 96 504 96 576 c 1,34,35
 192 576 192 576 480 576 c 1,0,1
EndSplineSet
EndChar

StartChar: eight
Encoding: 56 56 27
Width: 576
VWidth: 960
Flags: W
LayerCount: 2
Fore
SplineSet
384 576 m 1,0,1
 384 528 l 256,2,3
 384 480 l 1,4,5
 416 480 416 480 480 480 c 1,6,7
 480 456 480 456 480 384 c 1,8,9
 432 384 l 256,10,11
 384 384 l 1,12,13
 384 416 384 416 384 480 c 1,14,15
 360 480 360 480 288 480 c 1,16,17
 288 456 288 456 288 384 c 1,18,19
 312 384 312 384 384 384 c 1,20,21
 384 360 384 360 384 288 c 1,22,23
 360 288 360 288 288 288 c 1,24,25
 288 240 288 240 288 96 c 1,26,27
 312 96 312 96 384 96 c 1,28,29
 384 144 384 144 384 288 c 1,30,31
 408 288 408 288 480 288 c 1,32,33
 480 216 l 0,34,35
 480 144 480 144 480 96 c 1,36,37
 448 96 448 96 384 96 c 1,38,39
 384 48 l 256,40,41
 384 0 l 257,42,43
 312 0 l 256,44,45
 240 0 240 0 192 0 c 1,46,47
 192 48 l 256,48,49
 192 96 l 1,50,51
 160 96 160 96 96 96 c 1,52,53
 96 168 l 256,54,55
 96 240 96 240 96 288 c 1,56,57
 128 288 128 288 192 288 c 1,58,59
 192 336 l 0,60,61
 192 384 l 1,62,63
 160 384 160 384 96 384 c 1,64,65
 96 408 96 408 96 480 c 1,66,67
 120 480 120 480 192 480 c 1,68,69
 192 504 192 504 192 576 c 1,70,71
 240 576 240 576 384 576 c 1,0,1
EndSplineSet
EndChar

StartChar: nine
Encoding: 57 57 28
Width: 576
VWidth: 960
Flags: W
LayerCount: 2
Fore
SplineSet
288 96 m 1,0,1
 288 120 288 120 288 192 c 1,2,3
 264 192 264 192 192 192 c 1,4,5
 192 240 l 256,6,7
 192 288 l 1,8,9
 224 288 224 288 288 288 c 1,10,11
 288 336 288 336 288 480 c 1,12,13
 264 480 264 480 192 480 c 1,14,15
 192 432 192 432 192 288 c 1,16,17
 144 288 l 0,18,19
 96 288 l 257,20,21
 96 360 l 256,22,23
 96 432 96 432 96 480 c 1,24,25
 128 480 128 480 192 480 c 1,26,27
 192 528 l 256,28,29
 192 576 l 1,30,31
 256 576 256 576 384 576 c 1,32,33
 384 528 l 256,34,35
 384 480 l 1,36,37
 416 480 416 480 480 480 c 1,38,39
 480 384 480 384 480 96 c 1,40,41
 432 96 l 256,42,43
 384 96 l 257,44,45
 384 48 l 256,46,47
 384 0 l 257,48,49
 312 0 l 256,50,51
 240 0 240 0 192 0 c 1,52,53
 192 48 l 256,54,55
 192 96 l 1,56,57
 224 96 224 96 288 96 c 1,0,1
EndSplineSet
EndChar

StartChar: colon
Encoding: 58 58 29
Width: 576
VWidth: 960
Flags: W
LayerCount: 2
Fore
SplineSet
384 384 m 1,0,1
 384 360 384 360 384 288 c 1,2,3
 288 288 l 0,4,5
 192 288 l 257,6,7
 192 336 l 0,8,9
 192 384 l 1,10,11
 256 384 256 384 384 384 c 1,0,1
192 96 m 1,12,13
 192 144 l 0,14,15
 192 192 l 1,16,17
 256 192 256 192 384 192 c 1,18,19
 384 144 l 0,20,21
 384 96 l 1,22,23
 320 96 320 96 192 96 c 1,12,13
EndSplineSet
EndChar

StartChar: semicolon
Encoding: 59 59 30
Width: 576
VWidth: 960
Flags: W
LayerCount: 2
Fore
SplineSet
384 384 m 1,0,1
 384 336 l 0,2,3
 384 288 l 257,4,5
 288 288 l 0,6,7
 192 288 l 1,8,9
 192 320 192 320 192 384 c 1,10,11
 240 384 240 384 384 384 c 1,0,1
384 192 m 1,12,13
 384 144 384 144 384 0 c 1,14,15
 336 0 l 0,16,17
 288 0 l 1,18,19
 288 -32 288 -32 288 -96 c 1,20,21
 192 -96 l 0,22,23
 96 -96 l 1,24,25
 96 -64 96 -64 96 0 c 1,26,27
 120 0 120 0 192 0 c 1,28,29
 192 48 192 48 192 192 c 1,30,31
 240 192 240 192 384 192 c 1,12,13
EndSplineSet
EndChar

StartChar: less
Encoding: 60 60 31
Width: 576
VWidth: 960
Flags: W
LayerCount: 2
Fore
SplineSet
480 384 m 1,0,1
 432 384 l 256,2,3
 384 384 l 1,4,5
 384 352 384 352 384 288 c 1,6,7
 336 288 l 0,8,9
 288 288 l 1,10,11
 288 256 288 256 288 192 c 1,12,13
 312 192 312 192 384 192 c 1,14,15
 384 144 l 0,16,17
 384 96 l 1,18,19
 416 96 416 96 480 96 c 1,20,21
 480 48 l 256,22,23
 480 0 l 1,24,25
 416 0 416 0 288 0 c 1,26,27
 288 48 l 256,28,29
 288 96 l 1,30,31
 256 96 256 96 192 96 c 1,32,33
 192 144 l 0,34,35
 192 192 l 1,36,37
 160 192 160 192 96 192 c 1,38,39
 96 216 96 216 96 288 c 1,40,41
 120 288 120 288 192 288 c 1,42,43
 192 312 192 312 192 384 c 1,44,45
 216 384 216 384 288 384 c 1,46,47
 288 408 288 408 288 480 c 1,48,49
 336 480 336 480 480 480 c 1,50,51
 480 456 480 456 480 384 c 1,0,1
EndSplineSet
EndChar

StartChar: equal
Encoding: 61 61 32
Width: 576
VWidth: 960
Flags: W
LayerCount: 2
Fore
SplineSet
480 384 m 1,0,1
 480 360 480 360 480 288 c 1,2,3
 384 288 384 288 96 288 c 1,4,5
 96 336 l 0,6,7
 96 384 l 1,8,9
 224 384 224 384 480 384 c 1,0,1
480 192 m 1,10,11
 480 144 l 0,12,13
 480 96 l 1,14,15
 352 96 352 96 96 96 c 1,16,17
 96 144 l 0,18,19
 96 192 l 1,20,21
 224 192 224 192 480 192 c 1,10,11
EndSplineSet
EndChar

StartChar: greater
Encoding: 62 62 33
Width: 576
VWidth: 960
Flags: W
LayerCount: 2
Fore
SplineSet
384 480 m 1,0,1
 384 432 l 256,2,3
 384 384 l 1,4,5
 416 384 416 384 480 384 c 1,6,7
 480 336 l 0,8,9
 480 288 l 1,10,11
 512 288 512 288 576 288 c 1,12,13
 576 264 576 264 576 192 c 1,14,15
 528 192 l 256,16,17
 480 192 l 257,18,19
 480 144 l 0,20,21
 480 96 l 1,22,23
 448 96 448 96 384 96 c 1,24,25
 384 48 l 256,26,27
 384 0 l 257,28,29
 288 0 l 0,30,31
 192 0 l 257,32,33
 192 48 l 256,34,35
 192 96 l 1,36,37
 224 96 224 96 288 96 c 1,38,39
 288 144 l 0,40,41
 288 192 l 1,42,43
 320 192 320 192 384 192 c 1,44,45
 384 240 l 256,46,47
 384 288 l 1,48,49
 352 288 352 288 288 288 c 1,50,51
 288 336 l 0,52,53
 288 384 l 1,54,55
 256 384 256 384 192 384 c 1,56,57
 192 432 l 256,58,59
 192 480 l 1,60,61
 256 480 256 480 384 480 c 1,0,1
EndSplineSet
EndChar

StartChar: question
Encoding: 63 63 34
Width: 576
VWidth: 960
Flags: W
LayerCount: 2
Fore
SplineSet
192 384 m 1,0,1
 144 384 l 0,2,3
 96 384 l 257,4,5
 96 432 l 256,6,7
 96 480 l 257,8,9
 144 480 l 0,10,11
 192 480 l 1,12,13
 192 512 192 512 192 576 c 1,14,15
 240 576 240 576 384 576 c 1,16,17
 384 528 l 256,18,19
 384 480 l 1,20,21
 416 480 416 480 480 480 c 1,22,23
 480 432 480 432 480 288 c 1,24,25
 456 288 456 288 384 288 c 1,26,27
 384 264 384 264 384 192 c 1,28,29
 360 192 360 192 288 192 c 1,30,31
 288 168 288 168 288 96 c 1,32,33
 264 96 264 96 192 96 c 1,34,35
 192 120 192 120 192 192 c 1,36,37
 240 192 l 256,38,39
 288 192 l 1,40,41
 288 224 288 224 288 288 c 1,42,43
 288 288 l 257,44,45
 288 288 l 1,46,47
 288 352 288 352 288 480 c 1,48,49
 264 480 264 480 192 480 c 1,50,51
 192 456 192 456 192 384 c 1,0,1
288 0 m 1,52,53
 288 -48 l 256,54,55
 288 -96 l 257,56,57
 240 -96 l 256,58,59
 192 -96 l 1,60,61
 192 -64 192 -64 192 0 c 1,62,63
 216 0 216 0 288 0 c 1,52,53
EndSplineSet
EndChar

StartChar: at
Encoding: 64 64 35
Width: 576
VWidth: 960
Flags: W
LayerCount: 2
Fore
SplineSet
192 0 m 1,0,1
 264 0 264 0 480 0 c 1,2,3
 480 -24 480 -24 480 -96 c 1,4,5
 384 -96 l 0,6,7
 288 -96 288 -96 192 -96 c 1,8,9
 192 -64 192 -64 192 0 c 1,10,11
 168 0 168 0 96 0 c 1,12,13
 96 144 96 144 96 576 c 1,14,15
 120 576 120 576 192 576 c 1,16,17
 192 624 l 0,18,19
 192 672 l 1,20,21
 288 672 288 672 480 672 c 1,22,23
 480 648 480 648 480 576 c 1,24,25
 408 576 408 576 192 576 c 1,26,27
 192 528 192 528 192 384 c 1,28,29
 216 384 216 384 288 384 c 1,30,31
 288 336 288 336 288 192 c 1,32,33
 312 192 312 192 384 192 c 1,34,35
 384 240 384 240 384 384 c 1,36,37
 360 384 360 384 288 384 c 1,38,39
 288 408 288 408 288 480 c 1,40,41
 312 480 312 480 384 480 c 1,42,43
 384 504 384 504 384 576 c 1,44,45
 432 576 432 576 576 576 c 1,46,47
 576 456 576 456 576 96 c 1,48,49
 504 96 504 96 288 96 c 1,50,51
 288 120 288 120 288 192 c 1,52,53
 264 192 264 192 192 192 c 1,54,55
 192 144 192 144 192 0 c 1,0,1
EndSplineSet
EndChar

StartChar: A
Encoding: 65 65 36
Width: 576
VWidth: 960
Flags: W
LayerCount: 2
Fore
SplineSet
96 0 m 1,0,1
 96 120 96 120 96 480 c 1,2,3
 144 480 144 480 288 480 c 1,4,5
 288 432 288 432 288 288 c 1,6,7
 312 288 312 288 384 288 c 1,8,9
 384 336 384 336 384 408 c 256,10,11
 384 480 l 1,12,13
 320 480 320 480 192 480 c 1,14,15
 192 504 192 504 192 576 c 1,16,17
 240 576 240 576 384 576 c 1,18,19
 384 552 384 552 384 480 c 1,20,21
 408 480 408 480 480 480 c 1,22,23
 480 360 480 360 480 0 c 1,24,25
 456 0 456 0 384 0 c 1,26,27
 384 48 384 48 384 120 c 256,28,29
 384 192 l 1,30,31
 352 192 352 192 288 192 c 1,32,33
 288 144 288 144 288 72 c 256,34,35
 288 0 l 1,36,37
 224 0 224 0 96 0 c 1,0,1
EndSplineSet
EndChar

StartChar: B
Encoding: 66 66 37
Width: 576
VWidth: 960
Flags: W
LayerCount: 2
Fore
SplineSet
96 0 m 1,0,1
 96 144 96 144 96 576 c 1,2,3
 168 576 168 576 384 576 c 1,4,5
 384 552 384 552 384 480 c 1,6,7
 408 480 408 480 480 480 c 1,8,9
 480 456 480 456 480 384 c 1,10,11
 456 384 456 384 384 384 c 1,12,13
 384 432 l 256,14,15
 384 480 l 1,16,17
 352 480 352 480 288 480 c 1,18,19
 288 456 288 456 288 384 c 1,20,21
 312 384 312 384 384 384 c 1,22,23
 384 360 384 360 384 288 c 1,24,25
 360 288 360 288 288 288 c 1,26,27
 288 240 288 240 288 96 c 1,28,29
 312 96 312 96 384 96 c 1,30,31
 384 144 384 144 384 288 c 1,32,33
 408 288 408 288 480 288 c 1,34,35
 480 240 480 240 480 168 c 256,36,37
 480 96 l 1,38,39
 448 96 448 96 384 96 c 1,40,41
 384 48 l 256,42,43
 384 0 l 1,44,45
 288 0 288 0 96 0 c 1,0,1
EndSplineSet
EndChar

StartChar: C
Encoding: 67 67 38
Width: 576
VWidth: 960
Flags: W
LayerCount: 2
Fore
SplineSet
480 480 m 1,0,1
 432 480 l 256,2,3
 384 480 384 480 288 480 c 1,4,5
 288 352 288 352 288 96 c 1,6,7
 336 96 l 0,8,9
 384 96 384 96 480 96 c 1,10,11
 480 48 l 256,12,13
 480 0 l 1,14,15
 384 0 384 0 192 0 c 1,16,17
 192 24 192 24 192 96 c 1,18,19
 144 96 l 0,20,21
 96 96 l 1,22,23
 96 224 96 224 96 480 c 1,24,25
 120 480 120 480 192 480 c 1,26,27
 192 504 192 504 192 576 c 1,28,29
 264 576 264 576 480 576 c 1,30,31
 480 552 480 552 480 480 c 1,0,1
EndSplineSet
EndChar

StartChar: D
Encoding: 68 68 39
Width: 576
VWidth: 960
Flags: W
LayerCount: 2
Fore
SplineSet
384 576 m 1,0,1
 384 552 384 552 384 480 c 1,2,3
 360 480 360 480 288 480 c 1,4,5
 288 384 288 384 288 96 c 1,6,7
 312 96 312 96 384 96 c 1,8,9
 384 192 384 192 384 480 c 1,10,11
 408 480 408 480 480 480 c 1,12,13
 480 336 l 0,14,15
 480 192 480 192 480 96 c 1,16,17
 448 96 448 96 384 96 c 1,18,19
 384 48 l 256,20,21
 384 0 l 1,22,23
 288 0 288 0 96 0 c 1,24,25
 96 144 96 144 96 576 c 1,26,27
 168 576 168 576 384 576 c 1,0,1
EndSplineSet
EndChar

StartChar: E
Encoding: 69 69 40
Width: 576
VWidth: 960
Flags: W
LayerCount: 2
Fore
SplineSet
480 576 m 1,0,1
 480 528 l 256,2,3
 480 480 l 257,4,5
 432 480 l 256,6,7
 384 480 384 480 288 480 c 1,8,9
 288 448 288 448 288 384 c 1,10,11
 312 384 312 384 384 384 c 1,12,13
 384 336 l 0,14,15
 384 288 l 257,16,17
 360 288 l 256,18,19
 336 288 336 288 288 288 c 1,20,21
 288 224 288 224 288 96 c 1,22,23
 336 96 336 96 480 96 c 1,24,25
 480 48 l 256,26,27
 480 0 l 257,28,29
 336 0 l 0,30,31
 192 0 192 0 96 0 c 1,32,33
 96 192 96 192 96 576 c 1,34,35
 192 576 192 576 480 576 c 1,0,1
EndSplineSet
EndChar

StartChar: F
Encoding: 70 70 41
Width: 576
VWidth: 960
Flags: W
LayerCount: 2
Fore
SplineSet
96 0 m 257,0,1
 96 216 l 0,2,3
 96 432 96 432 96 576 c 1,4,5
 224 576 224 576 480 576 c 1,6,7
 480 552 480 552 480 480 c 1,8,9
 384 480 384 480 336 480 c 0,10,11
 288 480 l 1,12,13
 288 448 288 448 288 384 c 1,14,15
 312 384 312 384 384 384 c 1,16,17
 384 360 384 360 384 288 c 1,18,19
 360 288 360 288 288 288 c 1,20,21
 288 192 288 192 288 96 c 0,22,23
 288 0 l 257,24,25
 192 0 l 0,26,27
 96 0 l 257,0,1
EndSplineSet
EndChar

StartChar: G
Encoding: 71 71 42
Width: 576
VWidth: 960
Flags: W
LayerCount: 2
Fore
SplineSet
480 480 m 1,0,1
 432 480 432 480 288 480 c 1,2,3
 288 384 288 384 288 96 c 1,4,5
 312 96 312 96 384 96 c 1,6,7
 384 144 384 144 384 288 c 1,8,9
 408 288 408 288 480 288 c 1,10,11
 480 216 480 216 480 0 c 1,12,13
 408 0 408 0 192 0 c 1,14,15
 192 24 192 24 192 96 c 1,16,17
 168 96 168 96 96 96 c 1,18,19
 96 192 96 192 96 480 c 1,20,21
 120 480 120 480 192 480 c 1,22,23
 192 504 192 504 192 576 c 1,24,25
 264 576 264 576 480 576 c 1,26,27
 480 552 480 552 480 480 c 1,0,1
EndSplineSet
EndChar

StartChar: H
Encoding: 72 72 43
Width: 576
VWidth: 960
Flags: W
LayerCount: 2
Fore
SplineSet
288 576 m 1,0,1
 288 528 288 528 288 384 c 1,2,3
 312 384 312 384 384 384 c 1,4,5
 384 432 384 432 384 576 c 1,6,7
 408 576 408 576 480 576 c 1,8,9
 480 432 480 432 480 0 c 1,10,11
 456 0 456 0 384 0 c 1,12,13
 384 72 384 72 384 288 c 1,14,15
 360 288 360 288 288 288 c 1,16,17
 288 216 288 216 288 0 c 1,18,19
 192 0 l 0,20,21
 96 0 l 1,22,23
 96 192 96 192 96 576 c 1,24,25
 144 576 144 576 288 576 c 1,0,1
EndSplineSet
EndChar

StartChar: I
Encoding: 73 73 44
Width: 576
VWidth: 960
Flags: W
LayerCount: 2
Fore
SplineSet
480 576 m 1,0,1
 480 552 480 552 480 480 c 1,2,3
 456 480 456 480 384 480 c 1,4,5
 384 384 384 384 384 96 c 1,6,7
 432 96 l 256,8,9
 480 96 l 257,10,11
 480 48 l 256,12,13
 480 0 l 1,14,15
 352 0 352 0 96 0 c 1,16,17
 96 24 96 24 96 96 c 1,18,19
 144 96 l 0,20,21
 192 96 l 1,22,23
 192 224 192 224 192 480 c 1,24,25
 168 480 168 480 96 480 c 1,26,27
 96 504 96 504 96 576 c 1,28,29
 192 576 192 576 480 576 c 1,0,1
EndSplineSet
EndChar

StartChar: J
Encoding: 74 74 45
Width: 576
VWidth: 960
Flags: W
LayerCount: 2
Fore
SplineSet
480 576 m 1,0,1
 480 528 l 256,2,3
 480 480 l 1,4,5
 448 480 448 480 384 480 c 1,6,7
 384 384 384 384 384 96 c 1,8,9
 360 96 360 96 288 96 c 1,10,11
 288 48 l 256,12,13
 288 0 l 1,14,15
 224 0 224 0 96 0 c 1,16,17
 96 24 96 24 96 96 c 1,18,19
 120 96 120 96 192 96 c 1,20,21
 192 240 l 256,22,23
 192 384 192 384 192 480 c 1,24,25
 160 480 160 480 96 480 c 1,26,27
 96 504 96 504 96 576 c 1,28,29
 192 576 192 576 480 576 c 1,0,1
EndSplineSet
EndChar

StartChar: K
Encoding: 75 75 46
Width: 576
VWidth: 960
Flags: W
LayerCount: 2
Fore
SplineSet
288 576 m 1,0,1
 288 528 288 528 288 384 c 1,2,3
 312 384 312 384 384 384 c 1,4,5
 384 408 384 408 384 480 c 1,6,7
 408 480 408 480 480 480 c 1,8,9
 480 504 480 504 480 576 c 1,10,11
 504 576 504 576 576 576 c 1,12,13
 576 552 576 552 576 480 c 1,14,15
 528 480 l 256,16,17
 480 480 l 1,18,19
 480 448 480 448 480 384 c 1,20,21
 432 384 l 256,22,23
 384 384 l 1,24,25
 384 320 384 320 384 192 c 1,26,27
 408 192 408 192 480 192 c 1,28,29
 480 144 l 0,30,31
 480 96 l 257,32,33
 528 96 l 256,34,35
 576 96 l 257,36,37
 576 48 l 256,38,39
 576 0 l 1,40,41
 544 0 544 0 480 0 c 1,42,43
 480 24 480 24 480 96 c 1,44,45
 456 96 456 96 384 96 c 1,46,47
 384 120 384 120 384 192 c 1,48,49
 360 192 360 192 288 192 c 1,50,51
 288 144 288 144 288 0 c 1,52,53
 240 0 240 0 96 0 c 1,54,55
 96 144 96 144 96 576 c 1,56,57
 144 576 144 576 288 576 c 1,0,1
EndSplineSet
EndChar

StartChar: L
Encoding: 76 76 47
Width: 576
VWidth: 960
Flags: W
LayerCount: 2
Fore
SplineSet
288 576 m 1,0,1
 288 384 l 0,2,3
 288 192 288 192 288 96 c 1,4,5
 352 96 352 96 480 96 c 1,6,7
 480 48 l 256,8,9
 480 0 l 257,10,11
 336 0 l 0,12,13
 192 0 192 0 96 0 c 1,14,15
 96 192 96 192 96 576 c 1,16,17
 144 576 144 576 288 576 c 1,0,1
EndSplineSet
EndChar

StartChar: M
Encoding: 77 77 48
Width: 576
VWidth: 960
Flags: W
LayerCount: 2
Fore
SplineSet
0 0 m 1,0,1
 0 144 0 144 0 576 c 1,2,3
 72 576 72 576 288 576 c 1,4,5
 288 552 288 552 288 480 c 1,6,7
 312 480 312 480 384 480 c 1,8,9
 384 504 384 504 384 576 c 1,10,11
 432 576 432 576 576 576 c 1,12,13
 576 432 576 432 576 0 c 1,14,15
 552 0 552 0 480 0 c 1,16,17
 480 120 480 120 480 480 c 1,18,19
 456 480 456 480 384 480 c 1,20,21
 384 432 384 432 384 360 c 256,22,23
 384 288 l 1,24,25
 352 288 352 288 288 288 c 1,26,27
 288 336 288 336 288 480 c 1,28,29
 264 480 264 480 192 480 c 1,30,31
 192 360 192 360 192 0 c 1,32,33
 144 0 144 0 0 0 c 1,0,1
EndSplineSet
EndChar

StartChar: N
Encoding: 78 78 49
Width: 576
VWidth: 960
Flags: W
LayerCount: 2
Fore
SplineSet
96 0 m 1,0,1
 96 144 96 144 96 576 c 1,2,3
 144 576 144 576 288 576 c 1,4,5
 288 528 288 528 288 384 c 1,6,7
 312 384 312 384 384 384 c 1,8,9
 384 360 384 360 384 288 c 1,10,11
 408 288 408 288 480 288 c 1,12,13
 480 360 480 360 480 576 c 1,14,15
 504 576 504 576 576 576 c 1,16,17
 576 432 576 432 576 0 c 1,18,19
 528 0 l 256,20,21
 480 0 l 1,22,23
 480 48 480 48 480 120 c 256,24,25
 480 192 l 257,26,27
 432 192 l 256,28,29
 384 192 l 1,30,31
 384 224 384 224 384 288 c 1,32,33
 360 288 360 288 288 288 c 1,34,35
 288 192 288 192 288 96 c 0,36,37
 288 0 l 1,38,39
 224 0 224 0 96 0 c 1,0,1
EndSplineSet
EndChar

StartChar: O
Encoding: 79 79 50
Width: 576
VWidth: 960
Flags: W
LayerCount: 2
Fore
SplineSet
192 480 m 1,0,1
 192 504 192 504 192 576 c 1,2,3
 240 576 240 576 384 576 c 1,4,5
 384 528 l 256,6,7
 384 480 l 1,8,9
 416 480 416 480 480 480 c 1,10,11
 480 384 480 384 480 96 c 1,12,13
 432 96 l 256,14,15
 384 96 l 1,16,17
 384 224 384 224 384 480 c 1,18,19
 360 480 360 480 288 480 c 1,20,21
 288 384 288 384 288 96 c 1,22,23
 312 96 312 96 384 96 c 1,24,25
 384 48 l 256,26,27
 384 0 l 1,28,29
 320 0 320 0 192 0 c 1,30,31
 192 24 192 24 192 96 c 1,32,33
 168 96 168 96 96 96 c 1,34,35
 96 240 l 256,36,37
 96 384 96 384 96 480 c 1,38,39
 128 480 128 480 192 480 c 1,0,1
EndSplineSet
EndChar

StartChar: P
Encoding: 80 80 51
Width: 576
VWidth: 960
Flags: W
LayerCount: 2
Fore
SplineSet
96 0 m 1,0,1
 96 144 96 144 96 576 c 1,2,3
 168 576 168 576 384 576 c 1,4,5
 384 552 384 552 384 480 c 1,6,7
 360 480 360 480 288 480 c 1,8,9
 288 432 288 432 288 288 c 1,10,11
 312 288 312 288 384 288 c 1,12,13
 384 336 384 336 384 480 c 1,14,15
 408 480 408 480 480 480 c 1,16,17
 480 432 480 432 480 360 c 256,18,19
 480 288 l 1,20,21
 448 288 448 288 384 288 c 1,22,23
 384 240 l 256,24,25
 384 192 l 1,26,27
 352 192 352 192 288 192 c 1,28,29
 288 144 288 144 288 72 c 256,30,31
 288 0 l 1,32,33
 224 0 224 0 96 0 c 1,0,1
EndSplineSet
EndChar

StartChar: Q
Encoding: 81 81 52
Width: 576
VWidth: 960
Flags: W
LayerCount: 2
Fore
SplineSet
192 480 m 1,0,1
 192 504 192 504 192 576 c 1,2,3
 240 576 240 576 384 576 c 1,4,5
 384 552 384 552 384 480 c 1,6,7
 432 480 l 256,8,9
 480 480 l 1,10,11
 480 352 480 352 480 96 c 1,12,13
 456 96 456 96 384 96 c 1,14,15
 384 192 384 192 384 480 c 1,16,17
 360 480 360 480 288 480 c 1,18,19
 288 384 288 384 288 96 c 1,20,21
 312 96 l 0,22,23
 336 96 336 96 384 96 c 1,24,25
 384 48 l 256,26,27
 384 0 l 1,28,29
 416 0 416 0 480 0 c 1,30,31
 480 -24 480 -24 480 -96 c 1,32,33
 432 -96 432 -96 288 -96 c 1,34,35
 288 -72 288 -72 288 0 c 1,36,37
 264 0 264 0 192 0 c 1,38,39
 192 24 192 24 192 96 c 1,40,41
 168 96 168 96 96 96 c 1,42,43
 96 192 96 192 96 480 c 1,44,45
 120 480 120 480 192 480 c 1,0,1
EndSplineSet
EndChar

StartChar: R
Encoding: 82 82 53
Width: 576
VWidth: 960
Flags: W
LayerCount: 2
Fore
SplineSet
96 0 m 1,0,1
 96 144 96 144 96 576 c 1,2,3
 168 576 168 576 384 576 c 1,4,5
 384 552 384 552 384 480 c 1,6,7
 360 480 360 480 288 480 c 1,8,9
 288 432 288 432 288 288 c 1,10,11
 312 288 312 288 384 288 c 1,12,13
 384 336 384 336 384 480 c 1,14,15
 408 480 408 480 480 480 c 1,16,17
 480 432 480 432 480 360 c 256,18,19
 480 288 l 1,20,21
 448 288 448 288 384 288 c 1,22,23
 384 240 384 240 384 96 c 1,24,25
 408 96 408 96 480 96 c 1,26,27
 480 48 l 256,28,29
 480 0 l 257,30,31
 432 0 l 256,32,33
 384 0 l 257,34,35
 384 48 l 256,36,37
 384 96 l 1,38,39
 352 96 352 96 288 96 c 1,40,41
 288 120 288 120 288 192 c 1,42,43
 288 192 l 1,44,45
 288 144 288 144 288 0 c 1,46,47
 240 0 240 0 96 0 c 1,0,1
EndSplineSet
EndChar

StartChar: S
Encoding: 83 83 54
Width: 576
VWidth: 960
Flags: W
LayerCount: 2
Fore
SplineSet
480 480 m 1,0,1
 432 480 432 480 288 480 c 1,2,3
 288 456 288 456 288 384 c 1,4,5
 312 384 312 384 384 384 c 1,6,7
 384 336 l 0,8,9
 384 288 l 257,10,11
 432 288 l 256,12,13
 480 288 l 1,14,15
 480 224 480 224 480 96 c 1,16,17
 432 96 l 256,18,19
 384 96 l 1,20,21
 384 64 384 64 384 0 c 1,22,23
 288 0 l 0,24,25
 192 0 192 0 96 0 c 1,26,27
 96 48 l 256,28,29
 96 96 l 1,30,31
 160 96 160 96 288 96 c 1,32,33
 288 144 288 144 288 288 c 1,34,35
 264 288 264 288 192 288 c 1,36,37
 192 312 192 312 192 384 c 1,38,39
 168 384 168 384 96 384 c 1,40,41
 96 432 l 256,42,43
 96 480 l 1,44,45
 128 480 128 480 192 480 c 1,46,47
 192 504 192 504 192 576 c 1,48,49
 264 576 264 576 480 576 c 1,50,51
 480 552 480 552 480 480 c 1,0,1
EndSplineSet
EndChar

StartChar: T
Encoding: 84 84 55
Width: 576
VWidth: 960
Flags: W
LayerCount: 2
Fore
SplineSet
576 576 m 1,0,1
 576 552 576 552 576 480 c 1,2,3
 528 480 528 480 384 480 c 1,4,5
 384 288 l 256,6,7
 384 96 384 96 384 0 c 1,8,9
 320 0 320 0 192 0 c 1,10,11
 192 120 192 120 192 480 c 1,12,13
 144 480 144 480 0 480 c 1,14,15
 0 504 0 504 0 576 c 1,16,17
 144 576 144 576 576 576 c 1,0,1
EndSplineSet
EndChar

StartChar: U
Encoding: 85 85 56
Width: 576
VWidth: 960
Flags: W
LayerCount: 2
Fore
SplineSet
192 576 m 257,0,1
 192 384 l 0,2,3
 192 192 192 192 192 96 c 1,4,5
 224 96 224 96 288 96 c 1,6,7
 288 288 l 256,8,9
 288 480 288 480 288 576 c 1,10,11
 352 576 352 576 480 576 c 1,12,13
 480 360 l 256,14,15
 480 144 480 144 480 0 c 1,16,17
 384 0 l 0,18,19
 288 0 288 0 192 0 c 1,20,21
 192 32 192 32 192 96 c 1,22,23
 168 96 168 96 96 96 c 1,24,25
 96 192 96 192 96 384 c 0,26,27
 96 576 l 257,28,29
 144 576 l 0,30,31
 192 576 l 257,0,1
EndSplineSet
EndChar

StartChar: V
Encoding: 86 86 57
Width: 576
VWidth: 960
Flags: W
LayerCount: 2
Fore
SplineSet
288 576 m 1,0,1
 288 480 288 480 288 192 c 1,2,3
 312 192 312 192 384 192 c 1,4,5
 384 288 384 288 384 576 c 1,6,7
 432 576 l 256,8,9
 480 576 l 1,10,11
 480 448 480 448 480 192 c 1,12,13
 456 192 456 192 384 192 c 1,14,15
 384 144 384 144 384 0 c 1,16,17
 336 0 336 0 192 0 c 1,18,19
 192 48 192 48 192 192 c 1,20,21
 168 192 168 192 96 192 c 1,22,23
 96 240 96 240 96 384 c 0,24,25
 96 432 96 432 96 576 c 1,26,27
 144 576 144 576 288 576 c 1,0,1
EndSplineSet
EndChar

StartChar: W
Encoding: 87 87 58
Width: 576
VWidth: 960
Flags: W
LayerCount: 2
Fore
SplineSet
192 576 m 1,0,1
 192 456 192 456 192 96 c 1,2,3
 216 96 216 96 288 96 c 1,4,5
 288 144 288 144 288 288 c 1,6,7
 312 288 312 288 384 288 c 1,8,9
 384 240 384 240 384 96 c 1,10,11
 408 96 408 96 480 96 c 1,12,13
 480 216 480 216 480 576 c 1,14,15
 528 576 l 256,16,17
 576 576 l 1,18,19
 576 416 576 416 576 96 c 1,20,21
 552 96 552 96 480 96 c 1,22,23
 480 72 480 72 480 0 c 1,24,25
 384 0 384 0 96 0 c 1,26,27
 96 48 l 256,28,29
 96 96 l 1,30,31
 64 96 64 96 0 96 c 1,32,33
 0 216 0 216 0 576 c 1,34,35
 48 576 48 576 192 576 c 1,0,1
EndSplineSet
EndChar

StartChar: X
Encoding: 88 88 59
Width: 576
VWidth: 960
Flags: W
LayerCount: 2
Fore
SplineSet
288 576 m 1,0,1
 288 504 l 0,2,3
 288 432 288 432 288 384 c 1,4,5
 320 384 320 384 384 384 c 1,6,7
 384 456 l 0,8,9
 384 528 384 528 384 576 c 1,10,11
 432 576 l 256,12,13
 480 576 l 257,14,15
 480 504 l 0,16,17
 480 432 480 432 480 384 c 1,18,19
 432 384 l 256,20,21
 384 384 l 1,22,23
 384 320 384 320 384 192 c 1,24,25
 408 192 408 192 480 192 c 1,26,27
 480 144 480 144 480 0 c 1,28,29
 456 0 456 0 384 0 c 1,30,31
 384 48 384 48 384 192 c 1,32,33
 360 192 360 192 288 192 c 1,34,35
 288 144 288 144 288 0 c 1,36,37
 240 0 240 0 96 0 c 1,38,39
 96 48 96 48 96 192 c 1,40,41
 120 192 120 192 192 192 c 1,42,43
 192 240 192 240 192 384 c 1,44,45
 168 384 168 384 96 384 c 1,46,47
 96 432 96 432 96 576 c 1,48,49
 144 576 144 576 288 576 c 1,0,1
EndSplineSet
EndChar

StartChar: Y
Encoding: 89 89 60
Width: 576
VWidth: 960
Flags: W
LayerCount: 2
Fore
SplineSet
96 576 m 1,0,1
 96 528 96 528 96 384 c 1,2,3
 120 384 120 384 192 384 c 1,4,5
 192 336 l 0,6,7
 192 288 l 1,8,9
 256 288 256 288 384 288 c 1,10,11
 384 312 384 312 384 384 c 1,12,13
 408 384 408 384 480 384 c 1,14,15
 480 432 480 432 480 576 c 1,16,17
 504 576 504 576 576 576 c 1,18,19
 576 504 l 0,20,21
 576 432 576 432 576 384 c 1,22,23
 528 384 l 256,24,25
 480 384 l 1,26,27
 480 352 480 352 480 288 c 1,28,29
 432 288 l 256,30,31
 384 288 l 1,32,33
 384 192 384 192 384 0 c 1,34,35
 336 0 336 0 192 0 c 1,36,37
 192 72 192 72 192 288 c 1,38,39
 168 288 168 288 96 288 c 1,40,41
 96 312 96 312 96 384 c 1,42,43
 72 384 72 384 0 384 c 1,44,45
 0 432 0 432 0 504 c 0,46,47
 0 576 l 257,48,49
 48 576 l 256,50,51
 96 576 l 1,0,1
EndSplineSet
EndChar

StartChar: Z
Encoding: 90 90 61
Width: 576
VWidth: 960
Flags: W
LayerCount: 2
Fore
SplineSet
480 576 m 1,0,1
 480 528 480 528 480 384 c 1,2,3
 480 384 l 1,4,5
 480 360 480 360 480 288 c 1,6,7
 456 288 456 288 384 288 c 1,8,9
 384 264 384 264 384 192 c 1,10,11
 336 192 l 0,12,13
 288 192 l 1,14,15
 288 160 288 160 288 96 c 1,16,17
 336 96 336 96 480 96 c 1,18,19
 480 48 l 256,20,21
 480 0 l 1,22,23
 352 0 352 0 96 0 c 1,24,25
 96 48 96 48 96 192 c 1,26,27
 120 192 120 192 192 192 c 1,28,29
 192 216 192 216 192 288 c 1,30,31
 216 288 216 288 288 288 c 1,32,33
 288 312 288 312 288 384 c 1,34,35
 312 384 312 384 384 384 c 1,36,37
 384 408 384 408 384 480 c 1,38,39
 312 480 312 480 96 480 c 1,40,41
 96 504 96 504 96 576 c 1,42,43
 192 576 192 576 480 576 c 1,0,1
EndSplineSet
EndChar

StartChar: bracketleft
Encoding: 91 91 62
Width: 576
VWidth: 960
Flags: W
LayerCount: 2
Fore
SplineSet
480 576 m 1,0,1
 408 576 l 256,2,3
 336 576 336 576 288 576 c 1,4,5
 288 384 288 384 288 0 c 1,6,7
 360 0 l 256,8,9
 432 0 432 0 480 0 c 1,10,11
 480 -48 l 256,12,13
 480 -96 l 257,14,15
 384 -96 l 0,16,17
 288 -96 288 -96 192 -96 c 1,18,19
 192 192 l 256,20,21
 192 480 192 480 192 672 c 1,22,23
 288 672 288 672 480 672 c 1,24,25
 480 648 480 648 480 576 c 1,0,1
EndSplineSet
EndChar

StartChar: backslash
Encoding: 92 92 63
Width: 576
VWidth: 960
Flags: W
LayerCount: 2
Fore
SplineSet
192 672 m 1,0,1
 192 600 l 256,2,3
 192 528 192 528 192 480 c 1,4,5
 224 480 224 480 288 480 c 1,6,7
 288 408 l 256,8,9
 288 336 288 336 288 288 c 1,10,11
 336 288 l 0,12,13
 384 288 l 257,14,15
 384 216 l 0,16,17
 384 144 384 144 384 96 c 1,18,19
 416 96 416 96 480 96 c 1,20,21
 480 24 l 0,22,23
 480 -48 480 -48 480 -96 c 1,24,25
 432 -96 l 256,26,27
 384 -96 l 1,28,29
 384 -32 384 -32 384 96 c 1,30,31
 360 96 360 96 288 96 c 1,32,33
 288 144 288 144 288 288 c 1,34,35
 264 288 264 288 192 288 c 1,36,37
 192 336 192 336 192 480 c 1,38,39
 168 480 168 480 96 480 c 1,40,41
 96 528 96 528 96 672 c 1,42,43
 120 672 120 672 192 672 c 1,0,1
EndSplineSet
EndChar

StartChar: bracketright
Encoding: 93 93 64
Width: 576
VWidth: 960
Flags: W
LayerCount: 2
Fore
SplineSet
384 672 m 1,0,1
 384 480 384 480 384 -96 c 1,2,3
 312 -96 312 -96 96 -96 c 1,4,5
 96 -72 96 -72 96 0 c 1,6,7
 168 0 l 256,8,9
 240 0 240 0 288 0 c 1,10,11
 288 192 288 192 288 576 c 1,12,13
 240 576 240 576 96 576 c 1,14,15
 96 600 96 600 96 672 c 1,16,17
 168 672 168 672 384 672 c 1,0,1
EndSplineSet
EndChar

StartChar: asciicircum
Encoding: 94 94 65
Width: 576
VWidth: 960
Flags: W
LayerCount: 2
Fore
SplineSet
96 480 m 1,0,1
 96 504 96 504 96 576 c 1,2,3
 144 576 l 0,4,5
 192 576 l 1,6,7
 192 608 192 608 192 672 c 1,8,9
 216 672 216 672 288 672 c 1,10,11
 288 672 l 1,12,13
 288 696 288 696 288 768 c 1,14,15
 336 768 l 0,16,17
 384 768 l 1,18,19
 384 736 384 736 384 672 c 1,20,21
 408 672 408 672 480 672 c 1,22,23
 480 624 l 0,24,25
 480 576 l 1,26,27
 512 576 512 576 576 576 c 1,28,29
 576 528 l 256,30,31
 576 480 l 1,32,33
 544 480 544 480 480 480 c 1,34,35
 480 504 480 504 480 576 c 1,36,37
 456 576 456 576 384 576 c 1,38,39
 384 600 384 600 384 672 c 1,40,41
 360 672 360 672 288 672 c 1,42,43
 288 624 l 0,44,45
 288 576 l 257,46,47
 240 576 l 256,48,49
 192 576 l 257,50,51
 192 528 l 256,52,53
 192 480 l 1,54,55
 160 480 160 480 96 480 c 1,0,1
EndSplineSet
EndChar

StartChar: underscore
Encoding: 95 95 66
Width: 576
VWidth: 960
Flags: W
LayerCount: 2
Fore
SplineSet
576 0 m 1,0,1
 576 -48 l 256,2,3
 576 -96 l 1,4,5
 416 -96 416 -96 96 -96 c 1,6,7
 96 -48 l 256,8,9
 96 0 l 1,10,11
 256 0 256 0 576 0 c 1,0,1
EndSplineSet
EndChar

StartChar: grave
Encoding: 96 96 67
Width: 576
VWidth: 960
Flags: W
LayerCount: 2
Fore
SplineSet
288 672 m 1,0,1
 288 600 l 256,2,3
 288 528 288 528 288 480 c 1,4,5
 320 480 320 480 384 480 c 1,6,7
 384 432 l 256,8,9
 384 384 l 257,10,11
 336 384 l 0,12,13
 288 384 l 257,14,15
 288 432 l 256,16,17
 288 480 l 1,18,19
 256 480 256 480 192 480 c 1,20,21
 192 528 192 528 192 672 c 1,22,23
 216 672 216 672 288 672 c 1,0,1
EndSplineSet
EndChar

StartChar: a
Encoding: 97 97 68
Width: 576
VWidth: 960
Flags: W
LayerCount: 2
Fore
SplineSet
384 480 m 1,0,1
 384 456 384 456 384 384 c 1,2,3
 360 384 360 384 288 384 c 1,4,5
 288 312 288 312 288 96 c 1,6,7
 312 96 312 96 384 96 c 1,8,9
 384 168 384 168 384 384 c 1,10,11
 408 384 408 384 480 384 c 1,12,13
 480 312 480 312 480 96 c 1,14,15
 504 96 504 96 576 96 c 1,16,17
 576 72 576 72 576 0 c 1,18,19
 552 0 552 0 480 0 c 1,20,21
 480 24 480 24 480 96 c 1,22,23
 456 96 456 96 384 96 c 1,24,25
 384 72 384 72 384 0 c 1,26,27
 336 0 336 0 192 0 c 1,28,29
 192 24 192 24 192 96 c 1,30,31
 168 96 168 96 96 96 c 1,32,33
 96 168 96 168 96 384 c 1,34,35
 120 384 120 384 192 384 c 1,36,37
 192 408 192 408 192 480 c 1,38,39
 240 480 240 480 384 480 c 1,0,1
EndSplineSet
EndChar

StartChar: b
Encoding: 98 98 69
Width: 576
VWidth: 960
Flags: W
LayerCount: 2
Fore
SplineSet
288 672 m 1,0,1
 288 624 288 624 288 480 c 1,2,3
 312 480 l 0,4,5
 336 480 336 480 384 480 c 1,6,7
 384 432 l 256,8,9
 384 384 l 1,10,11
 416 384 416 384 480 384 c 1,12,13
 480 288 l 0,14,15
 480 192 480 192 480 96 c 1,16,17
 448 96 448 96 384 96 c 1,18,19
 384 168 384 168 384 384 c 1,20,21
 360 384 360 384 288 384 c 1,22,23
 288 312 288 312 288 96 c 1,24,25
 312 96 312 96 384 96 c 1,26,27
 384 48 l 256,28,29
 384 0 l 1,30,31
 288 0 288 0 96 0 c 1,32,33
 96 168 96 168 96 672 c 1,34,35
 144 672 144 672 288 672 c 1,0,1
EndSplineSet
EndChar

StartChar: c
Encoding: 99 99 70
Width: 576
VWidth: 960
Flags: W
LayerCount: 2
Fore
SplineSet
480 384 m 1,0,1
 432 384 432 384 288 384 c 1,2,3
 288 312 288 312 288 96 c 1,4,5
 336 96 l 0,6,7
 384 96 384 96 480 96 c 1,8,9
 480 48 l 256,10,11
 480 0 l 1,12,13
 384 0 384 0 192 0 c 1,14,15
 192 24 192 24 192 96 c 1,16,17
 168 96 168 96 96 96 c 1,18,19
 96 168 96 168 96 384 c 1,20,21
 120 384 120 384 192 384 c 1,22,23
 192 408 192 408 192 480 c 1,24,25
 264 480 264 480 480 480 c 1,26,27
 480 456 480 456 480 384 c 1,0,1
EndSplineSet
EndChar

StartChar: d
Encoding: 100 100 71
Width: 576
VWidth: 960
Flags: W
LayerCount: 2
Fore
SplineSet
192 384 m 1,0,1
 192 408 192 408 192 480 c 1,2,3
 216 480 216 480 288 480 c 1,4,5
 288 552 l 256,6,7
 288 624 288 624 288 672 c 1,8,9
 384 672 l 0,10,11
 480 672 l 1,12,13
 480 448 480 448 480 0 c 1,14,15
 408 0 408 0 192 0 c 1,16,17
 192 24 192 24 192 96 c 1,18,19
 216 96 216 96 288 96 c 1,20,21
 288 168 288 168 288 384 c 1,22,23
 264 384 264 384 192 384 c 1,24,25
 192 312 192 312 192 96 c 1,26,27
 168 96 168 96 96 96 c 1,28,29
 96 168 96 168 96 384 c 1,30,31
 120 384 120 384 192 384 c 1,0,1
EndSplineSet
EndChar

StartChar: e
Encoding: 101 101 72
Width: 576
VWidth: 960
Flags: W
LayerCount: 2
Fore
SplineSet
384 384 m 1,0,1
 360 384 l 256,2,3
 336 384 336 384 288 384 c 1,4,5
 288 352 288 352 288 288 c 1,6,7
 312 288 312 288 384 288 c 1,8,9
 384 312 384 312 384 384 c 1,10,11
 432 384 l 256,12,13
 480 384 l 1,14,15
 480 320 480 320 480 192 c 1,16,17
 432 192 432 192 288 192 c 1,18,19
 288 168 288 168 288 96 c 1,20,21
 336 96 l 0,22,23
 384 96 384 96 480 96 c 1,24,25
 480 48 l 256,26,27
 480 0 l 1,28,29
 384 0 384 0 192 0 c 1,30,31
 192 24 192 24 192 96 c 1,32,33
 168 96 168 96 96 96 c 1,34,35
 96 168 96 168 96 384 c 1,36,37
 120 384 120 384 192 384 c 1,38,39
 192 408 192 408 192 480 c 1,40,41
 240 480 240 480 384 480 c 1,42,43
 384 456 384 456 384 384 c 1,0,1
EndSplineSet
EndChar

StartChar: f
Encoding: 102 102 73
Width: 576
VWidth: 960
Flags: W
LayerCount: 2
Fore
SplineSet
192 0 m 1,0,1
 192 144 192 144 192 576 c 1,2,3
 216 576 216 576 288 576 c 1,4,5
 288 600 288 600 288 672 c 1,6,7
 336 672 336 672 480 672 c 1,8,9
 480 648 480 648 480 576 c 1,10,11
 456 576 456 576 384 576 c 1,12,13
 384 552 384 552 384 480 c 1,14,15
 408 480 408 480 480 480 c 1,16,17
 480 456 480 456 480 384 c 1,18,19
 456 384 456 384 384 384 c 1,20,21
 384 288 384 288 384 0 c 1,22,23
 336 0 336 0 192 0 c 1,0,1
EndSplineSet
EndChar

StartChar: g
Encoding: 103 103 74
Width: 576
VWidth: 960
Flags: W
LayerCount: 2
Fore
SplineSet
192 384 m 1,0,1
 192 432 l 256,2,3
 192 480 l 1,4,5
 288 480 288 480 480 480 c 1,6,7
 480 336 480 336 480 -96 c 1,8,9
 432 -96 l 256,10,11
 384 -96 l 1,12,13
 384 -128 384 -128 384 -192 c 1,14,15
 336 -192 336 -192 192 -192 c 1,16,17
 192 -168 192 -168 192 -96 c 1,18,19
 216 -96 216 -96 288 -96 c 1,20,21
 288 -72 288 -72 288 0 c 1,22,23
 264 0 264 0 192 0 c 1,24,25
 192 48 l 256,26,27
 192 96 l 1,28,29
 224 96 224 96 288 96 c 1,30,31
 288 192 l 0,32,33
 288 288 288 288 288 384 c 1,34,35
 264 384 l 0,36,37
 240 384 240 384 192 384 c 1,38,39
 192 288 192 288 192 96 c 1,40,41
 168 96 168 96 96 96 c 1,42,43
 96 168 96 168 96 384 c 1,44,45
 120 384 120 384 192 384 c 1,0,1
EndSplineSet
EndChar

StartChar: h
Encoding: 104 104 75
Width: 576
VWidth: 960
Flags: W
LayerCount: 2
Fore
SplineSet
96 0 m 1,0,1
 96 192 96 192 96 432 c 256,2,3
 96 672 l 1,4,5
 160 672 160 672 288 672 c 1,6,7
 288 624 288 624 288 480 c 1,8,9
 336 480 336 480 360 480 c 256,10,11
 384 480 l 1,12,13
 384 448 384 448 384 384 c 1,14,15
 408 384 408 384 480 384 c 1,16,17
 480 288 480 288 480 0 c 1,18,19
 456 0 456 0 384 0 c 1,20,21
 384 96 384 96 384 384 c 1,22,23
 360 384 360 384 288 384 c 1,24,25
 288 288 288 288 288 144 c 0,26,27
 288 0 l 1,28,29
 224 0 224 0 96 0 c 1,0,1
EndSplineSet
EndChar

StartChar: i
Encoding: 105 105 76
Width: 576
VWidth: 960
Flags: W
LayerCount: 2
Fore
SplineSet
384 480 m 1,0,1
 384 336 l 0,2,3
 384 192 384 192 384 96 c 1,4,5
 432 96 l 256,6,7
 480 96 l 257,8,9
 480 48 l 256,10,11
 480 0 l 257,12,13
 384 0 l 0,14,15
 288 0 l 1,16,17
 288 32 288 32 288 96 c 1,18,19
 264 96 264 96 192 96 c 1,20,21
 192 240 l 256,22,23
 192 384 192 384 192 480 c 1,24,25
 256 480 256 480 384 480 c 1,0,1
384 576 m 1,26,27
 336 576 336 576 192 576 c 1,28,29
 192 600 192 600 192 672 c 1,30,31
 240 672 240 672 384 672 c 1,32,33
 384 648 384 648 384 576 c 1,26,27
EndSplineSet
EndChar

StartChar: j
Encoding: 106 106 77
Width: 576
VWidth: 960
Flags: W
LayerCount: 2
Fore
SplineSet
480 480 m 1,0,1
 480 288 l 256,2,3
 480 96 480 96 480 0 c 1,4,5
 432 0 l 256,6,7
 384 0 l 1,8,9
 384 -32 384 -32 384 -96 c 1,10,11
 336 -96 l 0,12,13
 288 -96 l 1,14,15
 288 -128 288 -128 288 -192 c 1,16,17
 240 -192 240 -192 96 -192 c 1,18,19
 96 -168 96 -168 96 -96 c 1,20,21
 120 -96 120 -96 192 -96 c 1,22,23
 192 -72 192 -72 192 0 c 1,24,25
 216 0 216 0 288 0 c 1,26,27
 288 120 288 120 288 480 c 1,28,29
 336 480 336 480 480 480 c 1,0,1
480 672 m 1,30,31
 480 624 l 0,32,33
 480 576 l 1,34,35
 416 576 416 576 288 576 c 1,36,37
 288 600 288 600 288 672 c 1,38,39
 336 672 336 672 480 672 c 1,30,31
EndSplineSet
EndChar

StartChar: k
Encoding: 107 107 78
Width: 576
VWidth: 960
Flags: W
LayerCount: 2
Fore
SplineSet
288 672 m 1,0,1
 288 528 l 0,2,3
 288 384 288 384 288 288 c 1,4,5
 336 288 l 0,6,7
 384 288 l 1,8,9
 384 320 384 320 384 384 c 1,10,11
 408 384 408 384 480 384 c 1,12,13
 480 432 l 256,14,15
 480 480 l 1,16,17
 512 480 512 480 576 480 c 1,18,19
 576 432 l 256,20,21
 576 384 l 257,22,23
 528 384 l 256,24,25
 480 384 l 1,26,27
 480 352 480 352 480 288 c 1,28,29
 456 288 456 288 384 288 c 1,30,31
 384 264 384 264 384 192 c 1,32,33
 408 192 408 192 480 192 c 1,34,35
 480 144 l 0,36,37
 480 96 l 1,38,39
 512 96 512 96 576 96 c 1,40,41
 576 48 l 256,42,43
 576 0 l 1,44,45
 544 0 544 0 480 0 c 1,46,47
 480 24 480 24 480 96 c 1,48,49
 456 96 456 96 384 96 c 1,50,51
 384 120 384 120 384 192 c 1,52,53
 360 192 360 192 288 192 c 1,54,55
 288 144 288 144 288 0 c 1,56,57
 240 0 240 0 96 0 c 1,58,59
 96 240 l 256,60,61
 96 480 96 480 96 672 c 1,62,63
 160 672 160 672 288 672 c 1,0,1
EndSplineSet
EndChar

StartChar: l
Encoding: 108 108 79
Width: 576
VWidth: 960
Flags: W
LayerCount: 2
Fore
SplineSet
384 672 m 1,0,1
 384 456 l 0,2,3
 384 240 384 240 384 96 c 1,4,5
 416 96 416 96 480 96 c 1,6,7
 480 48 l 256,8,9
 480 0 l 1,10,11
 416 0 416 0 288 0 c 1,12,13
 288 24 288 24 288 96 c 1,14,15
 264 96 264 96 192 96 c 1,16,17
 192 240 192 240 192 672 c 1,18,19
 240 672 240 672 384 672 c 1,0,1
EndSplineSet
EndChar

StartChar: m
Encoding: 109 109 80
Width: 576
VWidth: 960
Flags: W
LayerCount: 2
Fore
SplineSet
0 0 m 1,0,1
 0 120 0 120 0 480 c 1,2,3
 120 480 120 480 480 480 c 1,4,5
 480 432 l 256,6,7
 480 384 l 1,8,9
 512 384 512 384 576 384 c 1,10,11
 576 288 576 288 576 0 c 1,12,13
 528 0 l 256,14,15
 480 0 l 1,16,17
 480 96 480 96 480 240 c 256,18,19
 480 384 l 1,20,21
 448 384 448 384 384 384 c 1,22,23
 384 336 384 336 384 192 c 1,24,25
 360 192 360 192 288 192 c 1,26,27
 288 240 288 240 288 384 c 1,28,29
 264 384 264 384 192 384 c 1,30,31
 192 288 192 288 192 0 c 1,32,33
 144 0 144 0 0 0 c 1,0,1
EndSplineSet
EndChar

StartChar: n
Encoding: 110 110 81
Width: 576
VWidth: 960
Flags: W
LayerCount: 2
Fore
SplineSet
96 0 m 1,0,1
 96 120 96 120 96 480 c 1,2,3
 192 480 192 480 480 480 c 1,4,5
 480 432 l 256,6,7
 480 384 l 1,8,9
 512 384 512 384 576 384 c 1,10,11
 576 288 576 288 576 144 c 0,12,13
 576 0 l 257,14,15
 528 0 l 256,16,17
 480 0 l 1,18,19
 480 96 480 96 480 240 c 256,20,21
 480 384 l 1,22,23
 416 384 416 384 288 384 c 1,24,25
 288 288 288 288 288 0 c 1,26,27
 240 0 240 0 96 0 c 1,0,1
EndSplineSet
EndChar

StartChar: o
Encoding: 111 111 82
Width: 576
VWidth: 960
Flags: W
LayerCount: 2
Fore
SplineSet
192 384 m 1,0,1
 192 432 l 256,2,3
 192 480 l 1,4,5
 256 480 256 480 384 480 c 1,6,7
 384 456 384 456 384 384 c 1,8,9
 408 384 408 384 480 384 c 1,10,11
 480 312 480 312 480 96 c 1,12,13
 456 96 456 96 384 96 c 1,14,15
 384 192 l 0,16,17
 384 288 384 288 384 384 c 1,18,19
 360 384 l 256,20,21
 336 384 336 384 288 384 c 1,22,23
 288 288 288 288 288 96 c 1,24,25
 312 96 312 96 384 96 c 1,26,27
 384 48 l 256,28,29
 384 0 l 257,30,31
 312 0 l 256,32,33
 240 0 240 0 192 0 c 1,34,35
 192 48 l 256,36,37
 192 96 l 1,38,39
 160 96 160 96 96 96 c 1,40,41
 96 168 96 168 96 384 c 1,42,43
 120 384 120 384 192 384 c 1,0,1
EndSplineSet
EndChar

StartChar: p
Encoding: 112 112 83
Width: 576
VWidth: 960
Flags: W
LayerCount: 2
Fore
SplineSet
96 -192 m 1,0,1
 96 -24 96 -24 96 480 c 1,2,3
 168 480 168 480 384 480 c 1,4,5
 384 456 384 456 384 384 c 1,6,7
 360 384 360 384 288 384 c 1,8,9
 288 312 288 312 288 96 c 1,10,11
 312 96 312 96 384 96 c 1,12,13
 384 168 384 168 384 384 c 1,14,15
 408 384 408 384 480 384 c 1,16,17
 480 312 480 312 480 96 c 1,18,19
 456 96 456 96 384 96 c 1,20,21
 384 72 384 72 384 0 c 1,22,23
 360 0 360 0 288 0 c 1,24,25
 288 -48 288 -48 288 -192 c 1,26,27
 240 -192 240 -192 96 -192 c 1,0,1
EndSplineSet
EndChar

StartChar: q
Encoding: 113 113 84
Width: 576
VWidth: 960
Flags: W
LayerCount: 2
Fore
SplineSet
480 480 m 1,0,1
 480 312 480 312 480 -192 c 1,2,3
 432 -192 432 -192 288 -192 c 1,4,5
 288 -144 288 -144 288 0 c 1,6,7
 264 0 264 0 192 0 c 1,8,9
 192 48 l 256,10,11
 192 96 l 1,12,13
 160 96 160 96 96 96 c 1,14,15
 96 168 96 168 96 384 c 1,16,17
 120 384 120 384 192 384 c 1,18,19
 192 312 192 312 192 96 c 1,20,21
 216 96 216 96 288 96 c 1,22,23
 288 168 288 168 288 384 c 1,24,25
 264 384 264 384 192 384 c 1,26,27
 192 408 192 408 192 480 c 1,28,29
 240 480 240 480 384 480 c 0,30,31
 408 480 408 480 480 480 c 1,0,1
EndSplineSet
EndChar

StartChar: r
Encoding: 114 114 85
Width: 576
VWidth: 960
Flags: W
LayerCount: 2
Fore
SplineSet
96 0 m 1,0,1
 96 96 96 96 96 288 c 256,2,3
 96 480 l 1,4,5
 160 480 160 480 288 480 c 1,6,7
 288 456 288 456 288 384 c 1,8,9
 336 384 l 0,10,11
 384 384 l 1,12,13
 384 416 384 416 384 480 c 1,14,15
 432 480 432 480 576 480 c 1,16,17
 576 456 576 456 576 384 c 1,18,19
 528 384 528 384 384 384 c 1,20,21
 384 360 384 360 384 288 c 1,22,23
 360 288 360 288 288 288 c 1,24,25
 288 216 288 216 288 0 c 1,26,27
 240 0 240 0 96 0 c 1,0,1
EndSplineSet
EndChar

StartChar: s
Encoding: 115 115 86
Width: 576
VWidth: 960
Flags: W
LayerCount: 2
Fore
SplineSet
480 384 m 1,0,1
 432 384 432 384 288 384 c 1,2,3
 288 336 l 0,4,5
 288 288 l 1,6,7
 320 288 320 288 384 288 c 1,8,9
 384 264 384 264 384 192 c 1,10,11
 432 192 l 256,12,13
 480 192 l 257,14,15
 480 144 l 0,16,17
 480 96 l 257,18,19
 432 96 l 256,20,21
 384 96 l 257,22,23
 384 48 l 256,24,25
 384 0 l 1,26,27
 288 0 288 0 96 0 c 1,28,29
 96 48 l 256,30,31
 96 96 l 1,32,33
 160 96 160 96 288 96 c 1,34,35
 288 120 288 120 288 192 c 1,36,37
 264 192 264 192 192 192 c 1,38,39
 192 216 192 216 192 288 c 1,40,41
 144 288 l 0,42,43
 96 288 l 257,44,45
 96 336 l 0,46,47
 96 384 l 1,48,49
 128 384 128 384 192 384 c 1,50,51
 192 408 192 408 192 480 c 1,52,53
 264 480 264 480 480 480 c 1,54,55
 480 456 480 456 480 384 c 1,0,1
EndSplineSet
EndChar

StartChar: t
Encoding: 116 116 87
Width: 576
VWidth: 960
Flags: W
LayerCount: 2
Fore
SplineSet
384 672 m 1,0,1
 384 600 l 256,2,3
 384 528 384 528 384 480 c 1,4,5
 408 480 l 0,6,7
 432 480 432 480 480 480 c 1,8,9
 480 432 l 256,10,11
 480 384 l 1,12,13
 448 384 448 384 384 384 c 1,14,15
 384 312 384 312 384 96 c 1,16,17
 408 96 l 0,18,19
 432 96 432 96 480 96 c 1,20,21
 480 48 l 256,22,23
 480 0 l 257,24,25
 408 0 l 256,26,27
 336 0 336 0 288 0 c 1,28,29
 288 48 l 256,30,31
 288 96 l 1,32,33
 256 96 256 96 192 96 c 1,34,35
 192 312 l 0,36,37
 192 528 192 528 192 672 c 1,38,39
 256 672 256 672 384 672 c 1,0,1
EndSplineSet
EndChar

StartChar: u
Encoding: 117 117 88
Width: 576
VWidth: 960
Flags: W
LayerCount: 2
Fore
SplineSet
192 480 m 257,0,1
 192 336 l 0,2,3
 192 192 192 192 192 96 c 1,4,5
 216 96 l 0,6,7
 240 96 240 96 288 96 c 1,8,9
 288 224 288 224 288 480 c 1,10,11
 336 480 336 480 480 480 c 1,12,13
 480 360 480 360 480 0 c 1,14,15
 408 0 408 0 192 0 c 1,16,17
 192 48 l 256,18,19
 192 96 l 1,20,21
 160 96 160 96 96 96 c 1,22,23
 96 192 96 192 96 336 c 0,24,25
 96 480 l 257,26,27
 144 480 l 0,28,29
 192 480 l 257,0,1
EndSplineSet
EndChar

StartChar: v
Encoding: 118 118 89
Width: 576
VWidth: 960
Flags: W
LayerCount: 2
Fore
SplineSet
288 480 m 1,0,1
 288 408 288 408 288 192 c 1,2,3
 312 192 312 192 384 192 c 1,4,5
 384 288 l 0,6,7
 384 384 384 384 384 480 c 1,8,9
 416 480 416 480 480 480 c 1,10,11
 480 408 480 408 480 192 c 1,12,13
 432 192 l 256,14,15
 384 192 l 1,16,17
 384 128 384 128 384 0 c 1,18,19
 312 0 l 256,20,21
 240 0 240 0 192 0 c 1,22,23
 192 72 l 256,24,25
 192 144 192 144 192 192 c 1,26,27
 160 192 160 192 96 192 c 1,28,29
 96 288 l 0,30,31
 96 384 96 384 96 480 c 1,32,33
 160 480 160 480 288 480 c 1,0,1
EndSplineSet
EndChar

StartChar: w
Encoding: 119 119 90
Width: 576
VWidth: 960
Flags: W
LayerCount: 2
Fore
SplineSet
192 480 m 1,0,1
 192 384 192 384 192 96 c 1,2,3
 216 96 216 96 288 96 c 1,4,5
 288 168 l 256,6,7
 288 240 288 240 288 288 c 1,8,9
 320 288 320 288 384 288 c 1,10,11
 384 216 l 0,12,13
 384 144 384 144 384 96 c 1,14,15
 432 96 l 256,16,17
 480 96 l 257,18,19
 480 240 l 256,20,21
 480 384 480 384 480 480 c 1,22,23
 512 480 512 480 576 480 c 1,24,25
 576 288 l 256,26,27
 576 96 576 96 576 0 c 1,28,29
 544 0 544 0 480 0 c 0,30,31
 384 0 384 0 96 0 c 1,32,33
 96 24 96 24 96 96 c 1,34,35
 72 96 72 96 0 96 c 1,36,37
 0 192 0 192 0 480 c 1,38,39
 48 480 48 480 192 480 c 1,0,1
EndSplineSet
EndChar

StartChar: x
Encoding: 120 120 91
Width: 576
VWidth: 960
Flags: W
LayerCount: 2
Fore
SplineSet
288 480 m 1,0,1
 288 408 l 256,2,3
 288 336 288 336 288 288 c 1,4,5
 320 288 320 288 384 288 c 1,6,7
 384 336 384 336 384 480 c 1,8,9
 408 480 408 480 480 480 c 1,10,11
 480 408 l 256,12,13
 480 336 480 336 480 288 c 1,14,15
 432 288 l 256,16,17
 384 288 l 1,18,19
 384 256 384 256 384 192 c 1,20,21
 432 192 l 256,22,23
 480 192 l 257,24,25
 480 120 l 256,26,27
 480 48 480 48 480 0 c 1,28,29
 448 0 448 0 384 0 c 1,30,31
 384 48 384 48 384 192 c 1,32,33
 360 192 360 192 288 192 c 1,34,35
 288 120 l 256,36,37
 288 48 288 48 288 0 c 1,38,39
 192 0 l 0,40,41
 96 0 l 1,42,43
 96 64 96 64 96 192 c 1,44,45
 120 192 120 192 192 192 c 1,46,47
 192 216 192 216 192 288 c 1,48,49
 168 288 168 288 96 288 c 1,50,51
 96 336 96 336 96 480 c 1,52,53
 144 480 144 480 288 480 c 1,0,1
EndSplineSet
EndChar

StartChar: y
Encoding: 121 121 92
Width: 576
VWidth: 960
Flags: W
LayerCount: 2
Fore
SplineSet
192 480 m 1,0,1
 192 384 192 384 192 96 c 1,2,3
 216 96 l 0,4,5
 240 96 240 96 288 96 c 1,6,7
 288 240 l 256,8,9
 288 384 288 384 288 480 c 1,10,11
 352 480 352 480 480 480 c 1,12,13
 480 336 480 336 480 -96 c 1,14,15
 432 -96 l 256,16,17
 384 -96 l 1,18,19
 384 -128 384 -128 384 -192 c 1,20,21
 336 -192 336 -192 192 -192 c 1,22,23
 192 -168 192 -168 192 -96 c 1,24,25
 216 -96 216 -96 288 -96 c 1,26,27
 288 -48 l 256,28,29
 288 0 l 1,30,31
 256 0 256 0 192 0 c 1,32,33
 192 48 l 256,34,35
 192 96 l 1,36,37
 160 96 160 96 96 96 c 1,38,39
 96 192 96 192 96 480 c 1,40,41
 120 480 120 480 192 480 c 1,0,1
EndSplineSet
EndChar

StartChar: z
Encoding: 122 122 93
Width: 576
VWidth: 960
Flags: W
LayerCount: 2
Fore
SplineSet
480 480 m 1,0,1
 480 432 480 432 480 288 c 1,2,3
 432 288 l 256,4,5
 384 288 l 1,6,7
 384 256 384 256 384 192 c 1,8,9
 360 192 l 256,10,11
 336 192 336 192 288 192 c 1,12,13
 288 160 288 160 288 96 c 1,14,15
 336 96 l 0,16,17
 384 96 384 96 480 96 c 1,18,19
 480 48 l 256,20,21
 480 0 l 1,22,23
 352 0 352 0 96 0 c 1,24,25
 96 48 96 48 96 192 c 1,26,27
 120 192 120 192 192 192 c 1,28,29
 192 216 192 216 192 288 c 1,30,31
 216 288 216 288 288 288 c 1,32,33
 288 312 288 312 288 384 c 1,34,35
 240 384 240 384 96 384 c 1,36,37
 96 408 96 408 96 480 c 1,38,39
 192 480 192 480 480 480 c 1,0,1
EndSplineSet
EndChar

StartChar: braceleft
Encoding: 123 123 94
Width: 576
VWidth: 960
Flags: W
LayerCount: 2
Fore
SplineSet
384 576 m 1,0,1
 360 576 360 576 288 576 c 1,2,3
 288 480 l 256,4,5
 288 384 288 384 288 288 c 1,6,7
 256 288 256 288 192 288 c 1,8,9
 192 264 192 264 192 192 c 1,10,11
 216 192 216 192 288 192 c 1,12,13
 288 120 288 120 288 -96 c 1,14,15
 312 -96 312 -96 384 -96 c 1,16,17
 384 -144 l 0,18,19
 384 -192 l 1,20,21
 352 -192 352 -192 288 -192 c 1,22,23
 288 -144 l 0,24,25
 288 -96 l 1,26,27
 256 -96 256 -96 192 -96 c 1,28,29
 192 -24 192 -24 192 192 c 1,30,31
 168 192 168 192 96 192 c 1,32,33
 96 216 96 216 96 288 c 1,34,35
 120 288 120 288 192 288 c 1,36,37
 192 360 192 360 192 576 c 1,38,39
 216 576 216 576 288 576 c 1,40,41
 288 600 288 600 288 672 c 1,42,43
 312 672 312 672 384 672 c 1,44,45
 384 648 384 648 384 576 c 1,0,1
EndSplineSet
EndChar

StartChar: bar
Encoding: 124 124 95
Width: 576
VWidth: 960
Flags: W
LayerCount: 2
Fore
SplineSet
384 768 m 1,0,1
 384 624 l 0,2,3
 384 480 384 480 384 384 c 1,4,5
 352 384 352 384 288 384 c 1,6,7
 288 480 288 480 288 768 c 1,8,9
 312 768 312 768 384 768 c 1,0,1
384 288 m 1,10,11
 384 192 384 192 384 -96 c 1,12,13
 336 -96 l 0,14,15
 288 -96 l 1,16,17
 288 32 288 32 288 288 c 1,18,19
 312 288 312 288 384 288 c 1,10,11
EndSplineSet
EndChar

StartChar: braceright
Encoding: 125 125 96
Width: 576
VWidth: 960
Flags: W
LayerCount: 2
Fore
SplineSet
288 672 m 1,0,1
 288 648 288 648 288 576 c 1,2,3
 312 576 312 576 384 576 c 1,4,5
 384 504 384 504 384 288 c 1,6,7
 408 288 408 288 480 288 c 1,8,9
 480 264 480 264 480 192 c 1,10,11
 456 192 456 192 384 192 c 1,12,13
 384 120 384 120 384 -96 c 1,14,15
 336 -96 l 0,16,17
 288 -96 l 257,18,19
 288 -144 l 0,20,21
 288 -192 l 257,22,23
 240 -192 l 256,24,25
 192 -192 l 1,26,27
 192 -160 192 -160 192 -96 c 1,28,29
 216 -96 216 -96 288 -96 c 1,30,31
 288 0 l 256,32,33
 288 96 288 96 288 192 c 1,34,35
 320 192 320 192 384 192 c 1,36,37
 384 216 384 216 384 288 c 1,38,39
 360 288 360 288 288 288 c 1,40,41
 288 360 288 360 288 576 c 1,42,43
 264 576 264 576 192 576 c 1,44,45
 192 600 192 600 192 672 c 1,46,47
 216 672 216 672 288 672 c 1,0,1
EndSplineSet
EndChar

StartChar: asciitilde
Encoding: 126 126 97
Width: 576
VWidth: 960
Flags: W
LayerCount: 2
Fore
SplineSet
192 384 m 1,0,1
 192 408 192 408 192 480 c 1,2,3
 216 480 216 480 288 480 c 1,4,5
 288 456 288 456 288 384 c 1,6,7
 336 384 336 384 480 384 c 1,8,9
 480 408 480 408 480 480 c 1,10,11
 504 480 504 480 576 480 c 1,12,13
 576 432 l 256,14,15
 576 384 l 1,16,17
 544 384 544 384 480 384 c 1,18,19
 480 360 480 360 480 288 c 1,20,21
 432 288 432 288 288 288 c 1,22,23
 288 336 l 0,24,25
 288 384 l 1,26,27
 256 384 256 384 192 384 c 1,28,29
 192 384 l 1,30,31
 192 360 192 360 192 288 c 1,32,33
 144 288 l 0,34,35
 96 288 l 1,36,37
 96 320 96 320 96 384 c 1,38,39
 120 384 120 384 192 384 c 1,0,1
EndSplineSet
EndChar

StartChar: exclamdown
Encoding: 161 161 98
Width: 576
VWidth: 960
Flags: W
LayerCount: 2
Fore
SplineSet
432 576 m 1,0,1
 432 552 432 552 432 480 c 1,2,3
 384 480 384 480 240 480 c 1,4,5
 240 504 240 504 240 576 c 1,6,7
 288 576 288 576 432 576 c 1,0,1
432 384 m 1,8,9
 432 264 432 264 432 -96 c 1,10,11
 432 -96 l 1,12,13
 384 -96 384 -96 240 -96 c 1,14,15
 240 24 240 24 240 384 c 1,16,17
 288 384 288 384 432 384 c 1,8,9
EndSplineSet
EndChar

StartChar: sterling
Encoding: 163 163 99
Width: 576
VWidth: 960
Flags: W
LayerCount: 2
Fore
SplineSet
480 480 m 1,0,1
 408 480 l 256,2,3
 336 480 336 480 288 480 c 1,4,5
 288 448 288 448 288 384 c 1,6,7
 312 384 312 384 384 384 c 1,8,9
 384 336 l 0,10,11
 384 288 l 1,12,13
 352 288 352 288 288 288 c 1,14,15
 288 240 288 240 288 96 c 1,16,17
 384 96 l 0,18,19
 480 96 480 96 576 96 c 1,20,21
 576 48 l 256,22,23
 576 0 l 257,24,25
 384 0 l 0,26,27
 192 0 192 0 96 0 c 1,28,29
 96 32 96 32 96 96 c 1,30,31
 120 96 120 96 192 96 c 1,32,33
 192 144 192 144 192 288 c 1,34,35
 168 288 168 288 96 288 c 1,36,37
 96 312 96 312 96 384 c 1,38,39
 120 384 120 384 192 384 c 1,40,41
 192 408 192 408 192 480 c 1,42,43
 216 480 216 480 288 480 c 1,44,45
 288 528 l 256,46,47
 288 576 l 1,48,49
 352 576 352 576 480 576 c 1,50,51
 480 552 480 552 480 480 c 1,0,1
EndSplineSet
EndChar

StartChar: currency
Encoding: 164 164 100
Width: 576
VWidth: 960
Flags: W
LayerCount: 2
Fore
SplineSet
96 480 m 1,0,1
 120 480 120 480 192 480 c 1,2,3
 192 456 192 456 192 384 c 1,4,5
 264 384 264 384 480 384 c 1,6,7
 480 408 480 408 480 480 c 1,8,9
 504 480 504 480 576 480 c 1,10,11
 576 456 576 456 576 384 c 1,12,13
 552 384 552 384 480 384 c 1,14,15
 480 288 480 288 480 0 c 1,16,17
 504 0 504 0 576 0 c 1,18,19
 576 -24 576 -24 576 -96 c 1,20,21
 552 -96 552 -96 480 -96 c 1,22,23
 480 -72 480 -72 480 0 c 1,24,25
 408 0 408 0 192 0 c 1,26,27
 192 -24 192 -24 192 -96 c 1,28,29
 168 -96 168 -96 96 -96 c 1,30,31
 96 -72 96 -72 96 0 c 1,32,33
 120 0 120 0 192 0 c 1,34,35
 192 96 192 96 192 240 c 256,36,37
 192 384 l 1,38,39
 160 384 160 384 96 384 c 1,40,41
 96 408 96 408 96 480 c 1,0,1
288 288 m 1,42,43
 288 240 288 240 288 96 c 1,44,45
 336 96 l 0,46,47
 384 96 l 1,48,49
 384 160 384 160 384 288 c 1,50,51
 360 288 360 288 288 288 c 1,42,43
EndSplineSet
EndChar

StartChar: section
Encoding: 167 167 101
Width: 576
VWidth: 960
Flags: W
LayerCount: 2
Fore
SplineSet
480 576 m 1,0,1
 384 576 l 0,2,3
 288 576 288 576 192 576 c 1,4,5
 192 544 192 544 192 480 c 1,6,7
 264 480 l 0,8,9
 336 480 336 480 384 480 c 1,10,11
 384 448 384 448 384 384 c 1,12,13
 336 384 336 384 192 384 c 1,14,15
 192 312 l 256,16,17
 192 240 192 240 192 192 c 1,18,19
 256 192 256 192 384 192 c 1,20,21
 384 240 384 240 384 384 c 1,22,23
 408 384 408 384 480 384 c 1,24,25
 480 336 480 336 480 192 c 1,26,27
 456 192 456 192 384 192 c 1,28,29
 384 168 384 168 384 96 c 1,30,31
 408 96 408 96 480 96 c 1,32,33
 480 72 480 72 480 0 c 1,34,35
 456 0 456 0 384 0 c 1,36,37
 384 -24 384 -24 384 -96 c 1,38,39
 312 -96 312 -96 96 -96 c 1,40,41
 96 -72 96 -72 96 0 c 1,42,43
 168 0 168 0 384 0 c 1,44,45
 384 24 384 24 384 96 c 1,46,47
 336 96 336 96 192 96 c 1,48,49
 192 120 192 120 192 192 c 1,50,51
 168 192 168 192 96 192 c 1,52,53
 96 240 96 240 96 384 c 1,54,55
 120 384 120 384 192 384 c 1,56,57
 192 408 192 408 192 480 c 1,58,59
 168 480 168 480 96 480 c 1,60,61
 96 504 96 504 96 576 c 1,62,63
 120 576 120 576 192 576 c 1,64,65
 192 600 192 600 192 672 c 1,66,67
 264 672 264 672 480 672 c 1,68,69
 480 648 480 648 480 576 c 1,0,1
EndSplineSet
EndChar

StartChar: dieresis
Encoding: 168 168 102
Width: 576
VWidth: 960
Flags: W
LayerCount: 2
Fore
SplineSet
288 672 m 1,0,1
 288 624 l 0,2,3
 288 576 l 257,4,5
 240 576 l 256,6,7
 192 576 l 1,8,9
 192 608 192 608 192 672 c 1,10,11
 216 672 216 672 288 672 c 1,0,1
480 672 m 1,12,13
 480 624 l 0,14,15
 480 576 l 257,16,17
 432 576 l 256,18,19
 384 576 l 1,20,21
 384 608 384 608 384 672 c 1,22,23
 408 672 408 672 480 672 c 1,12,13
EndSplineSet
EndChar

StartChar: copyright
Encoding: 169 169 103
Width: 576
VWidth: 960
Flags: W
LayerCount: 2
Fore
SplineSet
480 672 m 1,0,1
 480 648 480 648 480 576 c 1,2,3
 384 576 384 576 96 576 c 1,4,5
 96 528 96 528 96 384 c 1,6,7
 120 384 120 384 192 384 c 1,8,9
 192 408 192 408 192 480 c 1,10,11
 240 480 240 480 384 480 c 1,12,13
 384 432 l 256,14,15
 384 384 l 257,16,17
 312 384 l 256,18,19
 240 384 240 384 192 384 c 1,20,21
 192 320 192 320 192 192 c 1,22,23
 240 192 240 192 384 192 c 1,24,25
 384 144 l 0,26,27
 384 96 l 257,28,29
 312 96 l 256,30,31
 240 96 240 96 192 96 c 1,32,33
 192 128 192 128 192 192 c 1,34,35
 168 192 168 192 96 192 c 1,36,37
 96 144 96 144 96 0 c 1,38,39
 192 0 192 0 480 0 c 1,40,41
 480 144 480 144 480 576 c 1,42,43
 504 576 504 576 576 576 c 1,44,45
 576 360 l 256,46,47
 576 144 576 144 576 0 c 1,48,49
 528 0 l 256,50,51
 480 0 l 1,52,53
 480 -32 480 -32 480 -96 c 1,54,55
 384 -96 384 -96 96 -96 c 1,56,57
 96 -48 l 256,58,59
 96 0 l 1,60,61
 64 0 64 0 0 0 c 1,62,63
 0 144 0 144 0 576 c 1,64,65
 24 576 24 576 96 576 c 1,66,67
 96 600 96 600 96 672 c 1,68,69
 192 672 192 672 480 672 c 1,0,1
EndSplineSet
EndChar

StartChar: guillemotleft
Encoding: 171 171 104
Width: 576
VWidth: 960
Flags: W
LayerCount: 2
Fore
SplineSet
288 576 m 1,0,1
 288 528 l 256,2,3
 288 480 l 1,4,5
 256 480 256 480 192 480 c 1,6,7
 192 456 192 456 192 384 c 1,8,9
 144 384 l 0,10,11
 96 384 l 1,12,13
 96 352 96 352 96 288 c 1,14,15
 144 288 l 0,16,17
 192 288 l 257,18,19
 192 240 l 256,20,21
 192 192 l 257,22,23
 240 192 l 256,24,25
 288 192 l 1,26,27
 288 160 288 160 288 96 c 1,28,29
 240 96 l 256,30,31
 192 96 l 1,32,33
 192 128 192 128 192 192 c 1,34,35
 168 192 168 192 96 192 c 1,36,37
 96 216 96 216 96 288 c 1,38,39
 72 288 72 288 0 288 c 1,40,41
 0 312 0 312 0 384 c 1,42,43
 24 384 24 384 96 384 c 1,44,45
 96 408 96 408 96 480 c 1,46,47
 120 480 120 480 192 480 c 1,48,49
 192 504 192 504 192 576 c 1,50,51
 216 576 216 576 288 576 c 1,0,1
576 576 m 1,52,53
 576 528 l 256,54,55
 576 480 l 257,56,57
 528 480 l 256,58,59
 480 480 l 1,60,61
 480 448 480 448 480 384 c 1,62,63
 432 384 l 256,64,65
 384 384 l 1,66,67
 384 352 384 352 384 288 c 1,68,69
 432 288 l 256,70,71
 480 288 l 257,72,73
 480 240 l 256,74,75
 480 192 l 257,76,77
 528 192 l 256,78,79
 576 192 l 257,80,81
 576 144 l 0,82,83
 576 96 l 257,84,85
 528 96 l 256,86,87
 480 96 l 1,88,89
 480 128 480 128 480 192 c 1,90,91
 456 192 456 192 384 192 c 1,92,93
 384 240 l 256,94,95
 384 288 l 1,96,97
 352 288 352 288 288 288 c 1,98,99
 288 312 288 312 288 384 c 1,100,101
 312 384 312 384 384 384 c 1,102,103
 384 408 384 408 384 480 c 1,104,105
 408 480 408 480 480 480 c 1,106,107
 480 504 480 504 480 576 c 1,108,109
 504 576 504 576 576 576 c 1,52,53
EndSplineSet
EndChar

StartChar: logicalnot
Encoding: 172 172 105
Width: 576
VWidth: 960
Flags: W
LayerCount: 2
Fore
SplineSet
96 480 m 1,0,1
 192 480 192 480 480 480 c 1,2,3
 480 432 480 432 480 360 c 256,4,5
 480 288 l 257,6,7
 432 288 l 256,8,9
 384 288 l 257,10,11
 384 336 l 0,12,13
 384 384 l 1,14,15
 288 384 288 384 96 384 c 1,16,17
 96 408 96 408 96 480 c 1,0,1
EndSplineSet
EndChar

StartChar: degree
Encoding: 176 176 106
Width: 576
VWidth: 960
Flags: W
LayerCount: 2
Fore
SplineSet
384 672 m 257,0,1
 384 624 l 0,2,3
 384 576 l 257,4,5
 432 576 l 256,6,7
 480 576 l 257,8,9
 480 528 l 256,10,11
 480 480 l 257,12,13
 432 480 l 256,14,15
 384 480 l 1,16,17
 384 512 384 512 384 576 c 1,18,19
 360 576 360 576 288 576 c 1,20,21
 288 552 288 552 288 480 c 1,22,23
 336 480 l 0,24,25
 384 480 l 1,26,27
 384 448 384 448 384 384 c 1,28,29
 360 384 360 384 288 384 c 1,30,31
 288 408 288 408 288 480 c 1,32,33
 264 480 264 480 192 480 c 1,34,35
 192 504 192 504 192 576 c 1,36,37
 216 576 216 576 288 576 c 1,38,39
 288 624 l 0,40,41
 288 672 l 257,42,43
 336 672 l 0,44,45
 384 672 l 257,0,1
EndSplineSet
EndChar

StartChar: acute
Encoding: 180 180 107
Width: 576
VWidth: 960
Flags: W
LayerCount: 2
Fore
SplineSet
480 672 m 1,0,1
 480 624 l 0,2,3
 480 576 l 1,4,5
 448 576 448 576 384 576 c 1,6,7
 384 552 384 552 384 480 c 1,8,9
 336 480 l 0,10,11
 288 480 l 1,12,13
 288 512 288 512 288 576 c 1,14,15
 312 576 312 576 384 576 c 1,16,17
 384 600 384 600 384 672 c 1,18,19
 408 672 408 672 480 672 c 1,0,1
EndSplineSet
EndChar

StartChar: guillemotright
Encoding: 187 187 108
Width: 576
VWidth: 960
Flags: W
LayerCount: 2
Fore
SplineSet
0 576 m 1,0,1
 24 576 24 576 96 576 c 1,2,3
 96 552 96 552 96 480 c 1,4,5
 120 480 120 480 192 480 c 1,6,7
 192 456 192 456 192 384 c 1,8,9
 216 384 216 384 288 384 c 1,10,11
 288 336 l 0,12,13
 288 288 l 257,14,15
 240 288 l 256,16,17
 192 288 l 257,18,19
 192 240 l 256,20,21
 192 192 l 257,22,23
 144 192 l 0,24,25
 96 192 l 257,26,27
 96 144 l 0,28,29
 96 96 l 257,30,31
 48 96 l 256,32,33
 0 96 l 1,34,35
 0 128 0 128 0 192 c 1,36,37
 48 192 l 256,38,39
 96 192 l 1,40,41
 96 224 96 224 96 288 c 1,42,43
 144 288 l 0,44,45
 192 288 l 1,46,47
 192 320 192 320 192 384 c 1,48,49
 144 384 l 0,50,51
 96 384 l 1,52,53
 96 416 96 416 96 480 c 1,54,55
 48 480 l 256,56,57
 0 480 l 1,58,59
 0 512 0 512 0 576 c 1,0,1
384 576 m 1,60,61
 384 528 l 256,62,63
 384 480 l 257,64,65
 432 480 l 256,66,67
 480 480 l 257,68,69
 480 432 l 256,70,71
 480 384 l 257,72,73
 528 384 l 256,74,75
 576 384 l 257,76,77
 576 336 l 0,78,79
 576 288 l 257,80,81
 528 288 l 256,82,83
 480 288 l 1,84,85
 480 256 480 256 480 192 c 1,86,87
 432 192 l 256,88,89
 384 192 l 257,90,91
 384 144 l 0,92,93
 384 96 l 257,94,95
 336 96 l 0,96,97
 288 96 l 1,98,99
 288 128 288 128 288 192 c 1,100,101
 336 192 l 0,102,103
 384 192 l 257,104,105
 384 240 l 256,106,107
 384 288 l 1,108,109
 416 288 416 288 480 288 c 1,110,111
 480 336 l 0,112,113
 480 384 l 1,114,115
 448 384 448 384 384 384 c 1,116,117
 384 408 384 408 384 480 c 1,118,119
 360 480 360 480 288 480 c 1,120,121
 288 504 288 504 288 576 c 1,122,123
 312 576 312 576 384 576 c 1,60,61
EndSplineSet
EndChar

StartChar: Agrave
Encoding: 192 192 110
Width: 576
VWidth: 960
Flags: W
LayerCount: 2
Fore
SplineSet
96 0 m 1,0,1
 96 120 96 120 96 480 c 1,2,3
 144 480 144 480 288 480 c 1,4,5
 288 432 288 432 288 288 c 1,6,7
 312 288 312 288 384 288 c 1,8,9
 384 336 384 336 384 408 c 256,10,11
 384 480 l 1,12,13
 320 480 320 480 192 480 c 1,14,15
 192 504 192 504 192 576 c 1,16,17
 240 576 240 576 384 576 c 1,18,19
 384 552 384 552 384 480 c 1,20,21
 408 480 408 480 480 480 c 1,22,23
 480 360 480 360 480 0 c 1,24,25
 456 0 456 0 384 0 c 1,26,27
 384 48 384 48 384 120 c 256,28,29
 384 192 l 1,30,31
 352 192 352 192 288 192 c 1,32,33
 288 144 288 144 288 72 c 256,34,35
 288 0 l 1,36,37
 224 0 224 0 96 0 c 1,0,1
288 768 m 257,38,39
 288 720 l 256,40,41
 288 672 l 1,42,43
 320 672 320 672 384 672 c 1,44,45
 384 624 l 0,46,47
 384 576 l 257,48,49
 336 576 l 0,50,51
 288 576 l 1,52,53
 288 608 288 608 288 672 c 1,54,55
 264 672 264 672 192 672 c 1,56,57
 192 720 l 256,58,59
 192 768 l 257,60,61
 240 768 l 256,62,63
 288 768 l 257,38,39
EndSplineSet
EndChar

StartChar: Aacute
Encoding: 193 193 111
Width: 576
VWidth: 960
Flags: W
LayerCount: 2
Fore
SplineSet
96 0 m 1,0,1
 96 120 96 120 96 480 c 1,2,3
 144 480 144 480 288 480 c 1,4,5
 288 432 288 432 288 288 c 1,6,7
 312 288 312 288 384 288 c 1,8,9
 384 336 384 336 384 408 c 256,10,11
 384 480 l 1,12,13
 320 480 320 480 192 480 c 1,14,15
 192 504 192 504 192 576 c 1,16,17
 240 576 240 576 384 576 c 1,18,19
 384 552 384 552 384 480 c 1,20,21
 408 480 408 480 480 480 c 1,22,23
 480 360 480 360 480 0 c 1,24,25
 456 0 456 0 384 0 c 1,26,27
 384 48 384 48 384 120 c 256,28,29
 384 192 l 1,30,31
 352 192 352 192 288 192 c 1,32,33
 288 144 288 144 288 72 c 256,34,35
 288 0 l 1,36,37
 224 0 224 0 96 0 c 1,0,1
192 576 m 257,38,39
 192 624 l 0,40,41
 192 672 l 1,42,43
 224 672 224 672 288 672 c 1,44,45
 288 696 288 696 288 768 c 1,46,47
 312 768 312 768 384 768 c 1,48,49
 384 744 384 744 384 672 c 1,50,51
 360 672 360 672 288 672 c 1,52,53
 288 648 288 648 288 576 c 1,54,55
 240 576 l 256,56,57
 192 576 l 257,38,39
EndSplineSet
EndChar

StartChar: Acircumflex
Encoding: 194 194 112
Width: 576
VWidth: 960
Flags: W
LayerCount: 2
Fore
SplineSet
96 0 m 1,0,1
 96 120 96 120 96 480 c 1,2,3
 144 480 144 480 288 480 c 1,4,5
 288 432 288 432 288 288 c 1,6,7
 312 288 312 288 384 288 c 1,8,9
 384 336 384 336 384 408 c 256,10,11
 384 480 l 1,12,13
 320 480 320 480 192 480 c 1,14,15
 192 504 192 504 192 576 c 1,16,17
 240 576 240 576 384 576 c 1,18,19
 384 552 384 552 384 480 c 1,20,21
 408 480 408 480 480 480 c 1,22,23
 480 360 480 360 480 0 c 1,24,25
 456 0 456 0 384 0 c 1,26,27
 384 48 384 48 384 120 c 256,28,29
 384 192 l 1,30,31
 352 192 352 192 288 192 c 1,32,33
 288 144 288 144 288 72 c 256,34,35
 288 0 l 1,36,37
 224 0 224 0 96 0 c 1,0,1
96 624 m 1,38,39
 96 636 96 636 96 672 c 1,40,41
 120 672 120 672 192 672 c 1,42,43
 192 696 192 696 192 768 c 1,44,45
 240 768 240 768 384 768 c 1,46,47
 384 744 384 744 384 672 c 1,48,49
 408 672 408 672 480 672 c 1,50,51
 480 648 l 0,52,53
 480 624 l 1,54,55
 448 624 448 624 384 624 c 1,56,57
 384 648 l 0,58,59
 384 672 l 1,60,61
 320 672 320 672 192 672 c 1,62,63
 192 648 l 0,64,65
 192 624 l 1,66,67
 160 624 160 624 96 624 c 1,38,39
EndSplineSet
EndChar

StartChar: Atilde
Encoding: 195 195 113
Width: 576
VWidth: 960
Flags: W
LayerCount: 2
Fore
SplineSet
96 0 m 1,0,1
 96 120 96 120 96 480 c 1,2,3
 144 480 144 480 288 480 c 1,4,5
 288 432 288 432 288 288 c 1,6,7
 312 288 312 288 384 288 c 1,8,9
 384 336 384 336 384 408 c 256,10,11
 384 480 l 1,12,13
 320 480 320 480 192 480 c 1,14,15
 192 504 192 504 192 576 c 1,16,17
 240 576 240 576 384 576 c 1,18,19
 384 552 384 552 384 480 c 1,20,21
 408 480 408 480 480 480 c 1,22,23
 480 360 480 360 480 0 c 1,24,25
 456 0 456 0 384 0 c 1,26,27
 384 48 384 48 384 120 c 256,28,29
 384 192 l 1,30,31
 352 192 352 192 288 192 c 1,32,33
 288 144 288 144 288 72 c 256,34,35
 288 0 l 1,36,37
 224 0 224 0 96 0 c 1,0,1
96 576 m 1,38,39
 96 600 96 600 96 672 c 1,40,41
 120 672 120 672 192 672 c 1,42,43
 192 696 192 696 192 768 c 1,44,45
 216 768 216 768 288 768 c 1,46,47
 288 744 288 744 288 672 c 1,48,49
 336 672 336 672 480 672 c 1,50,51
 480 696 480 696 480 768 c 1,52,53
 504 768 504 768 576 768 c 1,54,55
 576 720 l 256,56,57
 576 672 l 1,58,59
 544 672 544 672 480 672 c 1,60,61
 480 624 l 0,62,63
 480 576 l 1,64,65
 416 576 416 576 288 576 c 1,66,67
 288 624 l 0,68,69
 288 672 l 1,70,71
 256 672 256 672 192 672 c 1,72,73
 192 624 l 0,74,75
 192 576 l 1,76,77
 160 576 160 576 96 576 c 1,38,39
EndSplineSet
EndChar

StartChar: Adieresis
Encoding: 196 196 114
Width: 576
VWidth: 960
Flags: W
LayerCount: 2
Fore
SplineSet
96 0 m 1,0,1
 96 120 96 120 96 480 c 1,2,3
 144 480 144 480 288 480 c 1,4,5
 288 432 288 432 288 288 c 1,6,7
 312 288 312 288 384 288 c 1,8,9
 384 336 384 336 384 408 c 256,10,11
 384 480 l 1,12,13
 320 480 320 480 192 480 c 1,14,15
 192 504 192 504 192 576 c 1,16,17
 240 576 240 576 384 576 c 1,18,19
 384 552 384 552 384 480 c 1,20,21
 408 480 408 480 480 480 c 1,22,23
 480 360 480 360 480 0 c 1,24,25
 456 0 456 0 384 0 c 1,26,27
 384 48 384 48 384 120 c 256,28,29
 384 192 l 1,30,31
 352 192 352 192 288 192 c 1,32,33
 288 144 288 144 288 72 c 256,34,35
 288 0 l 1,36,37
 224 0 224 0 96 0 c 1,0,1
192 768 m 1,38,39
 192 720 l 256,40,41
 192 672 l 257,42,43
 144 672 l 0,44,45
 96 672 l 257,46,47
 96 720 l 256,48,49
 96 768 l 1,50,51
 128 768 128 768 192 768 c 1,38,39
384 672 m 1,52,53
 384 696 384 696 384 768 c 1,54,55
 408 768 408 768 480 768 c 1,56,57
 480 744 480 744 480 672 c 1,58,59
 456 672 456 672 384 672 c 1,52,53
EndSplineSet
EndChar

StartChar: Aring
Encoding: 197 197 115
Width: 576
VWidth: 960
Flags: W
LayerCount: 2
Fore
SplineSet
192 480 m 1,0,1
 192 504 192 504 192 576 c 1,2,3
 168 576 168 576 96 576 c 1,4,5
 96 600 96 600 96 672 c 1,6,7
 120 672 120 672 192 672 c 1,8,9
 192 696 192 696 192 768 c 1,10,11
 240 768 240 768 384 768 c 1,12,13
 384 744 384 744 384 672 c 1,14,15
 312 672 l 256,16,17
 240 672 240 672 192 672 c 1,18,19
 192 640 192 640 192 576 c 1,20,21
 240 576 240 576 384 576 c 1,22,23
 384 600 384 600 384 672 c 1,24,25
 408 672 408 672 480 672 c 1,26,27
 480 648 480 648 480 576 c 1,28,29
 456 576 456 576 384 576 c 1,30,31
 384 552 384 552 384 480 c 1,32,33
 360 480 l 256,34,35
 336 480 336 480 288 480 c 1,36,37
 288 416 288 416 288 288 c 1,38,39
 312 288 l 0,40,41
 336 288 336 288 384 288 c 1,42,43
 384 352 384 352 384 480 c 1,44,45
 408 480 408 480 480 480 c 1,46,47
 480 360 480 360 480 0 c 1,48,49
 456 0 456 0 384 0 c 1,50,51
 384 48 384 48 384 192 c 1,52,53
 360 192 360 192 288 192 c 1,54,55
 288 144 288 144 288 0 c 1,56,57
 240 0 240 0 96 0 c 1,58,59
 96 192 l 256,60,61
 96 384 96 384 96 480 c 1,62,63
 128 480 128 480 192 480 c 1,0,1
EndSplineSet
EndChar

StartChar: Ccedilla
Encoding: 199 199 116
Width: 576
VWidth: 960
Flags: W
LayerCount: 2
Fore
SplineSet
480 480 m 1,0,1
 432 480 l 256,2,3
 384 480 384 480 288 480 c 1,4,5
 288 352 288 352 288 96 c 1,6,7
 336 96 l 0,8,9
 384 96 384 96 480 96 c 1,10,11
 480 48 l 256,12,13
 480 0 l 1,14,15
 384 0 384 0 192 0 c 1,16,17
 192 24 192 24 192 96 c 1,18,19
 144 96 l 0,20,21
 96 96 l 1,22,23
 96 224 96 224 96 480 c 1,24,25
 120 480 120 480 192 480 c 1,26,27
 192 504 192 504 192 576 c 1,28,29
 264 576 264 576 480 576 c 1,30,31
 480 552 480 552 480 480 c 1,0,1
288 0 m 1,32,33
 288 -48 l 256,34,35
 288 -96 l 1,36,37
 256 -96 256 -96 192 -96 c 1,38,39
 192 -120 192 -120 192 -192 c 1,40,41
 216 -192 216 -192 288 -192 c 1,42,43
 288 -168 288 -168 288 -96 c 1,44,45
 336 -96 l 0,46,47
 384 -96 l 257,48,49
 384 -48 l 256,50,51
 384 0 l 1,52,53
 352 0 352 0 288 0 c 1,32,33
EndSplineSet
EndChar

StartChar: Egrave
Encoding: 200 200 117
Width: 576
VWidth: 960
Flags: W
LayerCount: 2
Fore
SplineSet
480 576 m 1,0,1
 480 528 l 256,2,3
 480 480 l 257,4,5
 432 480 l 256,6,7
 384 480 384 480 288 480 c 1,8,9
 288 448 288 448 288 384 c 1,10,11
 312 384 312 384 384 384 c 1,12,13
 384 336 l 0,14,15
 384 288 l 257,16,17
 360 288 l 256,18,19
 336 288 336 288 288 288 c 1,20,21
 288 224 288 224 288 96 c 1,22,23
 336 96 336 96 480 96 c 1,24,25
 480 48 l 256,26,27
 480 0 l 257,28,29
 336 0 l 0,30,31
 192 0 192 0 96 0 c 1,32,33
 96 192 96 192 96 576 c 1,34,35
 192 576 192 576 480 576 c 1,0,1
288 768 m 1,36,37
 288 744 288 744 288 672 c 1,38,39
 336 672 l 0,40,41
 384 672 l 1,42,43
 384 640 384 640 384 576 c 1,44,45
 360 576 360 576 288 576 c 1,46,47
 288 600 288 600 288 672 c 1,48,49
 264 672 264 672 192 672 c 1,50,51
 192 720 l 256,52,53
 192 768 l 1,54,55
 224 768 224 768 288 768 c 1,36,37
EndSplineSet
EndChar

StartChar: Eacute
Encoding: 201 201 118
Width: 576
VWidth: 960
Flags: W
LayerCount: 2
Fore
SplineSet
480 576 m 1,0,1
 480 528 l 256,2,3
 480 480 l 257,4,5
 432 480 l 256,6,7
 384 480 384 480 288 480 c 1,8,9
 288 448 288 448 288 384 c 1,10,11
 312 384 312 384 384 384 c 1,12,13
 384 336 l 0,14,15
 384 288 l 257,16,17
 360 288 l 256,18,19
 336 288 336 288 288 288 c 1,20,21
 288 224 288 224 288 96 c 1,22,23
 336 96 336 96 480 96 c 1,24,25
 480 48 l 256,26,27
 480 0 l 257,28,29
 336 0 l 0,30,31
 192 0 192 0 96 0 c 1,32,33
 96 192 96 192 96 576 c 1,34,35
 192 576 192 576 480 576 c 1,0,1
288 672 m 1,36,37
 288 696 288 696 288 768 c 1,38,39
 312 768 312 768 384 768 c 1,40,41
 384 744 384 744 384 672 c 1,42,43
 360 672 360 672 288 672 c 1,44,45
 288 624 l 0,46,47
 288 576 l 1,48,49
 256 576 256 576 192 576 c 1,50,51
 192 600 192 600 192 672 c 1,52,53
 216 672 216 672 288 672 c 1,36,37
EndSplineSet
EndChar

StartChar: Ecircumflex
Encoding: 202 202 119
Width: 576
VWidth: 960
Flags: W
LayerCount: 2
Fore
SplineSet
480 576 m 1,0,1
 480 528 l 256,2,3
 480 480 l 257,4,5
 432 480 l 256,6,7
 384 480 384 480 288 480 c 1,8,9
 288 448 288 448 288 384 c 1,10,11
 312 384 312 384 384 384 c 1,12,13
 384 336 l 0,14,15
 384 288 l 257,16,17
 360 288 l 256,18,19
 336 288 336 288 288 288 c 1,20,21
 288 224 288 224 288 96 c 1,22,23
 336 96 336 96 480 96 c 1,24,25
 480 48 l 256,26,27
 480 0 l 257,28,29
 336 0 l 0,30,31
 192 0 192 0 96 0 c 1,32,33
 96 192 96 192 96 576 c 1,34,35
 192 576 192 576 480 576 c 1,0,1
96 624 m 1,36,37
 96 636 96 636 96 672 c 1,38,39
 144 672 l 0,40,41
 192 672 l 1,42,43
 192 704 192 704 192 768 c 1,44,45
 240 768 240 768 384 768 c 1,46,47
 384 720 l 256,48,49
 384 672 l 1,50,51
 416 672 416 672 480 672 c 1,52,53
 480 660 480 660 480 624 c 1,54,55
 456 624 456 624 384 624 c 1,56,57
 384 636 384 636 384 672 c 1,58,59
 336 672 336 672 192 672 c 1,60,61
 192 660 192 660 192 624 c 1,62,63
 168 624 168 624 96 624 c 1,36,37
EndSplineSet
EndChar

StartChar: Edieresis
Encoding: 203 203 120
Width: 576
VWidth: 960
Flags: W
LayerCount: 2
Fore
SplineSet
480 576 m 1,0,1
 480 528 l 256,2,3
 480 480 l 257,4,5
 432 480 l 256,6,7
 384 480 384 480 288 480 c 1,8,9
 288 448 288 448 288 384 c 1,10,11
 312 384 312 384 384 384 c 1,12,13
 384 336 l 0,14,15
 384 288 l 257,16,17
 360 288 l 256,18,19
 336 288 336 288 288 288 c 1,20,21
 288 224 288 224 288 96 c 1,22,23
 336 96 336 96 480 96 c 1,24,25
 480 48 l 256,26,27
 480 0 l 257,28,29
 336 0 l 0,30,31
 192 0 192 0 96 0 c 1,32,33
 96 192 96 192 96 576 c 1,34,35
 192 576 192 576 480 576 c 1,0,1
288 768 m 1,36,37
 288 744 288 744 288 672 c 1,38,39
 264 672 264 672 192 672 c 1,40,41
 192 696 192 696 192 768 c 1,42,43
 216 768 216 768 288 768 c 1,36,37
384 672 m 1,44,45
 384 696 384 696 384 768 c 1,46,47
 408 768 408 768 480 768 c 1,48,49
 480 744 480 744 480 672 c 1,50,51
 456 672 456 672 384 672 c 1,44,45
EndSplineSet
EndChar

StartChar: Igrave
Encoding: 204 204 121
Width: 576
VWidth: 960
Flags: W
LayerCount: 2
Fore
SplineSet
480 576 m 1,0,1
 480 552 480 552 480 480 c 1,2,3
 456 480 456 480 384 480 c 1,4,5
 384 384 384 384 384 96 c 1,6,7
 432 96 l 256,8,9
 480 96 l 257,10,11
 480 48 l 256,12,13
 480 0 l 1,14,15
 352 0 352 0 96 0 c 1,16,17
 96 24 96 24 96 96 c 1,18,19
 144 96 l 0,20,21
 192 96 l 1,22,23
 192 224 192 224 192 480 c 1,24,25
 168 480 168 480 96 480 c 1,26,27
 96 504 96 504 96 576 c 1,28,29
 192 576 192 576 480 576 c 1,0,1
288 768 m 1,30,31
 288 744 288 744 288 672 c 1,32,33
 312 672 312 672 384 672 c 1,34,35
 384 624 l 0,36,37
 384 576 l 1,38,39
 352 576 352 576 288 576 c 1,40,41
 288 600 288 600 288 672 c 1,42,43
 264 672 264 672 192 672 c 1,44,45
 192 720 l 256,46,47
 192 768 l 1,48,49
 224 768 224 768 288 768 c 1,30,31
EndSplineSet
EndChar

StartChar: Iacute
Encoding: 205 205 122
Width: 576
VWidth: 960
Flags: W
LayerCount: 2
Fore
SplineSet
480 576 m 1,0,1
 480 552 480 552 480 480 c 1,2,3
 456 480 456 480 384 480 c 1,4,5
 384 384 384 384 384 96 c 1,6,7
 432 96 l 256,8,9
 480 96 l 257,10,11
 480 48 l 256,12,13
 480 0 l 1,14,15
 352 0 352 0 96 0 c 1,16,17
 96 24 96 24 96 96 c 1,18,19
 144 96 l 0,20,21
 192 96 l 1,22,23
 192 224 192 224 192 480 c 1,24,25
 168 480 168 480 96 480 c 1,26,27
 96 504 96 504 96 576 c 1,28,29
 192 576 192 576 480 576 c 1,0,1
192 576 m 1,30,31
 192 600 192 600 192 672 c 1,32,33
 216 672 216 672 288 672 c 1,34,35
 288 696 288 696 288 768 c 1,36,37
 312 768 312 768 384 768 c 1,38,39
 384 744 384 744 384 672 c 1,40,41
 360 672 360 672 288 672 c 1,42,43
 288 648 288 648 288 576 c 1,44,45
 264 576 264 576 192 576 c 1,30,31
EndSplineSet
EndChar

StartChar: Icircumflex
Encoding: 206 206 123
Width: 576
VWidth: 960
Flags: W
LayerCount: 2
Fore
SplineSet
480 576 m 1,0,1
 480 552 480 552 480 480 c 1,2,3
 456 480 456 480 384 480 c 1,4,5
 384 384 384 384 384 96 c 1,6,7
 432 96 l 256,8,9
 480 96 l 257,10,11
 480 48 l 256,12,13
 480 0 l 1,14,15
 352 0 352 0 96 0 c 1,16,17
 96 24 96 24 96 96 c 1,18,19
 144 96 l 0,20,21
 192 96 l 1,22,23
 192 224 192 224 192 480 c 1,24,25
 168 480 168 480 96 480 c 1,26,27
 96 504 96 504 96 576 c 1,28,29
 192 576 192 576 480 576 c 1,0,1
96 672 m 1,30,31
 120 672 120 672 192 672 c 1,32,33
 192 696 192 696 192 768 c 1,34,35
 240 768 240 768 384 768 c 1,36,37
 384 744 384 744 384 672 c 1,38,39
 408 672 408 672 480 672 c 1,40,41
 480 660 480 660 480 624 c 1,42,43
 456 624 456 624 384 624 c 1,44,45
 384 636 384 636 384 672 c 1,46,47
 336 672 336 672 192 672 c 1,48,49
 192 660 192 660 192 624 c 1,50,51
 144 624 l 0,52,53
 96 624 l 1,54,55
 96 640 96 640 96 672 c 1,30,31
EndSplineSet
EndChar

StartChar: Idieresis
Encoding: 207 207 124
Width: 576
VWidth: 960
Flags: W
LayerCount: 2
Fore
SplineSet
480 576 m 1,0,1
 480 552 480 552 480 480 c 1,2,3
 456 480 456 480 384 480 c 1,4,5
 384 384 384 384 384 96 c 1,6,7
 432 96 l 256,8,9
 480 96 l 257,10,11
 480 48 l 256,12,13
 480 0 l 1,14,15
 352 0 352 0 96 0 c 1,16,17
 96 24 96 24 96 96 c 1,18,19
 144 96 l 0,20,21
 192 96 l 1,22,23
 192 224 192 224 192 480 c 1,24,25
 168 480 168 480 96 480 c 1,26,27
 96 504 96 504 96 576 c 1,28,29
 192 576 192 576 480 576 c 1,0,1
96 672 m 1,30,31
 96 696 96 696 96 768 c 1,32,33
 120 768 120 768 192 768 c 1,34,35
 192 720 l 256,36,37
 192 672 l 1,38,39
 160 672 160 672 96 672 c 1,30,31
384 672 m 1,40,41
 384 720 l 256,42,43
 384 768 l 1,44,45
 416 768 416 768 480 768 c 1,46,47
 480 744 480 744 480 672 c 1,48,49
 456 672 456 672 384 672 c 1,40,41
EndSplineSet
EndChar

StartChar: Eth
Encoding: 208 208 125
Width: 576
VWidth: 960
Flags: W
LayerCount: 2
Fore
SplineSet
384 576 m 1,0,1
 384 552 384 552 384 480 c 1,2,3
 336 480 336 480 192 480 c 1,4,5
 192 384 192 384 192 96 c 1,6,7
 240 96 240 96 384 96 c 1,8,9
 384 192 384 192 384 480 c 1,10,11
 408 480 408 480 480 480 c 1,12,13
 480 336 l 0,14,15
 480 192 480 192 480 96 c 1,16,17
 448 96 448 96 384 96 c 1,18,19
 384 48 l 256,20,21
 384 0 l 1,22,23
 288 0 288 0 96 0 c 1,24,25
 96 144 96 144 96 576 c 1,26,27
 168 576 168 576 384 576 c 1,0,1
96 384 m 1,28,29
 72 384 72 384 0 384 c 1,30,31
 0 336 l 0,32,33
 0 288 l 257,34,35
 48 288 l 256,36,37
 96 288 l 1,38,39
 96 320 96 320 96 384 c 1,28,29
192 288 m 1,40,41
 216 288 216 288 288 288 c 1,42,43
 288 336 l 0,44,45
 288 384 l 1,46,47
 256 384 256 384 192 384 c 1,48,49
 192 360 192 360 192 288 c 1,40,41
EndSplineSet
EndChar

StartChar: Ntilde
Encoding: 209 209 126
Width: 576
VWidth: 960
Flags: W
LayerCount: 2
Fore
SplineSet
96 0 m 1,0,1
 96 144 96 144 96 576 c 1,2,3
 144 576 144 576 288 576 c 1,4,5
 288 528 288 528 288 384 c 1,6,7
 312 384 312 384 384 384 c 1,8,9
 384 360 384 360 384 288 c 1,10,11
 408 288 408 288 480 288 c 1,12,13
 480 360 480 360 480 576 c 1,14,15
 504 576 504 576 576 576 c 1,16,17
 576 432 576 432 576 0 c 1,18,19
 528 0 l 256,20,21
 480 0 l 1,22,23
 480 48 480 48 480 120 c 256,24,25
 480 192 l 257,26,27
 432 192 l 256,28,29
 384 192 l 1,30,31
 384 224 384 224 384 288 c 1,32,33
 360 288 360 288 288 288 c 1,34,35
 288 192 288 192 288 96 c 0,36,37
 288 0 l 1,38,39
 224 0 224 0 96 0 c 1,0,1
192 672 m 1,40,41
 192 696 192 696 192 768 c 1,42,43
 216 768 216 768 288 768 c 1,44,45
 288 720 l 256,46,47
 288 672 l 257,48,49
 360 672 l 256,50,51
 432 672 432 672 480 672 c 1,52,53
 480 704 480 704 480 768 c 1,54,55
 504 768 504 768 576 768 c 1,56,57
 576 720 l 256,58,59
 576 672 l 1,60,61
 544 672 544 672 480 672 c 1,62,63
 480 660 480 660 480 624 c 1,64,65
 432 624 432 624 288 624 c 1,66,67
 288 636 288 636 288 672 c 1,68,69
 264 672 264 672 192 672 c 1,70,71
 192 660 192 660 192 624 c 1,72,73
 168 624 168 624 96 624 c 1,74,75
 96 636 96 636 96 672 c 1,76,77
 120 672 120 672 192 672 c 1,40,41
EndSplineSet
EndChar

StartChar: Ograve
Encoding: 210 210 127
Width: 576
VWidth: 960
Flags: W
LayerCount: 2
Fore
SplineSet
192 480 m 1,0,1
 192 504 192 504 192 576 c 1,2,3
 240 576 240 576 384 576 c 1,4,5
 384 528 l 256,6,7
 384 480 l 1,8,9
 416 480 416 480 480 480 c 1,10,11
 480 384 480 384 480 96 c 1,12,13
 432 96 l 256,14,15
 384 96 l 1,16,17
 384 224 384 224 384 480 c 1,18,19
 360 480 360 480 288 480 c 1,20,21
 288 384 288 384 288 96 c 1,22,23
 312 96 312 96 384 96 c 1,24,25
 384 48 l 256,26,27
 384 0 l 1,28,29
 320 0 320 0 192 0 c 1,30,31
 192 24 192 24 192 96 c 1,32,33
 168 96 168 96 96 96 c 1,34,35
 96 240 l 256,36,37
 96 384 96 384 96 480 c 1,38,39
 128 480 128 480 192 480 c 1,0,1
288 768 m 1,40,41
 288 744 288 744 288 672 c 1,42,43
 336 672 l 0,44,45
 384 672 l 257,46,47
 384 624 l 0,48,49
 384 576 l 257,50,51
 336 576 l 0,52,53
 288 576 l 1,54,55
 288 608 288 608 288 672 c 1,56,57
 264 672 264 672 192 672 c 1,58,59
 192 696 192 696 192 768 c 1,60,61
 216 768 216 768 288 768 c 1,40,41
EndSplineSet
EndChar

StartChar: Oacute
Encoding: 211 211 128
Width: 576
VWidth: 960
Flags: W
LayerCount: 2
Fore
SplineSet
192 480 m 1,0,1
 192 504 192 504 192 576 c 1,2,3
 240 576 240 576 384 576 c 1,4,5
 384 528 l 256,6,7
 384 480 l 1,8,9
 416 480 416 480 480 480 c 1,10,11
 480 384 480 384 480 96 c 1,12,13
 432 96 l 256,14,15
 384 96 l 1,16,17
 384 224 384 224 384 480 c 1,18,19
 360 480 360 480 288 480 c 1,20,21
 288 384 288 384 288 96 c 1,22,23
 312 96 312 96 384 96 c 1,24,25
 384 48 l 256,26,27
 384 0 l 1,28,29
 320 0 320 0 192 0 c 1,30,31
 192 24 192 24 192 96 c 1,32,33
 168 96 168 96 96 96 c 1,34,35
 96 240 l 256,36,37
 96 384 96 384 96 480 c 1,38,39
 128 480 128 480 192 480 c 1,0,1
192 672 m 1,40,41
 216 672 216 672 288 672 c 1,42,43
 288 696 288 696 288 768 c 1,44,45
 312 768 312 768 384 768 c 1,46,47
 384 744 384 744 384 672 c 1,48,49
 336 672 l 0,50,51
 288 672 l 1,52,53
 288 640 288 640 288 576 c 1,54,55
 240 576 l 256,56,57
 192 576 l 1,58,59
 192 608 192 608 192 672 c 1,40,41
EndSplineSet
EndChar

StartChar: Ocircumflex
Encoding: 212 212 129
Width: 576
VWidth: 960
Flags: W
LayerCount: 2
Fore
SplineSet
192 480 m 1,0,1
 192 504 192 504 192 576 c 1,2,3
 240 576 240 576 384 576 c 1,4,5
 384 528 l 256,6,7
 384 480 l 1,8,9
 416 480 416 480 480 480 c 1,10,11
 480 384 480 384 480 96 c 1,12,13
 432 96 l 256,14,15
 384 96 l 1,16,17
 384 224 384 224 384 480 c 1,18,19
 360 480 360 480 288 480 c 1,20,21
 288 384 288 384 288 96 c 1,22,23
 312 96 312 96 384 96 c 1,24,25
 384 48 l 256,26,27
 384 0 l 1,28,29
 320 0 320 0 192 0 c 1,30,31
 192 24 192 24 192 96 c 1,32,33
 168 96 168 96 96 96 c 1,34,35
 96 240 l 256,36,37
 96 384 96 384 96 480 c 1,38,39
 128 480 128 480 192 480 c 1,0,1
192 672 m 1,40,41
 192 696 192 696 192 768 c 1,42,43
 240 768 240 768 384 768 c 1,44,45
 384 744 384 744 384 672 c 1,46,47
 408 672 408 672 480 672 c 1,48,49
 480 660 480 660 480 624 c 1,50,51
 456 624 456 624 384 624 c 1,52,53
 384 648 l 0,54,55
 384 672 l 1,56,57
 320 672 320 672 192 672 c 1,58,59
 192 648 l 0,60,61
 192 624 l 1,62,63
 160 624 160 624 96 624 c 1,64,65
 96 648 l 0,66,67
 96 672 l 1,68,69
 128 672 128 672 192 672 c 1,40,41
EndSplineSet
EndChar

StartChar: Otilde
Encoding: 213 213 130
Width: 576
VWidth: 960
Flags: W
LayerCount: 2
Fore
SplineSet
192 480 m 1,0,1
 192 504 192 504 192 576 c 1,2,3
 240 576 240 576 384 576 c 1,4,5
 384 528 l 256,6,7
 384 480 l 1,8,9
 416 480 416 480 480 480 c 1,10,11
 480 384 480 384 480 96 c 1,12,13
 432 96 l 256,14,15
 384 96 l 1,16,17
 384 224 384 224 384 480 c 1,18,19
 360 480 360 480 288 480 c 1,20,21
 288 384 288 384 288 96 c 1,22,23
 312 96 312 96 384 96 c 1,24,25
 384 48 l 256,26,27
 384 0 l 1,28,29
 320 0 320 0 192 0 c 1,30,31
 192 24 192 24 192 96 c 1,32,33
 168 96 168 96 96 96 c 1,34,35
 96 240 l 256,36,37
 96 384 96 384 96 480 c 1,38,39
 128 480 128 480 192 480 c 1,0,1
192 672 m 1,40,41
 192 696 192 696 192 768 c 1,42,43
 216 768 216 768 288 768 c 1,44,45
 288 744 288 744 288 672 c 1,46,47
 336 672 336 672 480 672 c 1,48,49
 480 696 480 696 480 768 c 1,50,51
 504 768 504 768 576 768 c 1,52,53
 576 744 576 744 576 672 c 1,54,55
 528 672 l 256,56,57
 480 672 l 1,58,59
 480 640 480 640 480 576 c 1,60,61
 432 576 432 576 288 576 c 1,62,63
 288 600 288 600 288 672 c 1,64,65
 264 672 264 672 192 672 c 1,66,67
 192 624 l 0,68,69
 192 576 l 257,70,71
 144 576 l 0,72,73
 96 576 l 257,74,75
 96 624 l 0,76,77
 96 672 l 1,78,79
 128 672 128 672 192 672 c 1,40,41
EndSplineSet
EndChar

StartChar: Odieresis
Encoding: 214 214 131
Width: 576
VWidth: 960
Flags: W
LayerCount: 2
Fore
SplineSet
192 480 m 1,0,1
 192 504 192 504 192 576 c 1,2,3
 240 576 240 576 384 576 c 1,4,5
 384 528 l 256,6,7
 384 480 l 1,8,9
 416 480 416 480 480 480 c 1,10,11
 480 384 480 384 480 96 c 1,12,13
 432 96 l 256,14,15
 384 96 l 1,16,17
 384 224 384 224 384 480 c 1,18,19
 360 480 360 480 288 480 c 1,20,21
 288 384 288 384 288 96 c 1,22,23
 312 96 312 96 384 96 c 1,24,25
 384 48 l 256,26,27
 384 0 l 1,28,29
 320 0 320 0 192 0 c 1,30,31
 192 24 192 24 192 96 c 1,32,33
 168 96 168 96 96 96 c 1,34,35
 96 240 l 256,36,37
 96 384 96 384 96 480 c 1,38,39
 128 480 128 480 192 480 c 1,0,1
192 768 m 1,40,41
 192 744 192 744 192 672 c 1,42,43
 168 672 168 672 96 672 c 1,44,45
 96 720 l 256,46,47
 96 768 l 1,48,49
 128 768 128 768 192 768 c 1,40,41
480 768 m 1,50,51
 480 744 480 744 480 672 c 1,52,53
 456 672 456 672 384 672 c 1,54,55
 384 696 384 696 384 768 c 1,56,57
 408 768 408 768 480 768 c 1,50,51
EndSplineSet
EndChar

StartChar: multiply
Encoding: 215 215 132
Width: 576
VWidth: 960
Flags: W
LayerCount: 2
Fore
SplineSet
192 480 m 1,0,1
 192 432 l 256,2,3
 192 384 l 1,4,5
 224 384 224 384 288 384 c 1,6,7
 288 336 l 0,8,9
 288 288 l 257,10,11
 336 288 l 0,12,13
 384 288 l 257,14,15
 384 336 l 0,16,17
 384 384 l 257,18,19
 432 384 l 256,20,21
 480 384 l 1,22,23
 480 416 480 416 480 480 c 1,24,25
 504 480 504 480 576 480 c 1,26,27
 576 432 l 256,28,29
 576 384 l 1,30,31
 544 384 544 384 480 384 c 1,32,33
 480 360 480 360 480 288 c 1,34,35
 432 288 l 256,36,37
 384 288 l 1,38,39
 384 256 384 256 384 192 c 1,40,41
 408 192 408 192 480 192 c 1,42,43
 480 144 l 0,44,45
 480 96 l 257,46,47
 528 96 l 256,48,49
 576 96 l 1,50,51
 576 64 576 64 576 0 c 1,52,53
 528 0 l 256,54,55
 480 0 l 257,56,57
 480 48 l 256,58,59
 480 96 l 1,60,61
 448 96 448 96 384 96 c 1,62,63
 384 144 l 0,64,65
 384 192 l 257,66,67
 336 192 l 0,68,69
 288 192 l 1,70,71
 288 160 288 160 288 96 c 1,72,73
 240 96 l 256,74,75
 192 96 l 1,76,77
 192 64 192 64 192 0 c 1,78,79
 144 0 l 0,80,81
 96 0 l 257,82,83
 96 48 l 256,84,85
 96 96 l 257,86,87
 144 96 l 0,88,89
 192 96 l 257,90,91
 192 144 l 0,92,93
 192 192 l 1,94,95
 224 192 224 192 288 192 c 1,96,97
 288 216 288 216 288 288 c 1,98,99
 264 288 264 288 192 288 c 1,100,101
 192 312 192 312 192 384 c 1,102,103
 168 384 168 384 96 384 c 1,104,105
 96 408 96 408 96 480 c 1,106,107
 120 480 120 480 192 480 c 1,0,1
EndSplineSet
EndChar

StartChar: Oslash
Encoding: 216 216 133
Width: 576
VWidth: 960
Flags: W
LayerCount: 2
Fore
SplineSet
192 480 m 1,0,1
 192 504 192 504 192 576 c 1,2,3
 240 576 240 576 384 576 c 1,4,5
 384 528 l 256,6,7
 384 480 l 1,8,9
 416 480 416 480 480 480 c 1,10,11
 480 384 480 384 480 96 c 1,12,13
 432 96 l 256,14,15
 384 96 l 1,16,17
 384 224 384 224 384 480 c 1,18,19
 360 480 360 480 288 480 c 1,20,21
 288 384 288 384 288 288 c 0,22,23
 288 192 288 192 288 96 c 1,24,25
 320 96 320 96 384 96 c 1,26,27
 384 48 l 256,28,29
 384 0 l 1,30,31
 320 0 320 0 192 0 c 1,32,33
 192 24 192 24 192 96 c 1,34,35
 168 96 168 96 96 96 c 1,36,37
 96 240 l 256,38,39
 96 384 96 384 96 480 c 1,40,41
 128 480 128 480 192 480 c 1,0,1
0 96 m 1,42,43
 0 72 0 72 0 0 c 1,44,45
 24 0 24 0 96 0 c 1,46,47
 96 24 96 24 96 96 c 1,48,49
 72 96 72 96 0 96 c 1,42,43
576 480 m 1,50,51
 576 528 l 256,52,53
 576 576 l 1,54,55
 544 576 544 576 480 576 c 1,56,57
 480 552 480 552 480 480 c 1,58,59
 504 480 504 480 576 480 c 1,50,51
384 384 m 1,60,61
 360 384 360 384 288 384 c 1,62,63
 288 360 288 360 288 288 c 1,64,65
 312 288 312 288 384 288 c 1,66,67
 384 312 384 312 384 384 c 1,60,61
EndSplineSet
EndChar

StartChar: Ugrave
Encoding: 217 217 134
Width: 576
VWidth: 960
Flags: W
LayerCount: 2
Fore
SplineSet
192 576 m 257,0,1
 192 384 l 0,2,3
 192 192 192 192 192 96 c 1,4,5
 224 96 224 96 288 96 c 1,6,7
 288 288 l 256,8,9
 288 480 288 480 288 576 c 1,10,11
 352 576 352 576 480 576 c 1,12,13
 480 360 l 256,14,15
 480 144 480 144 480 0 c 1,16,17
 384 0 l 0,18,19
 288 0 288 0 192 0 c 1,20,21
 192 32 192 32 192 96 c 1,22,23
 168 96 168 96 96 96 c 1,24,25
 96 192 96 192 96 384 c 0,26,27
 96 576 l 257,28,29
 144 576 l 0,30,31
 192 576 l 257,0,1
288 768 m 1,32,33
 288 744 288 744 288 672 c 1,34,35
 312 672 312 672 384 672 c 1,36,37
 384 648 384 648 384 576 c 1,38,39
 360 576 360 576 288 576 c 1,40,41
 288 600 288 600 288 672 c 1,42,43
 264 672 264 672 192 672 c 1,44,45
 192 720 l 256,46,47
 192 768 l 1,48,49
 224 768 224 768 288 768 c 1,32,33
EndSplineSet
EndChar

StartChar: Uacute
Encoding: 218 218 135
Width: 576
VWidth: 960
Flags: W
LayerCount: 2
Fore
SplineSet
192 576 m 257,0,1
 192 384 l 0,2,3
 192 192 192 192 192 96 c 1,4,5
 224 96 224 96 288 96 c 1,6,7
 288 288 l 256,8,9
 288 480 288 480 288 576 c 1,10,11
 352 576 352 576 480 576 c 1,12,13
 480 360 l 256,14,15
 480 144 480 144 480 0 c 1,16,17
 384 0 l 0,18,19
 288 0 288 0 192 0 c 1,20,21
 192 32 192 32 192 96 c 1,22,23
 168 96 168 96 96 96 c 1,24,25
 96 192 96 192 96 384 c 0,26,27
 96 576 l 257,28,29
 144 576 l 0,30,31
 192 576 l 257,0,1
288 672 m 1,32,33
 288 696 288 696 288 768 c 1,34,35
 312 768 312 768 384 768 c 1,36,37
 384 720 l 256,38,39
 384 672 l 1,40,41
 352 672 352 672 288 672 c 1,42,43
 288 648 288 648 288 576 c 1,44,45
 240 576 l 256,46,47
 192 576 l 1,48,49
 192 608 192 608 192 672 c 1,50,51
 216 672 216 672 288 672 c 1,32,33
EndSplineSet
EndChar

StartChar: Ucircumflex
Encoding: 219 219 136
Width: 576
VWidth: 960
Flags: W
LayerCount: 2
Fore
SplineSet
192 576 m 257,0,1
 192 384 l 0,2,3
 192 192 192 192 192 96 c 1,4,5
 224 96 224 96 288 96 c 1,6,7
 288 288 l 256,8,9
 288 480 288 480 288 576 c 1,10,11
 352 576 352 576 480 576 c 1,12,13
 480 360 l 256,14,15
 480 144 480 144 480 0 c 1,16,17
 384 0 l 0,18,19
 288 0 288 0 192 0 c 1,20,21
 192 32 192 32 192 96 c 1,22,23
 168 96 168 96 96 96 c 1,24,25
 96 192 96 192 96 384 c 0,26,27
 96 576 l 257,28,29
 144 576 l 0,30,31
 192 576 l 257,0,1
192 672 m 1,32,33
 192 696 192 696 192 768 c 1,34,35
 240 768 240 768 384 768 c 1,36,37
 384 744 384 744 384 672 c 1,38,39
 408 672 408 672 480 672 c 1,40,41
 480 660 480 660 480 624 c 1,42,43
 456 624 456 624 384 624 c 1,44,45
 384 636 384 636 384 672 c 1,46,47
 336 672 336 672 192 672 c 1,48,49
 192 648 l 0,50,51
 192 624 l 1,52,53
 160 624 160 624 96 624 c 1,54,55
 96 636 96 636 96 672 c 1,56,57
 120 672 120 672 192 672 c 1,32,33
EndSplineSet
EndChar

StartChar: Udieresis
Encoding: 220 220 137
Width: 576
VWidth: 960
Flags: W
LayerCount: 2
Fore
SplineSet
192 576 m 257,0,1
 192 384 l 0,2,3
 192 192 192 192 192 96 c 1,4,5
 224 96 224 96 288 96 c 1,6,7
 288 288 l 256,8,9
 288 480 288 480 288 576 c 1,10,11
 352 576 352 576 480 576 c 1,12,13
 480 360 l 256,14,15
 480 144 480 144 480 0 c 1,16,17
 384 0 l 0,18,19
 288 0 288 0 192 0 c 1,20,21
 192 32 192 32 192 96 c 1,22,23
 168 96 168 96 96 96 c 1,24,25
 96 192 96 192 96 384 c 0,26,27
 96 576 l 257,28,29
 144 576 l 0,30,31
 192 576 l 257,0,1
192 768 m 1,32,33
 192 744 192 744 192 672 c 1,34,35
 168 672 168 672 96 672 c 1,36,37
 96 696 96 696 96 768 c 1,38,39
 120 768 120 768 192 768 c 1,32,33
480 768 m 1,40,41
 480 744 480 744 480 672 c 1,42,43
 456 672 456 672 384 672 c 1,44,45
 384 696 384 696 384 768 c 1,46,47
 408 768 408 768 480 768 c 1,40,41
EndSplineSet
EndChar

StartChar: Yacute
Encoding: 221 221 138
Width: 576
VWidth: 960
Flags: W
LayerCount: 2
Fore
SplineSet
96 576 m 1,0,1
 96 528 96 528 96 384 c 1,2,3
 120 384 120 384 192 384 c 1,4,5
 192 336 l 0,6,7
 192 288 l 1,8,9
 256 288 256 288 384 288 c 1,10,11
 384 312 384 312 384 384 c 1,12,13
 408 384 408 384 480 384 c 1,14,15
 480 432 480 432 480 576 c 1,16,17
 504 576 504 576 576 576 c 1,18,19
 576 504 l 0,20,21
 576 432 576 432 576 384 c 1,22,23
 528 384 l 256,24,25
 480 384 l 1,26,27
 480 352 480 352 480 288 c 1,28,29
 432 288 l 256,30,31
 384 288 l 1,32,33
 384 192 384 192 384 0 c 1,34,35
 336 0 336 0 192 0 c 1,36,37
 192 72 192 72 192 288 c 1,38,39
 168 288 168 288 96 288 c 1,40,41
 96 312 96 312 96 384 c 1,42,43
 72 384 72 384 0 384 c 1,44,45
 0 432 0 432 0 504 c 0,46,47
 0 576 l 257,48,49
 48 576 l 256,50,51
 96 576 l 1,0,1
288 672 m 1,52,53
 288 696 288 696 288 768 c 1,54,55
 312 768 312 768 384 768 c 1,56,57
 384 744 384 744 384 672 c 1,58,59
 288 672 l 257,60,61
 288 672 l 1,62,63
 288 640 288 640 288 576 c 1,64,65
 240 576 l 256,66,67
 192 576 l 1,68,69
 192 608 192 608 192 672 c 1,70,71
 216 672 216 672 288 672 c 1,52,53
EndSplineSet
EndChar

StartChar: Thorn
Encoding: 222 222 139
Width: 576
VWidth: 960
Flags: W
LayerCount: 2
Fore
SplineSet
288 576 m 1,0,1
 288 528 l 256,2,3
 288 480 l 1,4,5
 320 480 320 480 384 480 c 1,6,7
 384 432 l 256,8,9
 384 384 l 1,10,11
 352 384 352 384 288 384 c 1,12,13
 288 336 288 336 288 192 c 1,14,15
 312 192 312 192 384 192 c 1,16,17
 384 240 384 240 384 384 c 1,18,19
 408 384 408 384 480 384 c 1,20,21
 480 336 480 336 480 192 c 1,22,23
 456 192 456 192 384 192 c 1,24,25
 384 168 384 168 384 96 c 1,26,27
 360 96 360 96 288 96 c 1,28,29
 288 72 288 72 288 0 c 1,30,31
 240 0 l 256,32,33
 192 0 l 1,34,35
 192 192 192 192 192 576 c 1,36,37
 216 576 216 576 288 576 c 1,0,1
EndSplineSet
EndChar

StartChar: germandbls
Encoding: 223 223 140
Width: 576
VWidth: 960
Flags: W
LayerCount: 2
Fore
SplineSet
96 -96 m 1,0,1
 96 48 96 48 96 480 c 1,2,3
 120 480 120 480 192 480 c 1,4,5
 192 504 192 504 192 576 c 1,6,7
 240 576 240 576 384 576 c 1,8,9
 384 552 384 552 384 480 c 1,10,11
 360 480 360 480 288 480 c 1,12,13
 288 384 288 384 288 96 c 1,14,15
 312 96 312 96 384 96 c 1,16,17
 384 144 384 144 384 288 c 1,18,19
 360 288 360 288 288 288 c 1,20,21
 288 312 288 312 288 384 c 1,22,23
 312 384 312 384 384 384 c 1,24,25
 384 432 l 256,26,27
 384 480 l 1,28,29
 416 480 416 480 480 480 c 1,30,31
 480 456 480 456 480 384 c 1,32,33
 456 384 456 384 384 384 c 1,34,35
 384 336 l 0,36,37
 384 288 l 1,38,39
 416 288 416 288 480 288 c 1,40,41
 480 240 480 240 480 168 c 256,42,43
 480 96 l 1,44,45
 448 96 448 96 384 96 c 1,46,47
 384 72 384 72 384 0 c 1,48,49
 360 0 360 0 288 0 c 1,50,51
 288 -48 l 256,52,53
 288 -96 l 1,54,55
 252 -96 252 -96 192 -96 c 256,56,57
 132 -96 132 -96 96 -96 c 1,0,1
EndSplineSet
EndChar

StartChar: agrave
Encoding: 224 224 141
Width: 576
VWidth: 960
Flags: W
LayerCount: 2
Fore
SplineSet
384 480 m 1,0,1
 384 456 384 456 384 384 c 1,2,3
 360 384 360 384 288 384 c 1,4,5
 288 312 288 312 288 96 c 1,6,7
 312 96 312 96 384 96 c 1,8,9
 384 168 384 168 384 384 c 1,10,11
 408 384 408 384 480 384 c 1,12,13
 480 312 480 312 480 96 c 1,14,15
 504 96 504 96 576 96 c 1,16,17
 576 72 576 72 576 0 c 1,18,19
 552 0 552 0 480 0 c 1,20,21
 480 24 480 24 480 96 c 1,22,23
 456 96 456 96 384 96 c 1,24,25
 384 72 384 72 384 0 c 1,26,27
 336 0 336 0 192 0 c 1,28,29
 192 24 192 24 192 96 c 1,30,31
 168 96 168 96 96 96 c 1,32,33
 96 168 96 168 96 384 c 1,34,35
 120 384 120 384 192 384 c 1,36,37
 192 408 192 408 192 480 c 1,38,39
 240 480 240 480 384 480 c 1,0,1
288 768 m 1,40,41
 288 744 288 744 288 672 c 1,42,43
 312 672 312 672 384 672 c 1,44,45
 384 648 384 648 384 576 c 1,46,47
 336 576 l 0,48,49
 288 576 l 257,50,51
 288 624 l 0,52,53
 288 672 l 1,54,55
 256 672 256 672 192 672 c 1,56,57
 192 696 192 696 192 768 c 1,58,59
 216 768 216 768 288 768 c 1,40,41
EndSplineSet
EndChar

StartChar: aacute
Encoding: 225 225 142
Width: 576
VWidth: 960
Flags: W
LayerCount: 2
Fore
SplineSet
384 480 m 1,0,1
 384 456 384 456 384 384 c 1,2,3
 360 384 360 384 288 384 c 1,4,5
 288 312 288 312 288 96 c 1,6,7
 312 96 312 96 384 96 c 1,8,9
 384 168 384 168 384 384 c 1,10,11
 408 384 408 384 480 384 c 1,12,13
 480 312 480 312 480 96 c 1,14,15
 504 96 504 96 576 96 c 1,16,17
 576 72 576 72 576 0 c 1,18,19
 552 0 552 0 480 0 c 1,20,21
 480 24 480 24 480 96 c 1,22,23
 456 96 456 96 384 96 c 1,24,25
 384 72 384 72 384 0 c 1,26,27
 336 0 336 0 192 0 c 1,28,29
 192 24 192 24 192 96 c 1,30,31
 168 96 168 96 96 96 c 1,32,33
 96 168 96 168 96 384 c 1,34,35
 120 384 120 384 192 384 c 1,36,37
 192 408 192 408 192 480 c 1,38,39
 240 480 240 480 384 480 c 1,0,1
192 576 m 1,40,41
 192 624 l 0,42,43
 192 672 l 257,44,45
 240 672 l 256,46,47
 288 672 l 1,48,49
 288 704 288 704 288 768 c 1,50,51
 312 768 312 768 384 768 c 1,52,53
 384 744 384 744 384 672 c 1,54,55
 360 672 360 672 288 672 c 1,56,57
 288 648 288 648 288 576 c 1,58,59
 264 576 264 576 192 576 c 1,40,41
EndSplineSet
EndChar

StartChar: acircumflex
Encoding: 226 226 143
Width: 576
VWidth: 960
Flags: W
LayerCount: 2
Fore
SplineSet
384 480 m 1,0,1
 384 456 384 456 384 384 c 1,2,3
 360 384 360 384 288 384 c 1,4,5
 288 312 288 312 288 96 c 1,6,7
 312 96 312 96 384 96 c 1,8,9
 384 168 384 168 384 384 c 1,10,11
 408 384 408 384 480 384 c 1,12,13
 480 312 480 312 480 96 c 1,14,15
 504 96 504 96 576 96 c 1,16,17
 576 72 576 72 576 0 c 1,18,19
 552 0 552 0 480 0 c 1,20,21
 480 24 480 24 480 96 c 1,22,23
 456 96 456 96 384 96 c 1,24,25
 384 72 384 72 384 0 c 1,26,27
 336 0 336 0 192 0 c 1,28,29
 192 24 192 24 192 96 c 1,30,31
 168 96 168 96 96 96 c 1,32,33
 96 168 96 168 96 384 c 1,34,35
 120 384 120 384 192 384 c 1,36,37
 192 408 192 408 192 480 c 1,38,39
 240 480 240 480 384 480 c 1,0,1
192 672 m 1,40,41
 192 696 192 696 192 768 c 1,42,43
 240 768 240 768 384 768 c 1,44,45
 384 720 l 256,46,47
 384 672 l 1,48,49
 416 672 416 672 480 672 c 1,50,51
 480 648 480 648 480 576 c 1,52,53
 432 576 l 256,54,55
 384 576 l 1,56,57
 384 608 384 608 384 672 c 1,58,59
 336 672 336 672 192 672 c 1,60,61
 192 648 192 648 192 576 c 1,62,63
 144 576 l 0,64,65
 96 576 l 257,66,67
 96 624 l 0,68,69
 96 672 l 1,70,71
 128 672 128 672 192 672 c 1,40,41
EndSplineSet
EndChar

StartChar: atilde
Encoding: 227 227 144
Width: 576
VWidth: 960
Flags: W
LayerCount: 2
Fore
SplineSet
384 480 m 1,0,1
 384 456 384 456 384 384 c 1,2,3
 360 384 360 384 288 384 c 1,4,5
 288 312 288 312 288 96 c 1,6,7
 312 96 312 96 384 96 c 1,8,9
 384 168 384 168 384 384 c 1,10,11
 408 384 408 384 480 384 c 1,12,13
 480 312 480 312 480 96 c 1,14,15
 504 96 504 96 576 96 c 1,16,17
 576 72 576 72 576 0 c 1,18,19
 552 0 552 0 480 0 c 1,20,21
 480 24 480 24 480 96 c 1,22,23
 456 96 456 96 384 96 c 1,24,25
 384 72 384 72 384 0 c 1,26,27
 336 0 336 0 192 0 c 1,28,29
 192 24 192 24 192 96 c 1,30,31
 168 96 168 96 96 96 c 1,32,33
 96 168 96 168 96 384 c 1,34,35
 120 384 120 384 192 384 c 1,36,37
 192 408 192 408 192 480 c 1,38,39
 240 480 240 480 384 480 c 1,0,1
192 672 m 1,40,41
 192 696 192 696 192 768 c 1,42,43
 216 768 216 768 288 768 c 1,44,45
 288 744 288 744 288 672 c 1,46,47
 336 672 336 672 480 672 c 1,48,49
 480 696 480 696 480 768 c 1,50,51
 504 768 504 768 576 768 c 1,52,53
 576 744 576 744 576 672 c 1,54,55
 552 672 552 672 480 672 c 1,56,57
 480 648 480 648 480 576 c 1,58,59
 432 576 432 576 288 576 c 1,60,61
 288 600 288 600 288 672 c 1,62,63
 264 672 264 672 192 672 c 1,64,65
 192 624 l 0,66,67
 192 576 l 1,68,69
 160 576 160 576 96 576 c 1,70,71
 96 600 96 600 96 672 c 1,72,73
 120 672 120 672 192 672 c 1,40,41
EndSplineSet
EndChar

StartChar: adieresis
Encoding: 228 228 145
Width: 576
VWidth: 960
Flags: W
LayerCount: 2
Fore
SplineSet
384 480 m 1,0,1
 384 456 384 456 384 384 c 1,2,3
 360 384 360 384 288 384 c 1,4,5
 288 312 288 312 288 96 c 1,6,7
 312 96 312 96 384 96 c 1,8,9
 384 168 384 168 384 384 c 1,10,11
 408 384 408 384 480 384 c 1,12,13
 480 312 480 312 480 96 c 1,14,15
 504 96 504 96 576 96 c 1,16,17
 576 72 576 72 576 0 c 1,18,19
 552 0 552 0 480 0 c 1,20,21
 480 24 480 24 480 96 c 1,22,23
 456 96 456 96 384 96 c 1,24,25
 384 72 384 72 384 0 c 1,26,27
 336 0 336 0 192 0 c 1,28,29
 192 24 192 24 192 96 c 1,30,31
 168 96 168 96 96 96 c 1,32,33
 96 168 96 168 96 384 c 1,34,35
 120 384 120 384 192 384 c 1,36,37
 192 408 192 408 192 480 c 1,38,39
 240 480 240 480 384 480 c 1,0,1
192 672 m 257,40,41
 192 624 l 0,42,43
 192 576 l 1,44,45
 160 576 160 576 96 576 c 1,46,47
 96 624 l 0,48,49
 96 672 l 257,50,51
 144 672 l 0,52,53
 192 672 l 257,40,41
480 672 m 1,54,55
 480 624 l 0,56,57
 480 576 l 257,58,59
 432 576 l 256,60,61
 384 576 l 1,62,63
 384 608 384 608 384 672 c 1,64,65
 408 672 408 672 480 672 c 1,54,55
EndSplineSet
EndChar

StartChar: aring
Encoding: 229 229 146
Width: 576
VWidth: 960
Flags: W
LayerCount: 2
Fore
SplineSet
288 576 m 1,0,1
 264 576 264 576 192 576 c 1,2,3
 192 600 192 600 192 672 c 1,4,5
 216 672 216 672 288 672 c 1,6,7
 288 648 288 648 288 576 c 1,8,9
 312 576 312 576 384 576 c 1,10,11
 384 600 384 600 384 672 c 1,12,13
 360 672 360 672 288 672 c 1,14,15
 288 696 288 696 288 768 c 1,16,17
 312 768 312 768 384 768 c 1,18,19
 384 744 384 744 384 672 c 1,20,21
 408 672 408 672 480 672 c 1,22,23
 480 648 480 648 480 576 c 1,24,25
 456 576 456 576 384 576 c 1,26,27
 384 528 384 528 384 384 c 1,28,29
 408 384 408 384 480 384 c 1,30,31
 480 312 480 312 480 96 c 1,32,33
 504 96 504 96 576 96 c 1,34,35
 576 72 576 72 576 0 c 1,36,37
 552 0 552 0 480 0 c 1,38,39
 480 48 l 256,40,41
 480 96 l 1,42,43
 448 96 448 96 384 96 c 1,44,45
 384 168 384 168 384 384 c 1,46,47
 360 384 360 384 288 384 c 1,48,49
 288 312 288 312 288 96 c 1,50,51
 312 96 312 96 384 96 c 1,52,53
 384 72 384 72 384 0 c 1,54,55
 336 0 336 0 192 0 c 1,56,57
 192 24 192 24 192 96 c 1,58,59
 168 96 168 96 96 96 c 1,60,61
 96 168 96 168 96 384 c 1,62,63
 120 384 120 384 192 384 c 1,64,65
 192 408 192 408 192 480 c 1,66,67
 216 480 216 480 288 480 c 1,68,69
 288 504 288 504 288 576 c 1,0,1
EndSplineSet
EndChar

StartChar: ccedilla
Encoding: 231 231 147
Width: 576
VWidth: 960
Flags: W
LayerCount: 2
Fore
SplineSet
480 384 m 1,0,1
 432 384 432 384 288 384 c 1,2,3
 288 312 288 312 288 96 c 1,4,5
 336 96 l 0,6,7
 384 96 384 96 480 96 c 1,8,9
 480 48 l 256,10,11
 480 0 l 1,12,13
 384 0 384 0 192 0 c 1,14,15
 192 24 192 24 192 96 c 1,16,17
 168 96 168 96 96 96 c 1,18,19
 96 168 96 168 96 384 c 1,20,21
 120 384 120 384 192 384 c 1,22,23
 192 408 192 408 192 480 c 1,24,25
 264 480 264 480 480 480 c 1,26,27
 480 456 480 456 480 384 c 1,0,1
288 0 m 1,28,29
 288 -24 288 -24 288 -96 c 1,30,31
 264 -96 264 -96 192 -96 c 1,32,33
 192 -120 192 -120 192 -192 c 1,34,35
 240 -192 l 256,36,37
 288 -192 l 1,38,39
 288 -160 288 -160 288 -96 c 1,40,41
 312 -96 312 -96 384 -96 c 1,42,43
 384 -72 384 -72 384 0 c 1,44,45
 360 0 360 0 288 0 c 1,28,29
EndSplineSet
EndChar

StartChar: egrave
Encoding: 232 232 148
Width: 576
VWidth: 960
Flags: W
LayerCount: 2
Fore
SplineSet
384 384 m 1,0,1
 360 384 l 256,2,3
 336 384 336 384 288 384 c 1,4,5
 288 352 288 352 288 288 c 1,6,7
 312 288 312 288 384 288 c 1,8,9
 384 312 384 312 384 384 c 1,10,11
 432 384 l 256,12,13
 480 384 l 1,14,15
 480 320 480 320 480 192 c 1,16,17
 432 192 432 192 288 192 c 1,18,19
 288 168 288 168 288 96 c 1,20,21
 336 96 l 0,22,23
 384 96 384 96 480 96 c 1,24,25
 480 48 l 256,26,27
 480 0 l 1,28,29
 384 0 384 0 192 0 c 1,30,31
 192 24 192 24 192 96 c 1,32,33
 168 96 168 96 96 96 c 1,34,35
 96 168 96 168 96 384 c 1,36,37
 120 384 120 384 192 384 c 1,38,39
 192 408 192 408 192 480 c 1,40,41
 240 480 240 480 384 480 c 1,42,43
 384 456 384 456 384 384 c 1,0,1
288 768 m 1,44,45
 288 744 288 744 288 672 c 1,46,47
 312 672 312 672 384 672 c 1,48,49
 384 648 384 648 384 576 c 1,50,51
 360 576 360 576 288 576 c 1,52,53
 288 624 l 0,54,55
 288 672 l 1,56,57
 256 672 256 672 192 672 c 1,58,59
 192 696 192 696 192 768 c 1,60,61
 216 768 216 768 288 768 c 1,44,45
EndSplineSet
EndChar

StartChar: eacute
Encoding: 233 233 149
Width: 576
VWidth: 960
Flags: W
LayerCount: 2
Fore
SplineSet
384 384 m 1,0,1
 360 384 l 256,2,3
 336 384 336 384 288 384 c 1,4,5
 288 352 288 352 288 288 c 1,6,7
 312 288 312 288 384 288 c 1,8,9
 384 312 384 312 384 384 c 1,10,11
 432 384 l 256,12,13
 480 384 l 1,14,15
 480 320 480 320 480 192 c 1,16,17
 432 192 432 192 288 192 c 1,18,19
 288 168 288 168 288 96 c 1,20,21
 336 96 l 0,22,23
 384 96 384 96 480 96 c 1,24,25
 480 48 l 256,26,27
 480 0 l 1,28,29
 384 0 384 0 192 0 c 1,30,31
 192 24 192 24 192 96 c 1,32,33
 168 96 168 96 96 96 c 1,34,35
 96 168 96 168 96 384 c 1,36,37
 120 384 120 384 192 384 c 1,38,39
 192 408 192 408 192 480 c 1,40,41
 240 480 240 480 384 480 c 1,42,43
 384 456 384 456 384 384 c 1,0,1
288 672 m 1,44,45
 288 696 288 696 288 768 c 1,46,47
 312 768 312 768 384 768 c 1,48,49
 384 744 384 744 384 672 c 1,50,51
 336 672 l 0,52,53
 288 672 l 1,54,55
 288 640 288 640 288 576 c 1,56,57
 240 576 l 256,58,59
 192 576 l 1,60,61
 192 608 192 608 192 672 c 1,62,63
 216 672 216 672 288 672 c 1,44,45
EndSplineSet
EndChar

StartChar: ecircumflex
Encoding: 234 234 150
Width: 576
VWidth: 960
Flags: W
LayerCount: 2
Fore
SplineSet
384 384 m 1,0,1
 360 384 l 256,2,3
 336 384 336 384 288 384 c 1,4,5
 288 352 288 352 288 288 c 1,6,7
 312 288 312 288 384 288 c 1,8,9
 384 312 384 312 384 384 c 1,10,11
 432 384 l 256,12,13
 480 384 l 1,14,15
 480 320 480 320 480 192 c 1,16,17
 432 192 432 192 288 192 c 1,18,19
 288 168 288 168 288 96 c 1,20,21
 336 96 l 0,22,23
 384 96 384 96 480 96 c 1,24,25
 480 48 l 256,26,27
 480 0 l 1,28,29
 384 0 384 0 192 0 c 1,30,31
 192 24 192 24 192 96 c 1,32,33
 168 96 168 96 96 96 c 1,34,35
 96 168 96 168 96 384 c 1,36,37
 120 384 120 384 192 384 c 1,38,39
 192 408 192 408 192 480 c 1,40,41
 240 480 240 480 384 480 c 1,42,43
 384 456 384 456 384 384 c 1,0,1
192 672 m 1,44,45
 192 696 192 696 192 768 c 1,46,47
 240 768 240 768 384 768 c 1,48,49
 384 720 l 256,50,51
 384 672 l 1,52,53
 416 672 416 672 480 672 c 1,54,55
 480 648 480 648 480 576 c 1,56,57
 456 576 456 576 384 576 c 1,58,59
 384 600 384 600 384 672 c 1,60,61
 336 672 336 672 192 672 c 1,62,63
 192 648 192 648 192 576 c 1,64,65
 168 576 168 576 96 576 c 1,66,67
 96 600 96 600 96 672 c 1,68,69
 120 672 120 672 192 672 c 1,44,45
EndSplineSet
EndChar

StartChar: edieresis
Encoding: 235 235 151
Width: 576
VWidth: 960
Flags: W
LayerCount: 2
Fore
SplineSet
384 384 m 1,0,1
 360 384 l 256,2,3
 336 384 336 384 288 384 c 1,4,5
 288 352 288 352 288 288 c 1,6,7
 312 288 312 288 384 288 c 1,8,9
 384 312 384 312 384 384 c 1,10,11
 432 384 l 256,12,13
 480 384 l 1,14,15
 480 320 480 320 480 192 c 1,16,17
 432 192 432 192 288 192 c 1,18,19
 288 168 288 168 288 96 c 1,20,21
 336 96 l 0,22,23
 384 96 384 96 480 96 c 1,24,25
 480 48 l 256,26,27
 480 0 l 1,28,29
 384 0 384 0 192 0 c 1,30,31
 192 24 192 24 192 96 c 1,32,33
 168 96 168 96 96 96 c 1,34,35
 96 168 96 168 96 384 c 1,36,37
 120 384 120 384 192 384 c 1,38,39
 192 408 192 408 192 480 c 1,40,41
 240 480 240 480 384 480 c 1,42,43
 384 456 384 456 384 384 c 1,0,1
192 672 m 1,44,45
 192 648 192 648 192 576 c 1,46,47
 144 576 l 0,48,49
 96 576 l 257,50,51
 96 624 l 0,52,53
 96 672 l 1,54,55
 128 672 128 672 192 672 c 1,44,45
480 672 m 1,56,57
 480 648 480 648 480 576 c 1,58,59
 456 576 456 576 384 576 c 1,60,61
 384 600 384 600 384 672 c 1,62,63
 408 672 408 672 480 672 c 1,56,57
EndSplineSet
EndChar

StartChar: igrave
Encoding: 236 236 152
Width: 576
VWidth: 960
Flags: W
LayerCount: 2
Fore
SplineSet
384 480 m 1,0,1
 384 336 l 0,2,3
 384 192 384 192 384 96 c 1,4,5
 432 96 l 256,6,7
 480 96 l 257,8,9
 480 48 l 256,10,11
 480 0 l 257,12,13
 384 0 l 0,14,15
 288 0 l 1,16,17
 288 32 288 32 288 96 c 1,18,19
 264 96 264 96 192 96 c 1,20,21
 192 240 l 256,22,23
 192 384 192 384 192 480 c 1,24,25
 224 480 224 480 288 480 c 0,26,27
 320 480 320 480 384 480 c 1,0,1
384 576 m 1,28,29
 360 576 360 576 288 576 c 1,30,31
 288 600 288 600 288 672 c 1,32,33
 312 672 312 672 384 672 c 1,34,35
 384 648 384 648 384 576 c 1,28,29
288 768 m 1,36,37
 288 744 288 744 288 672 c 1,38,39
 264 672 264 672 192 672 c 1,40,41
 192 696 192 696 192 768 c 1,42,43
 216 768 216 768 288 768 c 1,36,37
EndSplineSet
EndChar

StartChar: iacute
Encoding: 237 237 153
Width: 576
VWidth: 960
Flags: W
LayerCount: 2
Fore
SplineSet
384 480 m 1,0,1
 384 336 l 0,2,3
 384 192 384 192 384 96 c 1,4,5
 432 96 l 256,6,7
 480 96 l 257,8,9
 480 48 l 256,10,11
 480 0 l 257,12,13
 384 0 l 0,14,15
 288 0 l 1,16,17
 288 32 288 32 288 96 c 1,18,19
 264 96 264 96 192 96 c 1,20,21
 192 240 l 256,22,23
 192 384 192 384 192 480 c 1,24,25
 256 480 256 480 384 480 c 1,0,1
288 576 m 1,26,27
 264 576 264 576 192 576 c 1,28,29
 192 600 192 600 192 672 c 1,30,31
 216 672 216 672 288 672 c 1,32,33
 288 648 288 648 288 576 c 1,26,27
384 768 m 1,34,35
 384 720 l 256,36,37
 384 672 l 1,38,39
 352 672 352 672 288 672 c 1,40,41
 288 696 288 696 288 768 c 1,42,43
 312 768 312 768 384 768 c 1,34,35
EndSplineSet
EndChar

StartChar: icircumflex
Encoding: 238 238 154
Width: 576
VWidth: 960
Flags: W
LayerCount: 2
Fore
SplineSet
384 480 m 1,0,1
 384 336 l 0,2,3
 384 192 384 192 384 96 c 1,4,5
 432 96 l 256,6,7
 480 96 l 257,8,9
 480 48 l 256,10,11
 480 0 l 257,12,13
 384 0 l 0,14,15
 288 0 l 1,16,17
 288 32 288 32 288 96 c 1,18,19
 264 96 264 96 192 96 c 1,20,21
 192 240 l 256,22,23
 192 384 192 384 192 480 c 1,24,25
 256 480 256 480 384 480 c 1,0,1
192 672 m 1,26,27
 192 720 l 256,28,29
 192 768 l 1,30,31
 256 768 256 768 384 768 c 1,32,33
 384 720 l 256,34,35
 384 672 l 257,36,37
 432 672 l 256,38,39
 480 672 l 257,40,41
 480 624 l 0,42,43
 480 576 l 257,44,45
 432 576 l 256,46,47
 384 576 l 1,48,49
 384 608 384 608 384 672 c 1,50,51
 336 672 336 672 192 672 c 1,52,53
 192 648 192 648 192 576 c 1,54,55
 168 576 168 576 96 576 c 1,56,57
 96 624 l 0,58,59
 96 672 l 1,60,61
 128 672 128 672 192 672 c 1,26,27
EndSplineSet
EndChar

StartChar: idieresis
Encoding: 239 239 155
Width: 576
VWidth: 960
Flags: W
LayerCount: 2
Fore
SplineSet
384 480 m 1,0,1
 384 336 l 0,2,3
 384 192 384 192 384 96 c 1,4,5
 432 96 l 256,6,7
 480 96 l 257,8,9
 480 48 l 256,10,11
 480 0 l 257,12,13
 384 0 l 0,14,15
 288 0 l 1,16,17
 288 32 288 32 288 96 c 1,18,19
 264 96 264 96 192 96 c 1,20,21
 192 240 l 256,22,23
 192 384 192 384 192 480 c 1,24,25
 256 480 256 480 384 480 c 1,0,1
192 672 m 1,26,27
 192 624 l 0,28,29
 192 576 l 1,30,31
 160 576 160 576 96 576 c 1,32,33
 96 600 96 600 96 672 c 1,34,35
 120 672 120 672 192 672 c 1,26,27
480 672 m 1,36,37
 480 648 480 648 480 576 c 1,38,39
 456 576 456 576 384 576 c 1,40,41
 384 600 384 600 384 672 c 1,42,43
 408 672 408 672 480 672 c 1,36,37
EndSplineSet
EndChar

StartChar: eth
Encoding: 240 240 156
Width: 576
VWidth: 960
Flags: W
LayerCount: 2
Fore
SplineSet
192 192 m 1,0,1
 192 168 192 168 192 96 c 1,2,3
 240 96 240 96 384 96 c 1,4,5
 384 120 384 120 384 192 c 1,6,7
 336 192 336 192 192 192 c 1,8,9
 192 216 192 216 192 288 c 1,10,11
 240 288 240 288 384 288 c 1,12,13
 384 312 384 312 384 384 c 1,14,15
 360 384 360 384 288 384 c 1,16,17
 288 408 288 408 288 480 c 1,18,19
 312 480 312 480 384 480 c 1,20,21
 384 504 384 504 384 576 c 1,22,23
 360 576 360 576 288 576 c 1,24,25
 288 600 288 600 288 672 c 1,26,27
 312 672 312 672 384 672 c 1,28,29
 384 648 384 648 384 576 c 1,30,31
 432 576 432 576 576 576 c 1,32,33
 576 552 576 552 576 480 c 1,34,35
 552 480 552 480 480 480 c 1,36,37
 480 384 480 384 480 96 c 1,38,39
 456 96 456 96 384 96 c 1,40,41
 384 72 384 72 384 0 c 1,42,43
 336 0 336 0 192 0 c 1,44,45
 192 24 192 24 192 96 c 1,46,47
 168 96 168 96 96 96 c 1,48,49
 96 120 96 120 96 192 c 1,50,51
 120 192 120 192 192 192 c 1,0,1
EndSplineSet
EndChar

StartChar: ntilde
Encoding: 241 241 157
Width: 576
VWidth: 960
Flags: W
LayerCount: 2
Fore
SplineSet
96 0 m 1,0,1
 96 120 96 120 96 480 c 1,2,3
 168 480 168 480 384 480 c 1,4,5
 384 432 l 256,6,7
 384 384 l 1,8,9
 416 384 416 384 480 384 c 1,10,11
 480 288 480 288 480 144 c 0,12,13
 480 0 l 257,14,15
 432 0 l 256,16,17
 384 0 l 1,18,19
 384 96 384 96 384 240 c 256,20,21
 384 384 l 1,22,23
 352 384 352 384 288 384 c 1,24,25
 288 288 288 288 288 0 c 1,26,27
 240 0 240 0 96 0 c 1,0,1
192 672 m 1,28,29
 192 696 192 696 192 768 c 1,30,31
 216 768 216 768 288 768 c 1,32,33
 288 720 l 256,34,35
 288 672 l 1,36,37
 352 672 352 672 480 672 c 1,38,39
 480 696 480 696 480 768 c 1,40,41
 504 768 504 768 576 768 c 1,42,43
 576 720 l 256,44,45
 576 672 l 257,46,47
 528 672 l 256,48,49
 480 672 l 257,50,51
 480 624 l 0,52,53
 480 576 l 1,54,55
 416 576 416 576 288 576 c 1,56,57
 288 600 288 600 288 672 c 1,58,59
 264 672 264 672 192 672 c 1,60,61
 192 648 192 648 192 576 c 1,62,63
 168 576 168 576 96 576 c 1,64,65
 96 600 96 600 96 672 c 1,66,67
 120 672 120 672 192 672 c 1,28,29
EndSplineSet
EndChar

StartChar: ograve
Encoding: 242 242 158
Width: 576
VWidth: 960
Flags: W
LayerCount: 2
Fore
SplineSet
192 384 m 1,0,1
 192 432 l 256,2,3
 192 480 l 1,4,5
 256 480 256 480 384 480 c 1,6,7
 384 456 384 456 384 384 c 1,8,9
 408 384 408 384 480 384 c 1,10,11
 480 312 480 312 480 96 c 1,12,13
 456 96 456 96 384 96 c 1,14,15
 384 192 l 0,16,17
 384 288 384 288 384 384 c 1,18,19
 360 384 l 256,20,21
 336 384 336 384 288 384 c 1,22,23
 288 288 288 288 288 96 c 1,24,25
 312 96 312 96 384 96 c 1,26,27
 384 48 l 256,28,29
 384 0 l 257,30,31
 312 0 l 256,32,33
 240 0 240 0 192 0 c 1,34,35
 192 48 l 256,36,37
 192 96 l 1,38,39
 160 96 160 96 96 96 c 1,40,41
 96 168 96 168 96 384 c 1,42,43
 120 384 120 384 192 384 c 1,0,1
288 768 m 1,44,45
 288 720 l 256,46,47
 288 672 l 257,48,49
 336 672 l 0,50,51
 384 672 l 257,52,53
 384 624 l 0,54,55
 384 576 l 257,56,57
 336 576 l 0,58,59
 288 576 l 1,60,61
 288 608 288 608 288 672 c 1,62,63
 264 672 264 672 192 672 c 1,64,65
 192 696 192 696 192 768 c 1,66,67
 216 768 216 768 288 768 c 1,44,45
EndSplineSet
EndChar

StartChar: oacute
Encoding: 243 243 159
Width: 576
VWidth: 960
Flags: W
LayerCount: 2
Fore
SplineSet
192 384 m 1,0,1
 192 432 l 256,2,3
 192 480 l 1,4,5
 256 480 256 480 384 480 c 1,6,7
 384 456 384 456 384 384 c 1,8,9
 408 384 408 384 480 384 c 1,10,11
 480 312 480 312 480 96 c 1,12,13
 456 96 456 96 384 96 c 1,14,15
 384 192 l 0,16,17
 384 288 384 288 384 384 c 1,18,19
 360 384 l 256,20,21
 336 384 336 384 288 384 c 1,22,23
 288 288 288 288 288 96 c 1,24,25
 312 96 312 96 384 96 c 1,26,27
 384 48 l 256,28,29
 384 0 l 257,30,31
 312 0 l 256,32,33
 240 0 240 0 192 0 c 1,34,35
 192 48 l 256,36,37
 192 96 l 1,38,39
 160 96 160 96 96 96 c 1,40,41
 96 168 96 168 96 384 c 1,42,43
 120 384 120 384 192 384 c 1,0,1
288 672 m 1,44,45
 288 720 l 256,46,47
 288 768 l 1,48,49
 320 768 320 768 384 768 c 1,50,51
 384 720 l 256,52,53
 384 672 l 257,54,55
 336 672 l 0,56,57
 288 672 l 1,58,59
 288 640 288 640 288 576 c 1,60,61
 264 576 264 576 192 576 c 1,62,63
 192 624 l 0,64,65
 192 672 l 1,66,67
 224 672 224 672 288 672 c 1,44,45
EndSplineSet
EndChar

StartChar: ocircumflex
Encoding: 244 244 160
Width: 576
VWidth: 960
Flags: W
LayerCount: 2
Fore
SplineSet
192 384 m 1,0,1
 192 432 l 256,2,3
 192 480 l 1,4,5
 256 480 256 480 384 480 c 1,6,7
 384 456 384 456 384 384 c 1,8,9
 408 384 408 384 480 384 c 1,10,11
 480 312 480 312 480 96 c 1,12,13
 456 96 456 96 384 96 c 1,14,15
 384 192 l 0,16,17
 384 288 384 288 384 384 c 1,18,19
 360 384 l 256,20,21
 336 384 336 384 288 384 c 1,22,23
 288 288 288 288 288 96 c 1,24,25
 312 96 312 96 384 96 c 1,26,27
 384 48 l 256,28,29
 384 0 l 257,30,31
 312 0 l 256,32,33
 240 0 240 0 192 0 c 1,34,35
 192 48 l 256,36,37
 192 96 l 1,38,39
 160 96 160 96 96 96 c 1,40,41
 96 168 96 168 96 384 c 1,42,43
 120 384 120 384 192 384 c 1,0,1
192 672 m 1,44,45
 192 696 192 696 192 768 c 1,46,47
 264 768 l 0,48,49
 336 768 336 768 384 768 c 1,50,51
 384 736 384 736 384 672 c 1,52,53
 408 672 408 672 480 672 c 1,54,55
 480 624 l 0,56,57
 480 576 l 257,58,59
 432 576 l 256,60,61
 384 576 l 1,62,63
 384 608 384 608 384 672 c 1,64,65
 336 672 336 672 192 672 c 1,66,67
 192 648 192 648 192 576 c 1,68,69
 144 576 l 0,70,71
 96 576 l 1,72,73
 96 608 96 608 96 672 c 1,74,75
 120 672 120 672 192 672 c 1,44,45
EndSplineSet
EndChar

StartChar: otilde
Encoding: 245 245 161
Width: 576
VWidth: 960
Flags: W
LayerCount: 2
Fore
SplineSet
192 384 m 1,0,1
 192 432 l 256,2,3
 192 480 l 1,4,5
 256 480 256 480 384 480 c 1,6,7
 384 456 384 456 384 384 c 1,8,9
 408 384 408 384 480 384 c 1,10,11
 480 312 480 312 480 96 c 1,12,13
 456 96 456 96 384 96 c 1,14,15
 384 192 l 0,16,17
 384 288 384 288 384 384 c 1,18,19
 360 384 l 256,20,21
 336 384 336 384 288 384 c 1,22,23
 288 288 288 288 288 96 c 1,24,25
 312 96 312 96 384 96 c 1,26,27
 384 48 l 256,28,29
 384 0 l 257,30,31
 312 0 l 256,32,33
 240 0 240 0 192 0 c 1,34,35
 192 48 l 256,36,37
 192 96 l 1,38,39
 160 96 160 96 96 96 c 1,40,41
 96 168 96 168 96 384 c 1,42,43
 120 384 120 384 192 384 c 1,0,1
192 672 m 1,44,45
 192 696 192 696 192 768 c 1,46,47
 216 768 216 768 288 768 c 1,48,49
 288 744 288 744 288 672 c 1,50,51
 336 672 336 672 480 672 c 1,52,53
 480 696 480 696 480 768 c 1,54,55
 504 768 504 768 576 768 c 1,56,57
 576 744 576 744 576 672 c 1,58,59
 528 672 l 256,60,61
 480 672 l 1,62,63
 480 640 480 640 480 576 c 1,64,65
 432 576 432 576 288 576 c 1,66,67
 288 624 l 0,68,69
 288 672 l 1,70,71
 256 672 256 672 192 672 c 1,72,73
 192 648 192 648 192 576 c 1,74,75
 144 576 l 0,76,77
 96 576 l 1,78,79
 96 608 96 608 96 672 c 1,80,81
 120 672 120 672 192 672 c 1,44,45
EndSplineSet
EndChar

StartChar: odieresis
Encoding: 246 246 162
Width: 576
VWidth: 960
Flags: W
LayerCount: 2
Fore
SplineSet
192 384 m 1,0,1
 192 432 l 256,2,3
 192 480 l 1,4,5
 256 480 256 480 384 480 c 1,6,7
 384 456 384 456 384 384 c 1,8,9
 408 384 408 384 480 384 c 1,10,11
 480 312 480 312 480 96 c 1,12,13
 456 96 456 96 384 96 c 1,14,15
 384 192 l 0,16,17
 384 288 384 288 384 384 c 1,18,19
 360 384 l 256,20,21
 336 384 336 384 288 384 c 1,22,23
 288 288 288 288 288 96 c 1,24,25
 312 96 312 96 384 96 c 1,26,27
 384 48 l 256,28,29
 384 0 l 257,30,31
 312 0 l 256,32,33
 240 0 240 0 192 0 c 1,34,35
 192 48 l 256,36,37
 192 96 l 1,38,39
 160 96 160 96 96 96 c 1,40,41
 96 168 96 168 96 384 c 1,42,43
 120 384 120 384 192 384 c 1,0,1
192 672 m 1,44,45
 192 648 192 648 192 576 c 1,46,47
 168 576 168 576 96 576 c 1,48,49
 96 624 l 0,50,51
 96 672 l 1,52,53
 128 672 128 672 192 672 c 1,44,45
480 672 m 1,54,55
 480 648 480 648 480 576 c 1,56,57
 432 576 l 256,58,59
 384 576 l 1,60,61
 384 608 384 608 384 672 c 1,62,63
 408 672 408 672 480 672 c 1,54,55
EndSplineSet
EndChar

StartChar: divide
Encoding: 247 247 163
Width: 576
VWidth: 960
Flags: W
LayerCount: 2
Fore
SplineSet
576 288 m 1,0,1
 576 264 576 264 576 192 c 1,2,3
 384 192 l 0,4,5
 192 192 192 192 96 192 c 1,6,7
 96 224 96 224 96 288 c 1,8,9
 216 288 216 288 576 288 c 1,0,1
384 480 m 1,10,11
 384 456 384 456 384 384 c 1,12,13
 360 384 360 384 288 384 c 1,14,15
 288 408 288 408 288 480 c 1,16,17
 312 480 312 480 384 480 c 1,10,11
384 96 m 1,18,19
 384 48 l 256,20,21
 384 0 l 1,22,23
 352 0 352 0 288 0 c 1,24,25
 288 48 l 256,26,27
 288 96 l 1,28,29
 320 96 320 96 384 96 c 1,18,19
EndSplineSet
EndChar

StartChar: oslash
Encoding: 248 248 164
Width: 576
VWidth: 960
Flags: W
LayerCount: 2
Fore
SplineSet
192 384 m 1,0,1
 192 432 l 256,2,3
 192 480 l 1,4,5
 256 480 256 480 384 480 c 1,6,7
 384 456 384 456 384 384 c 1,8,9
 408 384 408 384 480 384 c 1,10,11
 480 312 480 312 480 96 c 1,12,13
 456 96 456 96 384 96 c 1,14,15
 384 192 l 0,16,17
 384 288 384 288 384 384 c 1,18,19
 360 384 l 256,20,21
 336 384 336 384 288 384 c 1,22,23
 288 288 288 288 288 96 c 1,24,25
 312 96 312 96 384 96 c 1,26,27
 384 48 l 256,28,29
 384 0 l 257,30,31
 312 0 l 256,32,33
 240 0 240 0 192 0 c 1,34,35
 192 48 l 256,36,37
 192 96 l 1,38,39
 160 96 160 96 96 96 c 1,40,41
 96 168 96 168 96 384 c 1,42,43
 120 384 120 384 192 384 c 1,0,1
96 96 m 1,44,45
 72 96 72 96 0 96 c 1,46,47
 0 72 0 72 0 0 c 1,48,49
 48 0 l 256,50,51
 96 0 l 1,52,53
 96 32 96 32 96 96 c 1,44,45
576 480 m 1,54,55
 576 456 576 456 576 384 c 1,56,57
 552 384 552 384 480 384 c 1,58,59
 480 408 480 408 480 480 c 1,60,61
 504 480 504 480 576 480 c 1,54,55
384 288 m 1,62,63
 360 288 360 288 288 288 c 1,64,65
 288 240 l 256,66,67
 288 192 l 1,68,69
 320 192 320 192 384 192 c 1,70,71
 384 216 384 216 384 288 c 1,62,63
EndSplineSet
EndChar

StartChar: ugrave
Encoding: 249 249 165
Width: 576
VWidth: 960
Flags: W
LayerCount: 2
Fore
SplineSet
192 480 m 257,0,1
 192 336 l 0,2,3
 192 192 192 192 192 96 c 1,4,5
 216 96 l 0,6,7
 240 96 240 96 288 96 c 1,8,9
 288 224 288 224 288 480 c 1,10,11
 336 480 336 480 480 480 c 1,12,13
 480 360 480 360 480 0 c 1,14,15
 408 0 408 0 192 0 c 1,16,17
 192 48 l 256,18,19
 192 96 l 1,20,21
 160 96 160 96 96 96 c 1,22,23
 96 192 96 192 96 336 c 0,24,25
 96 480 l 257,26,27
 144 480 l 0,28,29
 192 480 l 257,0,1
288 768 m 1,30,31
 288 744 288 744 288 672 c 1,32,33
 312 672 312 672 384 672 c 1,34,35
 384 648 384 648 384 576 c 1,36,37
 336 576 l 0,38,39
 288 576 l 257,40,41
 288 624 l 0,42,43
 288 672 l 1,44,45
 256 672 256 672 192 672 c 1,46,47
 192 696 192 696 192 768 c 1,48,49
 216 768 216 768 288 768 c 1,30,31
EndSplineSet
EndChar

StartChar: uacute
Encoding: 250 250 166
Width: 576
VWidth: 960
Flags: W
LayerCount: 2
Fore
SplineSet
192 480 m 257,0,1
 192 336 l 0,2,3
 192 192 192 192 192 96 c 1,4,5
 216 96 l 0,6,7
 240 96 240 96 288 96 c 1,8,9
 288 224 288 224 288 480 c 1,10,11
 336 480 336 480 480 480 c 1,12,13
 480 360 480 360 480 0 c 1,14,15
 408 0 408 0 192 0 c 1,16,17
 192 48 l 256,18,19
 192 96 l 1,20,21
 160 96 160 96 96 96 c 1,22,23
 96 192 96 192 96 336 c 0,24,25
 96 480 l 257,26,27
 144 480 l 0,28,29
 192 480 l 257,0,1
288 672 m 1,30,31
 288 720 l 256,32,33
 288 768 l 1,34,35
 320 768 320 768 384 768 c 1,36,37
 384 744 384 744 384 672 c 1,38,39
 336 672 l 0,40,41
 288 672 l 1,42,43
 288 640 288 640 288 576 c 1,44,45
 240 576 l 256,46,47
 192 576 l 1,48,49
 192 608 192 608 192 672 c 1,50,51
 216 672 216 672 288 672 c 1,30,31
EndSplineSet
EndChar

StartChar: ucircumflex
Encoding: 251 251 167
Width: 576
VWidth: 960
Flags: W
LayerCount: 2
Fore
SplineSet
192 480 m 257,0,1
 192 336 l 0,2,3
 192 192 192 192 192 96 c 1,4,5
 216 96 l 0,6,7
 240 96 240 96 288 96 c 1,8,9
 288 224 288 224 288 480 c 1,10,11
 336 480 336 480 480 480 c 1,12,13
 480 360 480 360 480 0 c 1,14,15
 408 0 408 0 192 0 c 1,16,17
 192 48 l 256,18,19
 192 96 l 1,20,21
 160 96 160 96 96 96 c 1,22,23
 96 192 96 192 96 336 c 0,24,25
 96 480 l 257,26,27
 144 480 l 0,28,29
 192 480 l 257,0,1
192 672 m 1,30,31
 192 696 192 696 192 768 c 1,32,33
 240 768 240 768 384 768 c 1,34,35
 384 720 l 256,36,37
 384 672 l 1,38,39
 416 672 416 672 480 672 c 1,40,41
 480 624 l 0,42,43
 480 576 l 257,44,45
 432 576 l 256,46,47
 384 576 l 1,48,49
 384 608 384 608 384 672 c 1,50,51
 336 672 336 672 192 672 c 1,52,53
 192 648 192 648 192 576 c 1,54,55
 168 576 168 576 96 576 c 1,56,57
 96 600 96 600 96 672 c 1,58,59
 120 672 120 672 192 672 c 1,30,31
EndSplineSet
EndChar

StartChar: udieresis
Encoding: 252 252 168
Width: 576
VWidth: 960
Flags: W
LayerCount: 2
Fore
SplineSet
192 480 m 257,0,1
 192 336 l 0,2,3
 192 192 192 192 192 96 c 1,4,5
 216 96 l 0,6,7
 240 96 240 96 288 96 c 1,8,9
 288 224 288 224 288 480 c 1,10,11
 336 480 336 480 480 480 c 1,12,13
 480 360 480 360 480 0 c 1,14,15
 408 0 408 0 192 0 c 1,16,17
 192 48 l 256,18,19
 192 96 l 1,20,21
 160 96 160 96 96 96 c 1,22,23
 96 192 96 192 96 336 c 0,24,25
 96 480 l 257,26,27
 144 480 l 0,28,29
 192 480 l 257,0,1
192 672 m 1,30,31
 192 624 l 0,32,33
 192 576 l 1,34,35
 160 576 160 576 96 576 c 1,36,37
 96 624 l 0,38,39
 96 672 l 1,40,41
 128 672 128 672 192 672 c 1,30,31
480 672 m 1,42,43
 480 624 l 0,44,45
 480 576 l 257,46,47
 432 576 l 256,48,49
 384 576 l 257,50,51
 384 624 l 0,52,53
 384 672 l 1,54,55
 416 672 416 672 480 672 c 1,42,43
EndSplineSet
EndChar

StartChar: yacute
Encoding: 253 253 169
Width: 576
VWidth: 960
Flags: W
LayerCount: 2
Fore
SplineSet
192 480 m 1,0,1
 192 384 192 384 192 96 c 1,2,3
 216 96 l 0,4,5
 240 96 240 96 288 96 c 1,6,7
 288 240 l 256,8,9
 288 384 288 384 288 480 c 1,10,11
 352 480 352 480 480 480 c 1,12,13
 480 336 480 336 480 -96 c 1,14,15
 432 -96 l 256,16,17
 384 -96 l 1,18,19
 384 -128 384 -128 384 -192 c 1,20,21
 336 -192 336 -192 192 -192 c 1,22,23
 192 -168 192 -168 192 -96 c 1,24,25
 216 -96 216 -96 288 -96 c 1,26,27
 288 -48 l 256,28,29
 288 0 l 1,30,31
 256 0 256 0 192 0 c 1,32,33
 192 48 l 256,34,35
 192 96 l 1,36,37
 160 96 160 96 96 96 c 1,38,39
 96 192 96 192 96 480 c 1,40,41
 120 480 120 480 192 480 c 1,0,1
288 672 m 1,42,43
 288 696 288 696 288 768 c 1,44,45
 312 768 312 768 384 768 c 1,46,47
 384 744 384 744 384 672 c 1,48,49
 360 672 360 672 288 672 c 1,50,51
 288 648 288 648 288 576 c 1,52,53
 264 576 264 576 192 576 c 1,54,55
 192 600 192 600 192 672 c 1,56,57
 216 672 216 672 288 672 c 1,42,43
EndSplineSet
EndChar

StartChar: thorn
Encoding: 254 254 170
Width: 576
VWidth: 960
Flags: W
LayerCount: 2
Fore
SplineSet
192 576 m 1,0,1
 192 528 192 528 192 384 c 1,2,3
 240 384 240 384 384 384 c 1,4,5
 384 360 384 360 384 288 c 1,6,7
 336 288 336 288 192 288 c 1,8,9
 192 240 192 240 192 96 c 1,10,11
 240 96 240 96 384 96 c 1,12,13
 384 168 l 256,14,15
 384 240 384 240 384 288 c 1,16,17
 416 288 416 288 480 288 c 1,18,19
 480 240 480 240 480 96 c 1,20,21
 456 96 456 96 384 96 c 1,22,23
 384 72 384 72 384 0 c 1,24,25
 336 0 336 0 192 0 c 1,26,27
 192 -48 192 -48 192 -192 c 1,28,29
 144 -192 l 0,30,31
 96 -192 l 1,32,33
 96 -160 96 -160 96 -96 c 0,34,35
 96 72 96 72 96 576 c 1,36,37
 120 576 120 576 192 576 c 1,0,1
EndSplineSet
EndChar

StartChar: ydieresis
Encoding: 255 255 171
Width: 576
VWidth: 960
Flags: W
LayerCount: 2
Fore
SplineSet
192 480 m 1,0,1
 192 384 192 384 192 96 c 1,2,3
 216 96 l 0,4,5
 240 96 240 96 288 96 c 1,6,7
 288 240 l 256,8,9
 288 384 288 384 288 480 c 1,10,11
 352 480 352 480 480 480 c 1,12,13
 480 336 480 336 480 -96 c 1,14,15
 432 -96 l 256,16,17
 384 -96 l 1,18,19
 384 -128 384 -128 384 -192 c 1,20,21
 336 -192 336 -192 192 -192 c 1,22,23
 192 -168 192 -168 192 -96 c 1,24,25
 216 -96 216 -96 288 -96 c 1,26,27
 288 -48 l 256,28,29
 288 0 l 1,30,31
 256 0 256 0 192 0 c 1,32,33
 192 48 l 256,34,35
 192 96 l 1,36,37
 160 96 160 96 96 96 c 1,38,39
 96 192 96 192 96 480 c 1,40,41
 120 480 120 480 192 480 c 1,0,1
192 672 m 1,42,43
 192 648 192 648 192 576 c 1,44,45
 168 576 168 576 96 576 c 1,46,47
 96 624 l 0,48,49
 96 672 l 257,50,51
 144 672 l 0,52,53
 192 672 l 1,42,43
384 672 m 1,54,55
 408 672 408 672 480 672 c 1,56,57
 480 648 480 648 480 576 c 1,58,59
 456 576 456 576 384 576 c 1,60,61
 384 600 384 600 384 672 c 1,54,55
EndSplineSet
EndChar

StartChar: uni2010
Encoding: 8208 8208 172
Width: 576
VWidth: 960
Flags: W
LayerCount: 2
Fore
SplineSet
480 384 m 1,0,1
 480 336 l 0,2,3
 480 288 l 1,4,5
 384 288 384 288 192 288 c 1,6,7
 192 312 192 312 192 384 c 1,8,9
 264 384 264 384 480 384 c 1,0,1
EndSplineSet
EndChar

StartChar: uni2011
Encoding: 8209 8209 173
Width: 576
VWidth: 960
Flags: W
LayerCount: 2
Fore
SplineSet
480 384 m 1,0,1
 480 336 l 0,2,3
 480 288 l 1,4,5
 384 288 384 288 192 288 c 1,6,7
 192 312 192 312 192 384 c 1,8,9
 264 384 264 384 480 384 c 1,0,1
EndSplineSet
EndChar

StartChar: uni2012
Encoding: 8210 8210 174
Width: 576
VWidth: 960
Flags: W
LayerCount: 2
Fore
SplineSet
96 384 m 1,0,1
 216 384 216 384 576 384 c 1,2,3
 576 360 576 360 576 288 c 1,4,5
 456 288 456 288 96 288 c 1,6,7
 96 312 96 312 96 384 c 1,0,1
EndSplineSet
EndChar

StartChar: endash
Encoding: 8211 8211 175
Width: 576
VWidth: 960
Flags: W
LayerCount: 2
Fore
SplineSet
480 384 m 1,0,1
 480 360 480 360 480 288 c 1,2,3
 384 288 384 288 96 288 c 1,4,5
 96 312 96 312 96 384 c 1,6,7
 192 384 192 384 480 384 c 1,0,1
EndSplineSet
EndChar

StartChar: emdash
Encoding: 8212 8212 176
Width: 576
VWidth: 960
Flags: W
LayerCount: 2
Fore
SplineSet
96 384 m 1,0,1
 216 384 216 384 576 384 c 1,2,3
 576 360 576 360 576 288 c 1,4,5
 456 288 456 288 96 288 c 1,6,7
 96 312 96 312 96 384 c 1,0,1
EndSplineSet
EndChar

StartChar: quoteleft
Encoding: 8216 8216 177
Width: 576
VWidth: 960
Flags: W
LayerCount: 2
Fore
SplineSet
192 384 m 1,0,1
 192 432 192 432 192 576 c 1,2,3
 216 576 216 576 288 576 c 1,4,5
 288 600 288 600 288 672 c 1,6,7
 312 672 312 672 384 672 c 1,8,9
 384 624 l 0,10,11
 384 576 l 1,12,13
 352 576 352 576 288 576 c 1,14,15
 288 528 288 528 288 384 c 1,16,17
 264 384 264 384 192 384 c 1,0,1
EndSplineSet
EndChar

StartChar: quoteright
Encoding: 8217 8217 178
Width: 576
VWidth: 960
Flags: W
LayerCount: 2
Fore
SplineSet
384 672 m 1,0,1
 384 624 384 624 384 480 c 1,2,3
 360 480 360 480 288 480 c 1,4,5
 288 456 288 456 288 384 c 1,6,7
 240 384 240 384 96 384 c 1,8,9
 96 408 96 408 96 480 c 1,10,11
 120 480 120 480 192 480 c 1,12,13
 192 528 192 528 192 672 c 1,14,15
 240 672 240 672 384 672 c 1,0,1
EndSplineSet
EndChar

StartChar: quotesinglbase
Encoding: 8218 8218 179
Width: 576
VWidth: 960
Flags: W
LayerCount: 2
Fore
SplineSet
384 192 m 1,0,1
 384 120 l 256,2,3
 384 48 384 48 384 0 c 1,4,5
 336 0 l 0,6,7
 288 0 l 1,8,9
 288 -32 288 -32 288 -96 c 1,10,11
 264 -96 264 -96 192 -96 c 1,12,13
 192 -72 192 -72 192 0 c 1,14,15
 216 0 216 0 288 0 c 1,16,17
 288 72 l 256,18,19
 288 144 288 144 288 192 c 1,20,21
 320 192 320 192 384 192 c 1,0,1
EndSplineSet
EndChar

StartChar: uni201b
Encoding: 8219 8219 180
Width: 576
VWidth: 960
Flags: W
LayerCount: 2
Fore
SplineSet
288 672 m 1,0,1
 288 624 288 624 288 480 c 1,2,3
 336 480 l 0,4,5
 384 480 l 1,6,7
 384 448 384 448 384 384 c 1,8,9
 336 384 l 0,10,11
 288 384 l 1,12,13
 288 416 288 416 288 480 c 1,14,15
 264 480 264 480 192 480 c 1,16,17
 192 528 192 528 192 600 c 256,18,19
 192 672 l 257,20,21
 240 672 l 256,22,23
 288 672 l 1,0,1
EndSplineSet
EndChar

StartChar: quotedblleft
Encoding: 8220 8220 181
Width: 576
VWidth: 960
Flags: W
LayerCount: 2
Fore
SplineSet
96 384 m 1,0,1
 96 432 96 432 96 576 c 1,2,3
 120 576 120 576 192 576 c 1,4,5
 192 600 192 600 192 672 c 1,6,7
 216 672 216 672 288 672 c 1,8,9
 288 648 288 648 288 576 c 1,10,11
 264 576 264 576 192 576 c 1,12,13
 192 528 192 528 192 384 c 1,14,15
 168 384 168 384 96 384 c 1,0,1
480 576 m 1,16,17
 480 600 480 600 480 672 c 1,18,19
 504 672 504 672 576 672 c 1,20,21
 576 648 576 648 576 576 c 1,22,23
 552 576 552 576 480 576 c 1,24,25
 480 528 480 528 480 384 c 1,26,27
 432 384 l 256,28,29
 384 384 l 1,30,31
 384 448 384 448 384 576 c 1,32,33
 408 576 408 576 480 576 c 1,16,17
EndSplineSet
EndChar

StartChar: quotedblright
Encoding: 8221 8221 182
Width: 576
VWidth: 960
Flags: W
LayerCount: 2
Fore
SplineSet
288 672 m 1,0,1
 288 624 288 624 288 480 c 1,2,3
 264 480 264 480 192 480 c 1,4,5
 192 456 192 456 192 384 c 1,6,7
 168 384 168 384 96 384 c 1,8,9
 96 408 96 408 96 480 c 1,10,11
 120 480 120 480 192 480 c 1,12,13
 192 528 192 528 192 672 c 1,14,15
 216 672 216 672 288 672 c 1,0,1
576 672 m 1,16,17
 576 600 l 256,18,19
 576 528 576 528 576 480 c 1,20,21
 528 480 l 256,22,23
 480 480 l 1,24,25
 480 448 480 448 480 384 c 1,26,27
 456 384 456 384 384 384 c 1,28,29
 384 408 384 408 384 480 c 1,30,31
 408 480 408 480 480 480 c 1,32,33
 480 528 480 528 480 672 c 1,34,35
 504 672 504 672 576 672 c 1,16,17
EndSplineSet
EndChar

StartChar: quotedblbase
Encoding: 8222 8222 183
Width: 576
VWidth: 960
Flags: W
LayerCount: 2
Fore
SplineSet
288 192 m 1,0,1
 288 120 l 256,2,3
 288 48 288 48 288 0 c 1,4,5
 240 0 l 256,6,7
 192 0 l 1,8,9
 192 -32 192 -32 192 -96 c 1,10,11
 144 -96 l 0,12,13
 96 -96 l 1,14,15
 96 -64 96 -64 96 0 c 1,16,17
 120 0 120 0 192 0 c 1,18,19
 192 72 l 256,20,21
 192 144 192 144 192 192 c 1,22,23
 224 192 224 192 288 192 c 1,0,1
576 192 m 257,24,25
 576 120 l 256,26,27
 576 48 576 48 576 0 c 1,28,29
 528 0 l 256,30,31
 480 0 l 257,32,33
 480 -48 l 256,34,35
 480 -96 l 257,36,37
 432 -96 l 256,38,39
 384 -96 l 257,40,41
 384 -48 l 256,42,43
 384 0 l 1,44,45
 416 0 416 0 480 0 c 1,46,47
 480 48 480 48 480 120 c 256,48,49
 480 192 l 257,50,51
 528 192 l 256,52,53
 576 192 l 257,24,25
EndSplineSet
EndChar

StartChar: uni201f
Encoding: 8223 8223 184
Width: 576
VWidth: 960
Flags: W
LayerCount: 2
Fore
SplineSet
288 576 m 1,0,1
 264 576 264 576 192 576 c 1,2,3
 192 552 192 552 192 480 c 1,4,5
 240 480 l 256,6,7
 288 480 l 1,8,9
 288 448 288 448 288 384 c 1,10,11
 240 384 l 256,12,13
 192 384 l 257,14,15
 192 432 l 256,16,17
 192 480 l 1,18,19
 160 480 160 480 96 480 c 1,20,21
 96 528 96 528 96 672 c 1,22,23
 144 672 144 672 288 672 c 1,24,25
 288 648 288 648 288 576 c 1,0,1
576 672 m 1,26,27
 576 648 576 648 576 576 c 1,28,29
 528 576 l 256,30,31
 480 576 l 257,32,33
 480 528 l 256,34,35
 480 480 l 257,36,37
 528 480 l 256,38,39
 576 480 l 257,40,41
 576 432 l 256,42,43
 576 384 l 257,44,45
 528 384 l 256,46,47
 480 384 l 257,48,49
 480 432 l 256,50,51
 480 480 l 1,52,53
 448 480 448 480 384 480 c 1,54,55
 384 528 384 528 384 672 c 1,56,57
 432 672 432 672 576 672 c 1,26,27
EndSplineSet
EndChar

StartChar: bullet
Encoding: 8226 8226 185
Width: 576
VWidth: 960
Flags: W
LayerCount: 2
Fore
SplineSet
192 384 m 1,0,1
 192 408 192 408 192 480 c 1,2,3
 240 480 240 480 384 480 c 1,4,5
 384 456 384 456 384 384 c 1,6,7
 408 384 408 384 480 384 c 1,8,9
 480 336 480 336 480 264 c 0,10,11
 480 192 l 1,12,13
 448 192 448 192 384 192 c 1,14,15
 384 144 l 0,16,17
 384 96 l 1,18,19
 320 96 320 96 192 96 c 1,20,21
 192 144 l 0,22,23
 192 192 l 257,24,25
 144 192 l 0,26,27
 96 192 l 1,28,29
 96 256 96 256 96 384 c 1,30,31
 120 384 120 384 192 384 c 1,0,1
EndSplineSet
EndChar

StartChar: uni2023
Encoding: 8227 8227 186
Width: 576
VWidth: 960
Flags: W
LayerCount: 2
Fore
SplineSet
192 96 m 1,0,1
 192 216 192 216 192 576 c 1,2,3
 216 576 216 576 288 576 c 1,4,5
 288 552 288 552 288 480 c 1,6,7
 312 480 312 480 384 480 c 1,8,9
 384 456 384 456 384 384 c 1,10,11
 408 384 408 384 480 384 c 1,12,13
 480 360 480 360 480 288 c 1,14,15
 456 288 456 288 384 288 c 1,16,17
 384 240 l 256,18,19
 384 192 l 1,20,21
 352 192 352 192 288 192 c 1,22,23
 288 144 l 0,24,25
 288 96 l 1,26,27
 256 96 256 96 192 96 c 1,0,1
EndSplineSet
EndChar

StartChar: uni2024
Encoding: 8228 8228 187
Width: 576
VWidth: 960
Flags: W
LayerCount: 2
Fore
SplineSet
384 192 m 1,0,1
 384 120 l 256,2,3
 384 48 384 48 384 0 c 1,4,5
 312 0 l 256,6,7
 240 0 240 0 192 0 c 1,8,9
 192 64 192 64 192 192 c 1,10,11
 240 192 240 192 384 192 c 1,0,1
EndSplineSet
EndChar

StartChar: uni2025
Encoding: 8229 8229 188
Width: 576
VWidth: 960
Flags: W
LayerCount: 2
Fore
SplineSet
192 96 m 1,0,1
 216 96 216 96 288 96 c 1,2,3
 288 48 l 256,4,5
 288 0 l 257,6,7
 240 0 l 256,8,9
 192 0 l 1,10,11
 192 32 192 32 192 96 c 1,0,1
384 96 m 1,12,13
 408 96 408 96 480 96 c 1,14,15
 480 48 l 256,16,17
 480 0 l 1,18,19
 448 0 448 0 384 0 c 1,20,21
 384 24 384 24 384 96 c 1,12,13
EndSplineSet
EndChar

StartChar: ellipsis
Encoding: 8230 8230 189
Width: 576
VWidth: 960
Flags: W
LayerCount: 2
Fore
SplineSet
96 96 m 1,0,1
 120 96 120 96 192 96 c 1,2,3
 192 72 192 72 192 0 c 1,4,5
 168 0 168 0 96 0 c 1,6,7
 96 24 96 24 96 96 c 1,0,1
288 96 m 1,8,9
 312 96 312 96 384 96 c 1,10,11
 384 72 384 72 384 0 c 1,12,13
 360 0 360 0 288 0 c 1,14,15
 288 24 288 24 288 96 c 1,8,9
480 96 m 1,16,17
 504 96 504 96 576 96 c 1,18,19
 576 72 576 72 576 0 c 1,20,21
 552 0 552 0 480 0 c 1,22,23
 480 24 480 24 480 96 c 1,16,17
EndSplineSet
EndChar

StartChar: uni20ac
Encoding: 8364 8364 190
Width: 576
VWidth: 960
Flags: W
LayerCount: 2
Fore
SplineSet
576 576 m 1,0,1
 480 576 480 576 384 576 c 0,2,3
 288 576 l 257,4,5
 288 528 l 256,6,7
 288 480 l 1,8,9
 256 480 256 480 192 480 c 1,10,11
 192 432 l 256,12,13
 192 384 l 1,14,15
 160 384 160 384 96 384 c 1,16,17
 96 312 96 312 96 96 c 1,18,19
 120 96 120 96 192 96 c 1,20,21
 192 48 l 256,22,23
 192 0 l 1,24,25
 224 0 224 0 288 0 c 1,26,27
 288 -48 l 256,28,29
 288 -96 l 1,30,31
 384 -96 384 -96 576 -96 c 1,32,33
 576 -48 l 256,34,35
 576 0 l 1,36,37
 480 0 480 0 384 0 c 0,38,39
 288 0 l 1,40,41
 288 32 288 32 288 96 c 1,42,43
 336 96 336 96 408 96 c 256,44,45
 480 96 l 257,46,47
 480 144 l 0,48,49
 480 192 l 1,50,51
 416 192 416 192 288 192 c 1,52,53
 288 216 288 216 288 288 c 1,54,55
 336 288 336 288 408 288 c 256,56,57
 480 288 l 257,58,59
 480 336 l 0,60,61
 480 384 l 1,62,63
 416 384 416 384 288 384 c 1,64,65
 288 408 288 408 288 480 c 1,66,67
 360 480 360 480 576 480 c 1,68,69
 576 504 576 504 576 576 c 1,70,71
 576 576 l 1,0,1
EndSplineSet
EndChar

StartChar: uni2500
Encoding: 9472 9472 191
Width: 576
VWidth: 960
Flags: W
LayerCount: 2
Fore
SplineSet
576 384 m 1,0,1
 576 336 l 0,2,3
 576 288 l 1,4,5
 384 288 384 288 0 288 c 1,6,7
 0 336 l 0,8,9
 0 384 l 257,10,11
 216 384 l 0,12,13
 432 384 432 384 576 384 c 1,0,1
EndSplineSet
EndChar

StartChar: uni2501
Encoding: 9473 9473 192
Width: 576
VWidth: 960
Flags: W
LayerCount: 2
Fore
SplineSet
576 384 m 1,0,1
 576 336 576 336 576 192 c 1,2,3
 432 192 432 192 0 192 c 1,4,5
 0 240 0 240 0 384 c 1,6,7
 144 384 144 384 576 384 c 1,0,1
EndSplineSet
EndChar

StartChar: uni2502
Encoding: 9474 9474 193
Width: 576
VWidth: 960
Flags: W
LayerCount: 2
Fore
SplineSet
384 768 m 1,0,1
 384 528 384 528 384 -192 c 1,2,3
 360 -192 360 -192 288 -192 c 1,4,5
 288 48 288 48 288 768 c 1,6,7
 312 768 312 768 384 768 c 1,0,1
EndSplineSet
EndChar

StartChar: uni2503
Encoding: 9475 9475 194
Width: 576
VWidth: 960
Flags: W
LayerCount: 2
Fore
SplineSet
384 768 m 1,0,1
 384 528 384 528 384 -192 c 1,2,3
 336 -192 336 -192 192 -192 c 1,4,5
 192 48 192 48 192 768 c 1,6,7
 240 768 240 768 384 768 c 1,0,1
EndSplineSet
EndChar

StartChar: uni2504
Encoding: 9476 9476 195
Width: 576
VWidth: 960
Flags: W
LayerCount: 2
Fore
SplineSet
192 384 m 1,0,1
 192 336 l 0,2,3
 192 288 l 257,4,5
 120 288 l 256,6,7
 48 288 48 288 0 288 c 1,8,9
 0 320 0 320 0 384 c 1,10,11
 48 384 48 384 192 384 c 1,0,1
480 384 m 1,12,13
 480 336 l 0,14,15
 480 288 l 257,16,17
 408 288 l 256,18,19
 336 288 336 288 288 288 c 1,20,21
 288 320 288 320 288 384 c 1,22,23
 336 384 336 384 480 384 c 1,12,13
EndSplineSet
EndChar

StartChar: uni2505
Encoding: 9477 9477 196
Width: 576
VWidth: 960
Flags: W
LayerCount: 2
Fore
SplineSet
192 384 m 1,0,1
 192 336 192 336 192 192 c 1,2,3
 120 192 l 256,4,5
 48 192 48 192 0 192 c 1,6,7
 0 264 l 0,8,9
 0 336 0 336 0 384 c 1,10,11
 64 384 64 384 192 384 c 1,0,1
480 384 m 1,12,13
 480 312 l 256,14,15
 480 240 480 240 480 192 c 1,16,17
 416 192 416 192 288 192 c 1,18,19
 288 240 288 240 288 384 c 1,20,21
 336 384 336 384 480 384 c 1,12,13
EndSplineSet
EndChar

StartChar: uni2506
Encoding: 9478 9478 197
Width: 576
VWidth: 960
Flags: W
LayerCount: 2
Fore
SplineSet
288 576 m 257,0,1
 288 648 l 256,2,3
 288 720 288 720 288 768 c 1,4,5
 320 768 320 768 384 768 c 1,6,7
 384 720 384 720 384 576 c 1,8,9
 336 576 l 0,10,11
 288 576 l 257,0,1
384 480 m 1,12,13
 384 408 384 408 384 192 c 1,14,15
 336 192 l 0,16,17
 288 192 l 1,18,19
 288 288 288 288 288 480 c 1,20,21
 312 480 312 480 384 480 c 1,12,13
384 96 m 1,22,23
 384 48 384 48 384 -96 c 1,24,25
 360 -96 360 -96 288 -96 c 1,26,27
 288 -48 288 -48 288 96 c 1,28,29
 312 96 312 96 384 96 c 1,22,23
EndSplineSet
EndChar

StartChar: uni2507
Encoding: 9479 9479 198
Width: 576
VWidth: 960
Flags: W
LayerCount: 2
Fore
SplineSet
384 768 m 1,0,1
 384 720 384 720 384 576 c 1,2,3
 336 576 336 576 192 576 c 1,4,5
 192 624 192 624 192 768 c 1,6,7
 240 768 240 768 384 768 c 1,0,1
384 480 m 1,8,9
 384 384 l 0,10,11
 384 288 384 288 384 192 c 1,12,13
 312 192 l 256,14,15
 240 192 240 192 192 192 c 1,16,17
 192 288 192 288 192 480 c 1,18,19
 240 480 240 480 384 480 c 1,8,9
384 96 m 1,20,21
 384 24 l 0,22,23
 384 -48 384 -48 384 -96 c 1,24,25
 312 -96 l 256,26,27
 240 -96 240 -96 192 -96 c 1,28,29
 192 -32 192 -32 192 96 c 1,30,31
 240 96 240 96 384 96 c 1,20,21
EndSplineSet
EndChar

StartChar: uni2508
Encoding: 9480 9480 199
Width: 576
VWidth: 960
Flags: W
LayerCount: 2
Fore
SplineSet
96 384 m 1,0,1
 96 336 l 0,2,3
 96 288 l 257,4,5
 48 288 l 256,6,7
 0 288 l 1,8,9
 0 320 0 320 0 384 c 1,10,11
 24 384 24 384 96 384 c 1,0,1
192 288 m 1,12,13
 192 312 192 312 192 384 c 1,14,15
 216 384 216 384 288 384 c 1,16,17
 288 336 l 0,18,19
 288 288 l 1,20,21
 256 288 256 288 192 288 c 1,12,13
384 288 m 1,22,23
 384 312 384 312 384 384 c 1,24,25
 408 384 408 384 480 384 c 1,26,27
 480 360 480 360 480 288 c 1,28,29
 456 288 456 288 384 288 c 1,22,23
EndSplineSet
EndChar

StartChar: uni2509
Encoding: 9481 9481 200
Width: 576
VWidth: 960
Flags: W
LayerCount: 2
Fore
SplineSet
96 384 m 1,0,1
 96 336 96 336 96 192 c 1,2,3
 48 192 l 256,4,5
 0 192 l 1,6,7
 0 256 0 256 0 384 c 1,8,9
 24 384 24 384 96 384 c 1,0,1
288 384 m 1,10,11
 288 336 288 336 288 192 c 1,12,13
 240 192 l 256,14,15
 192 192 l 1,16,17
 192 256 192 256 192 384 c 1,18,19
 216 384 216 384 288 384 c 1,10,11
480 384 m 1,20,21
 480 312 l 256,22,23
 480 240 480 240 480 192 c 1,24,25
 432 192 l 256,26,27
 384 192 l 257,28,29
 384 264 l 0,30,31
 384 336 384 336 384 384 c 1,32,33
 416 384 416 384 480 384 c 1,20,21
EndSplineSet
EndChar

StartChar: uni250a
Encoding: 9482 9482 201
Width: 576
VWidth: 960
Flags: W
LayerCount: 2
Fore
SplineSet
384 768 m 1,0,1
 384 720 l 256,2,3
 384 672 l 257,4,5
 336 672 l 0,6,7
 288 672 l 1,8,9
 288 704 288 704 288 768 c 1,10,11
 312 768 312 768 384 768 c 1,0,1
384 576 m 1,12,13
 384 528 l 256,14,15
 384 480 l 257,16,17
 336 480 l 0,18,19
 288 480 l 1,20,21
 288 512 288 512 288 576 c 1,22,23
 312 576 312 576 384 576 c 1,12,13
384 384 m 257,24,25
 384 336 l 0,26,27
 384 288 l 257,28,29
 336 288 l 0,30,31
 288 288 l 257,32,33
 288 336 l 0,34,35
 288 384 l 257,36,37
 336 384 l 0,38,39
 384 384 l 257,24,25
384 192 m 1,40,41
 384 144 l 0,42,43
 384 96 l 257,44,45
 336 96 l 0,46,47
 288 96 l 257,48,49
 288 144 l 0,50,51
 288 192 l 1,52,53
 320 192 320 192 384 192 c 1,40,41
384 0 m 1,54,55
 384 -48 l 256,56,57
 384 -96 l 257,58,59
 336 -96 l 0,60,61
 288 -96 l 257,62,63
 288 -48 l 256,64,65
 288 0 l 1,66,67
 320 0 320 0 384 0 c 1,54,55
EndSplineSet
EndChar

StartChar: uni250b
Encoding: 9483 9483 202
Width: 576
VWidth: 960
Flags: W
LayerCount: 2
Fore
SplineSet
384 768 m 1,0,1
 384 744 384 744 384 672 c 1,2,3
 336 672 336 672 192 672 c 1,4,5
 192 696 192 696 192 768 c 1,6,7
 240 768 240 768 384 768 c 1,0,1
384 576 m 1,8,9
 384 528 l 256,10,11
 384 480 l 1,12,13
 320 480 320 480 192 480 c 1,14,15
 192 528 l 256,16,17
 192 576 l 1,18,19
 256 576 256 576 384 576 c 1,8,9
384 384 m 1,20,21
 384 360 384 360 384 288 c 1,22,23
 336 288 336 288 192 288 c 1,24,25
 192 336 l 0,26,27
 192 384 l 257,28,29
 264 384 l 0,30,31
 336 384 336 384 384 384 c 1,20,21
384 192 m 1,32,33
 384 168 384 168 384 96 c 1,34,35
 312 96 l 256,36,37
 240 96 240 96 192 96 c 1,38,39
 192 128 192 128 192 192 c 1,40,41
 240 192 240 192 384 192 c 1,32,33
384 0 m 1,42,43
 384 -48 l 256,44,45
 384 -96 l 1,46,47
 320 -96 320 -96 192 -96 c 1,48,49
 192 -48 l 256,50,51
 192 0 l 1,52,53
 256 0 256 0 384 0 c 1,42,43
EndSplineSet
EndChar

StartChar: uni250c
Encoding: 9484 9484 203
Width: 576
VWidth: 960
Flags: W
LayerCount: 2
Fore
SplineSet
576 288 m 1,0,1
 504 288 l 0,2,3
 432 288 432 288 384 288 c 1,4,5
 384 128 384 128 384 -192 c 1,6,7
 336 -192 l 0,8,9
 288 -192 l 257,10,11
 288 24 l 0,12,13
 288 240 288 240 288 384 c 1,14,15
 384 384 384 384 576 384 c 1,16,17
 576 360 576 360 576 288 c 1,0,1
EndSplineSet
EndChar

StartChar: uni250d
Encoding: 9485 9485 204
Width: 576
VWidth: 960
Flags: W
LayerCount: 2
Fore
SplineSet
576 192 m 1,0,1
 528 192 528 192 384 192 c 1,2,3
 384 96 384 96 384 -192 c 1,4,5
 360 -192 360 -192 288 -192 c 1,6,7
 288 24 l 0,8,9
 288 240 288 240 288 384 c 1,10,11
 384 384 l 0,12,13
 480 384 480 384 576 384 c 1,14,15
 576 320 576 320 576 192 c 1,0,1
EndSplineSet
EndChar

StartChar: uni250e
Encoding: 9486 9486 205
Width: 576
VWidth: 960
Flags: W
LayerCount: 2
Fore
SplineSet
576 288 m 1,0,1
 504 288 l 0,2,3
 432 288 432 288 384 288 c 1,4,5
 384 96 l 0,6,7
 384 -96 384 -96 384 -192 c 1,8,9
 320 -192 320 -192 192 -192 c 1,10,11
 192 24 l 0,12,13
 192 240 192 240 192 384 c 1,14,15
 336 384 l 0,16,17
 480 384 480 384 576 384 c 1,18,19
 576 352 576 352 576 288 c 1,0,1
EndSplineSet
EndChar

StartChar: uni250f
Encoding: 9487 9487 206
Width: 576
VWidth: 960
Flags: W
LayerCount: 2
Fore
SplineSet
576 192 m 1,0,1
 528 192 528 192 384 192 c 1,2,3
 384 96 384 96 384 -192 c 1,4,5
 336 -192 336 -192 192 -192 c 1,6,7
 192 24 l 0,8,9
 192 240 192 240 192 384 c 1,10,11
 320 384 320 384 576 384 c 1,12,13
 576 336 576 336 576 192 c 1,0,1
EndSplineSet
EndChar

StartChar: uni2510
Encoding: 9488 9488 207
Width: 576
VWidth: 960
Flags: W
LayerCount: 2
Fore
SplineSet
0 384 m 1,0,1
 96 384 96 384 384 384 c 1,2,3
 384 240 384 240 384 24 c 0,4,5
 384 -192 l 257,6,7
 336 -192 l 0,8,9
 288 -192 l 1,10,11
 288 -96 288 -96 288 96 c 0,12,13
 288 288 l 1,14,15
 192 288 192 288 96 288 c 0,16,17
 0 288 l 1,18,19
 0 320 0 320 0 384 c 1,0,1
EndSplineSet
EndChar

StartChar: uni2511
Encoding: 9489 9489 208
Width: 576
VWidth: 960
Flags: W
LayerCount: 2
Fore
SplineSet
0 384 m 1,0,1
 96 384 96 384 384 384 c 1,2,3
 384 240 384 240 384 24 c 0,4,5
 384 -192 l 257,6,7
 336 -192 l 0,8,9
 288 -192 l 1,10,11
 288 -96 288 -96 288 48 c 0,12,13
 288 192 l 1,14,15
 192 192 192 192 96 192 c 0,16,17
 0 192 l 1,18,19
 0 256 0 256 0 384 c 1,0,1
EndSplineSet
EndChar

StartChar: uni2512
Encoding: 9490 9490 209
Width: 576
VWidth: 960
Flags: W
LayerCount: 2
Fore
SplineSet
0 384 m 1,0,1
 96 384 96 384 384 384 c 1,2,3
 384 240 384 240 384 -192 c 1,4,5
 336 -192 336 -192 264 -192 c 0,6,7
 192 -192 l 1,8,9
 192 -96 192 -96 192 96 c 0,10,11
 192 288 l 1,12,13
 144 288 144 288 72 288 c 256,14,15
 0 288 l 1,16,17
 0 320 0 320 0 384 c 1,0,1
EndSplineSet
EndChar

StartChar: uni2513
Encoding: 9491 9491 210
Width: 576
VWidth: 960
Flags: W
LayerCount: 2
Fore
SplineSet
0 384 m 1,0,1
 96 384 96 384 384 384 c 1,2,3
 384 240 384 240 384 24 c 0,4,5
 384 -192 l 1,6,7
 320 -192 320 -192 192 -192 c 1,8,9
 192 -96 192 -96 192 192 c 1,10,11
 144 192 144 192 0 192 c 1,12,13
 0 240 0 240 0 384 c 1,0,1
EndSplineSet
EndChar

StartChar: uni2514
Encoding: 9492 9492 211
Width: 576
VWidth: 960
Flags: W
LayerCount: 2
Fore
SplineSet
384 768 m 1,0,1
 384 672 384 672 384 384 c 1,2,3
 456 384 l 0,4,5
 528 384 528 384 576 384 c 1,6,7
 576 336 l 0,8,9
 576 288 l 1,10,11
 480 288 480 288 288 288 c 1,12,13
 288 408 288 408 288 768 c 1,14,15
 312 768 312 768 384 768 c 1,0,1
EndSplineSet
EndChar

StartChar: uni2515
Encoding: 9493 9493 212
Width: 576
VWidth: 960
Flags: W
LayerCount: 2
Fore
SplineSet
384 768 m 1,0,1
 384 624 l 0,2,3
 384 480 384 480 384 384 c 1,4,5
 456 384 l 0,6,7
 528 384 528 384 576 384 c 1,8,9
 576 320 576 320 576 192 c 1,10,11
 480 192 l 256,12,13
 384 192 384 192 288 192 c 1,14,15
 288 384 288 384 288 768 c 1,16,17
 312 768 312 768 384 768 c 1,0,1
EndSplineSet
EndChar

StartChar: uni2516
Encoding: 9494 9494 213
Width: 576
VWidth: 960
Flags: W
LayerCount: 2
Fore
SplineSet
384 768 m 1,0,1
 384 672 384 672 384 384 c 1,2,3
 456 384 l 0,4,5
 528 384 528 384 576 384 c 1,6,7
 576 352 576 352 576 288 c 1,8,9
 480 288 480 288 192 288 c 1,10,11
 192 408 192 408 192 768 c 1,12,13
 240 768 240 768 384 768 c 1,0,1
EndSplineSet
EndChar

StartChar: uni2517
Encoding: 9495 9495 214
Width: 576
VWidth: 960
Flags: W
LayerCount: 2
Fore
SplineSet
384 768 m 1,0,1
 384 672 384 672 384 384 c 1,2,3
 456 384 l 0,4,5
 528 384 528 384 576 384 c 1,6,7
 576 312 l 256,8,9
 576 240 576 240 576 192 c 1,10,11
 432 192 l 0,12,13
 288 192 288 192 192 192 c 1,14,15
 192 384 192 384 192 768 c 1,16,17
 240 768 240 768 384 768 c 1,0,1
EndSplineSet
EndChar

StartChar: uni2518
Encoding: 9496 9496 215
Width: 576
VWidth: 960
Flags: W
LayerCount: 2
Fore
SplineSet
384 768 m 1,0,1
 384 648 384 648 384 288 c 1,2,3
 240 288 l 256,4,5
 96 288 96 288 0 288 c 1,6,7
 0 336 l 0,8,9
 0 384 l 257,10,11
 96 384 l 0,12,13
 192 384 192 384 288 384 c 1,14,15
 288 512 288 512 288 768 c 1,16,17
 312 768 312 768 384 768 c 1,0,1
EndSplineSet
EndChar

StartChar: uni2519
Encoding: 9497 9497 216
Width: 576
VWidth: 960
Flags: W
LayerCount: 2
Fore
SplineSet
384 768 m 1,0,1
 384 624 384 624 384 192 c 1,2,3
 240 192 l 256,4,5
 96 192 96 192 0 192 c 1,6,7
 0 256 0 256 0 384 c 1,8,9
 72 384 72 384 288 384 c 1,10,11
 288 528 l 0,12,13
 288 672 288 672 288 768 c 1,14,15
 320 768 320 768 384 768 c 1,0,1
EndSplineSet
EndChar

StartChar: uni251a
Encoding: 9498 9498 217
Width: 576
VWidth: 960
Flags: W
LayerCount: 2
Fore
SplineSet
384 768 m 1,0,1
 384 576 l 0,2,3
 384 384 384 384 384 288 c 1,4,5
 256 288 256 288 0 288 c 1,6,7
 0 336 l 0,8,9
 0 384 l 1,10,11
 64 384 64 384 192 384 c 1,12,13
 192 480 192 480 192 768 c 1,14,15
 240 768 240 768 384 768 c 1,0,1
EndSplineSet
EndChar

StartChar: uni251b
Encoding: 9499 9499 218
Width: 576
VWidth: 960
Flags: W
LayerCount: 2
Fore
SplineSet
384 768 m 1,0,1
 384 624 384 624 384 192 c 1,2,3
 240 192 l 256,4,5
 96 192 96 192 0 192 c 1,6,7
 0 264 l 0,8,9
 0 336 0 336 0 384 c 1,10,11
 64 384 64 384 192 384 c 1,12,13
 192 480 192 480 192 624 c 0,14,15
 192 768 l 257,16,17
 264 768 l 0,18,19
 336 768 336 768 384 768 c 1,0,1
EndSplineSet
EndChar

StartChar: uni251c
Encoding: 9500 9500 219
Width: 576
VWidth: 960
Flags: W
LayerCount: 2
Fore
SplineSet
384 768 m 1,0,1
 384 672 384 672 384 384 c 1,2,3
 432 384 432 384 576 384 c 1,4,5
 576 336 l 0,6,7
 576 288 l 1,8,9
 512 288 512 288 384 288 c 1,10,11
 384 96 l 0,12,13
 384 -96 384 -96 384 -192 c 1,14,15
 352 -192 352 -192 288 -192 c 1,16,17
 288 48 288 48 288 768 c 1,18,19
 312 768 312 768 384 768 c 1,0,1
EndSplineSet
EndChar

StartChar: uni251d
Encoding: 9501 9501 220
Width: 576
VWidth: 960
Flags: W
LayerCount: 2
Fore
SplineSet
384 768 m 1,0,1
 384 672 384 672 384 384 c 1,2,3
 432 384 432 384 576 384 c 1,4,5
 576 312 l 256,6,7
 576 240 576 240 576 192 c 1,8,9
 504 192 l 0,10,11
 432 192 432 192 384 192 c 1,12,13
 384 64 384 64 384 -192 c 1,14,15
 360 -192 360 -192 288 -192 c 1,16,17
 288 48 288 48 288 768 c 1,18,19
 312 768 312 768 384 768 c 1,0,1
EndSplineSet
EndChar

StartChar: uni251e
Encoding: 9502 9502 221
Width: 576
VWidth: 960
Flags: W
LayerCount: 2
Fore
SplineSet
384 768 m 1,0,1
 384 672 384 672 384 384 c 1,2,3
 432 384 432 384 576 384 c 1,4,5
 576 336 l 0,6,7
 576 288 l 1,8,9
 512 288 512 288 384 288 c 1,10,11
 384 168 384 168 384 -192 c 1,12,13
 336 -192 l 0,14,15
 288 -192 l 257,16,17
 288 0 l 256,18,19
 288 192 288 192 288 288 c 1,20,21
 256 288 256 288 192 288 c 1,22,23
 192 408 192 408 192 768 c 1,24,25
 240 768 240 768 384 768 c 1,0,1
EndSplineSet
EndChar

StartChar: uni251f
Encoding: 9503 9503 222
Width: 576
VWidth: 960
Flags: W
LayerCount: 2
Fore
SplineSet
384 768 m 1,0,1
 384 672 384 672 384 384 c 1,2,3
 432 384 432 384 576 384 c 1,4,5
 576 360 576 360 576 288 c 1,6,7
 528 288 528 288 384 288 c 1,8,9
 384 168 384 168 384 -192 c 1,10,11
 336 -192 336 -192 192 -192 c 1,12,13
 192 -48 192 -48 192 384 c 1,14,15
 216 384 216 384 288 384 c 1,16,17
 288 480 288 480 288 768 c 1,18,19
 312 768 312 768 384 768 c 1,0,1
EndSplineSet
EndChar

StartChar: uni2520
Encoding: 9504 9504 223
Width: 576
VWidth: 960
Flags: W
LayerCount: 2
Fore
SplineSet
384 768 m 1,0,1
 384 672 384 672 384 384 c 1,2,3
 432 384 432 384 576 384 c 1,4,5
 576 336 l 0,6,7
 576 288 l 257,8,9
 504 288 l 0,10,11
 432 288 432 288 384 288 c 1,12,13
 384 128 384 128 384 -192 c 1,14,15
 336 -192 336 -192 192 -192 c 1,16,17
 192 168 l 256,18,19
 192 528 192 528 192 768 c 1,20,21
 256 768 256 768 384 768 c 1,0,1
EndSplineSet
EndChar

StartChar: uni2521
Encoding: 9505 9505 224
Width: 576
VWidth: 960
Flags: W
LayerCount: 2
Fore
SplineSet
384 768 m 1,0,1
 384 672 384 672 384 384 c 1,2,3
 456 384 l 0,4,5
 528 384 528 384 576 384 c 1,6,7
 576 320 576 320 576 192 c 1,8,9
 504 192 l 0,10,11
 432 192 432 192 384 192 c 1,12,13
 384 64 384 64 384 -192 c 1,14,15
 360 -192 360 -192 288 -192 c 1,16,17
 288 -96 288 -96 288 192 c 1,18,19
 264 192 264 192 192 192 c 1,20,21
 192 336 192 336 192 768 c 1,22,23
 240 768 240 768 384 768 c 1,0,1
EndSplineSet
EndChar

StartChar: uni2522
Encoding: 9506 9506 225
Width: 576
VWidth: 960
Flags: W
LayerCount: 2
Fore
SplineSet
384 768 m 1,0,1
 384 672 384 672 384 384 c 1,2,3
 456 384 l 0,4,5
 528 384 528 384 576 384 c 1,6,7
 576 320 576 320 576 192 c 1,8,9
 504 192 l 0,10,11
 432 192 432 192 384 192 c 1,12,13
 384 48 l 0,14,15
 384 -96 384 -96 384 -192 c 1,16,17
 312 -192 l 256,18,19
 240 -192 240 -192 192 -192 c 1,20,21
 192 24 l 0,22,23
 192 240 192 240 192 384 c 1,24,25
 224 384 224 384 288 384 c 1,26,27
 288 480 288 480 288 768 c 1,28,29
 312 768 312 768 384 768 c 1,0,1
EndSplineSet
EndChar

StartChar: uni2523
Encoding: 9507 9507 226
Width: 576
VWidth: 960
Flags: W
LayerCount: 2
Fore
SplineSet
384 768 m 1,0,1
 384 624 l 0,2,3
 384 480 384 480 384 384 c 1,4,5
 448 384 448 384 576 384 c 1,6,7
 576 336 576 336 576 192 c 1,8,9
 528 192 528 192 384 192 c 1,10,11
 384 96 384 96 384 -192 c 1,12,13
 336 -192 336 -192 192 -192 c 1,14,15
 192 288 l 256,16,17
 192 768 l 257,18,19
 264 768 l 0,20,21
 336 768 336 768 384 768 c 1,0,1
EndSplineSet
EndChar

StartChar: uni2524
Encoding: 9508 9508 227
Width: 576
VWidth: 960
Flags: W
LayerCount: 2
Fore
SplineSet
384 768 m 1,0,1
 384 408 l 256,2,3
 384 48 384 48 384 -192 c 1,4,5
 336 -192 l 0,6,7
 288 -192 l 1,8,9
 288 -32 288 -32 288 288 c 1,10,11
 216 288 216 288 0 288 c 1,12,13
 0 336 l 0,14,15
 0 384 l 1,16,17
 96 384 96 384 288 384 c 1,18,19
 288 480 288 480 288 768 c 1,20,21
 312 768 312 768 384 768 c 1,0,1
EndSplineSet
EndChar

StartChar: uni2525
Encoding: 9509 9509 228
Width: 576
VWidth: 960
Flags: W
LayerCount: 2
Fore
SplineSet
384 768 m 1,0,1
 384 408 l 256,2,3
 384 48 384 48 384 -192 c 1,4,5
 352 -192 352 -192 288 -192 c 1,6,7
 288 -96 288 -96 288 192 c 1,8,9
 216 192 216 192 0 192 c 1,10,11
 0 240 0 240 0 384 c 1,12,13
 72 384 72 384 288 384 c 1,14,15
 288 480 288 480 288 768 c 1,16,17
 312 768 312 768 384 768 c 1,0,1
EndSplineSet
EndChar

StartChar: uni2526
Encoding: 9510 9510 229
Width: 576
VWidth: 960
Flags: W
LayerCount: 2
Fore
SplineSet
480 768 m 1,0,1
 480 648 480 648 480 288 c 1,2,3
 432 288 l 256,4,5
 384 288 l 1,6,7
 384 128 384 128 384 -192 c 1,8,9
 360 -192 360 -192 288 -192 c 1,10,11
 288 0 l 256,12,13
 288 192 288 192 288 288 c 1,14,15
 192 288 192 288 0 288 c 1,16,17
 0 336 l 0,18,19
 0 384 l 1,20,21
 96 384 96 384 288 384 c 1,22,23
 288 480 288 480 288 768 c 1,24,25
 336 768 336 768 480 768 c 1,0,1
EndSplineSet
EndChar

StartChar: uni2527
Encoding: 9511 9511 230
Width: 576
VWidth: 960
Flags: W
LayerCount: 2
Fore
SplineSet
384 768 m 1,0,1
 384 528 384 528 384 -192 c 1,2,3
 336 -192 336 -192 192 -192 c 1,4,5
 192 -72 192 -72 192 288 c 1,6,7
 144 288 144 288 0 288 c 1,8,9
 0 336 l 0,10,11
 0 384 l 1,12,13
 96 384 96 384 288 384 c 1,14,15
 288 480 288 480 288 768 c 1,16,17
 312 768 312 768 384 768 c 1,0,1
EndSplineSet
EndChar

StartChar: uni2528
Encoding: 9512 9512 231
Width: 576
VWidth: 960
Flags: W
LayerCount: 2
Fore
SplineSet
384 768 m 1,0,1
 384 408 l 256,2,3
 384 48 384 48 384 -192 c 1,4,5
 320 -192 320 -192 192 -192 c 1,6,7
 192 -72 192 -72 192 288 c 1,8,9
 144 288 144 288 0 288 c 1,10,11
 0 312 0 312 0 384 c 1,12,13
 48 384 48 384 192 384 c 1,14,15
 192 480 192 480 192 768 c 1,16,17
 240 768 240 768 384 768 c 1,0,1
EndSplineSet
EndChar

StartChar: uni2529
Encoding: 9513 9513 232
Width: 576
VWidth: 960
Flags: W
LayerCount: 2
Fore
SplineSet
384 768 m 1,0,1
 384 408 l 256,2,3
 384 48 384 48 384 -192 c 1,4,5
 336 -192 l 0,6,7
 288 -192 l 257,8,9
 288 -48 l 0,10,11
 288 96 288 96 288 192 c 1,12,13
 192 192 192 192 0 192 c 1,14,15
 0 240 0 240 0 384 c 1,16,17
 48 384 48 384 192 384 c 1,18,19
 192 480 192 480 192 768 c 1,20,21
 240 768 240 768 384 768 c 1,0,1
EndSplineSet
EndChar

StartChar: uni252a
Encoding: 9514 9514 233
Width: 576
VWidth: 960
Flags: W
LayerCount: 2
Fore
SplineSet
384 768 m 1,0,1
 384 528 384 528 384 -192 c 1,2,3
 336 -192 336 -192 192 -192 c 1,4,5
 192 -96 192 -96 192 192 c 1,6,7
 144 192 144 192 0 192 c 1,8,9
 0 240 0 240 0 384 c 1,10,11
 72 384 72 384 288 384 c 1,12,13
 288 480 288 480 288 768 c 1,14,15
 312 768 312 768 384 768 c 1,0,1
EndSplineSet
EndChar

StartChar: uni252b
Encoding: 9515 9515 234
Width: 576
VWidth: 960
Flags: W
LayerCount: 2
Fore
SplineSet
384 768 m 1,0,1
 384 528 384 528 384 -192 c 1,2,3
 336 -192 336 -192 192 -192 c 1,4,5
 192 -48 l 0,6,7
 192 96 192 96 192 192 c 1,8,9
 128 192 128 192 0 192 c 1,10,11
 0 240 0 240 0 384 c 1,12,13
 48 384 48 384 192 384 c 1,14,15
 192 528 l 0,16,17
 192 672 192 672 192 768 c 1,18,19
 256 768 256 768 384 768 c 1,0,1
EndSplineSet
EndChar

StartChar: uni252c
Encoding: 9516 9516 235
Width: 576
VWidth: 960
Flags: W
LayerCount: 2
Fore
SplineSet
0 384 m 1,0,1
 144 384 144 384 576 384 c 1,2,3
 576 360 576 360 576 288 c 1,4,5
 528 288 528 288 384 288 c 1,6,7
 384 168 384 168 384 -192 c 1,8,9
 336 -192 l 0,10,11
 288 -192 l 1,12,13
 288 -96 288 -96 288 96 c 0,14,15
 288 288 l 1,16,17
 192 288 192 288 96 288 c 0,18,19
 0 288 l 1,20,21
 0 320 0 320 0 384 c 1,0,1
EndSplineSet
EndChar

StartChar: uni252d
Encoding: 9517 9517 236
Width: 576
VWidth: 960
Flags: W
LayerCount: 2
Fore
SplineSet
0 384 m 1,0,1
 144 384 144 384 576 384 c 1,2,3
 576 360 576 360 576 288 c 1,4,5
 528 288 528 288 384 288 c 1,6,7
 384 168 384 168 384 -192 c 1,8,9
 336 -192 l 0,10,11
 288 -192 l 1,12,13
 288 -96 288 -96 288 48 c 0,14,15
 288 192 l 1,16,17
 192 192 192 192 96 192 c 0,18,19
 0 192 l 1,20,21
 0 256 0 256 0 384 c 1,0,1
EndSplineSet
EndChar

StartChar: uni252e
Encoding: 9518 9518 237
Width: 576
VWidth: 960
Flags: W
LayerCount: 2
Fore
SplineSet
0 384 m 1,0,1
 144 384 144 384 576 384 c 1,2,3
 576 336 576 336 576 192 c 1,4,5
 528 192 528 192 384 192 c 1,6,7
 384 96 384 96 384 -192 c 1,8,9
 336 -192 l 0,10,11
 288 -192 l 1,12,13
 288 -96 288 -96 288 96 c 0,14,15
 288 288 l 1,16,17
 192 288 192 288 0 288 c 1,18,19
 0 312 0 312 0 384 c 1,0,1
EndSplineSet
EndChar

StartChar: uni252f
Encoding: 9519 9519 238
Width: 576
VWidth: 960
Flags: W
LayerCount: 2
Fore
SplineSet
0 384 m 1,0,1
 144 384 144 384 576 384 c 1,2,3
 576 336 576 336 576 264 c 0,4,5
 576 192 l 1,6,7
 512 192 512 192 384 192 c 1,8,9
 384 96 384 96 384 -48 c 0,10,11
 384 -192 l 257,12,13
 336 -192 l 0,14,15
 288 -192 l 1,16,17
 288 -96 288 -96 288 48 c 0,18,19
 288 192 l 1,20,21
 192 192 192 192 0 192 c 1,22,23
 0 240 0 240 0 384 c 1,0,1
EndSplineSet
EndChar

StartChar: uni2530
Encoding: 9520 9520 239
Width: 576
VWidth: 960
Flags: W
LayerCount: 2
Fore
SplineSet
576 288 m 1,0,1
 504 288 l 0,2,3
 432 288 432 288 384 288 c 1,4,5
 384 96 l 0,6,7
 384 -96 384 -96 384 -192 c 1,8,9
 312 -192 l 256,10,11
 240 -192 240 -192 192 -192 c 1,12,13
 192 -32 192 -32 192 288 c 1,14,15
 144 288 144 288 0 288 c 1,16,17
 0 312 0 312 0 384 c 1,18,19
 144 384 144 384 576 384 c 1,20,21
 576 360 576 360 576 288 c 1,0,1
EndSplineSet
EndChar

StartChar: uni2531
Encoding: 9521 9521 240
Width: 576
VWidth: 960
Flags: W
LayerCount: 2
Fore
SplineSet
0 384 m 1,0,1
 144 384 144 384 576 384 c 1,2,3
 576 360 576 360 576 288 c 1,4,5
 528 288 528 288 384 288 c 1,6,7
 384 192 384 192 384 0 c 256,8,9
 384 -192 l 1,10,11
 336 -192 336 -192 264 -192 c 0,12,13
 192 -192 l 1,14,15
 192 -96 192 -96 192 48 c 0,16,17
 192 192 l 1,18,19
 144 192 144 192 72 192 c 256,20,21
 0 192 l 1,22,23
 0 256 0 256 0 384 c 1,0,1
EndSplineSet
EndChar

StartChar: uni2532
Encoding: 9522 9522 241
Width: 576
VWidth: 960
Flags: W
LayerCount: 2
Fore
SplineSet
0 384 m 1,0,1
 144 384 144 384 576 384 c 1,2,3
 576 336 576 336 576 264 c 0,4,5
 576 192 l 1,6,7
 512 192 512 192 384 192 c 1,8,9
 384 96 384 96 384 -48 c 0,10,11
 384 -192 l 1,12,13
 320 -192 320 -192 192 -192 c 1,14,15
 192 -72 192 -72 192 288 c 1,16,17
 144 288 144 288 72 288 c 256,18,19
 0 288 l 1,20,21
 0 320 0 320 0 384 c 1,0,1
EndSplineSet
EndChar

StartChar: uni2533
Encoding: 9523 9523 242
Width: 576
VWidth: 960
Flags: W
LayerCount: 2
Fore
SplineSet
0 384 m 1,0,1
 144 384 144 384 576 384 c 1,2,3
 576 336 576 336 576 192 c 1,4,5
 528 192 528 192 384 192 c 1,6,7
 384 96 384 96 384 -192 c 1,8,9
 336 -192 336 -192 264 -192 c 0,10,11
 192 -192 l 1,12,13
 192 -96 192 -96 192 48 c 0,14,15
 192 192 l 1,16,17
 144 192 144 192 72 192 c 256,18,19
 0 192 l 1,20,21
 0 256 0 256 0 384 c 1,0,1
EndSplineSet
EndChar

StartChar: uni2534
Encoding: 9524 9524 243
Width: 576
VWidth: 960
Flags: W
LayerCount: 2
Fore
SplineSet
384 768 m 1,0,1
 384 624 l 0,2,3
 384 480 384 480 384 384 c 1,4,5
 456 384 l 0,6,7
 528 384 528 384 576 384 c 1,8,9
 576 336 l 0,10,11
 576 288 l 257,12,13
 360 288 l 256,14,15
 144 288 144 288 0 288 c 1,16,17
 0 320 0 320 0 384 c 1,18,19
 72 384 72 384 288 384 c 1,20,21
 288 480 288 480 288 768 c 1,22,23
 312 768 312 768 384 768 c 1,0,1
EndSplineSet
EndChar

StartChar: uni2535
Encoding: 9525 9525 244
Width: 576
VWidth: 960
Flags: W
LayerCount: 2
Fore
SplineSet
384 768 m 1,0,1
 384 672 384 672 384 384 c 1,2,3
 456 384 l 0,4,5
 528 384 528 384 576 384 c 1,6,7
 576 336 l 0,8,9
 576 288 l 1,10,11
 512 288 512 288 384 288 c 1,12,13
 384 264 384 264 384 192 c 1,14,15
 288 192 288 192 0 192 c 1,16,17
 0 240 0 240 0 384 c 1,18,19
 96 384 l 0,20,21
 192 384 192 384 288 384 c 1,22,23
 288 528 l 0,24,25
 288 672 288 672 288 768 c 1,26,27
 320 768 320 768 384 768 c 1,0,1
EndSplineSet
EndChar

StartChar: uni2536
Encoding: 9526 9526 245
Width: 576
VWidth: 960
Flags: W
LayerCount: 2
Fore
SplineSet
384 768 m 1,0,1
 384 624 l 0,2,3
 384 480 384 480 384 384 c 1,4,5
 448 384 448 384 576 384 c 1,6,7
 576 336 576 336 576 192 c 1,8,9
 504 192 504 192 288 192 c 1,10,11
 288 216 288 216 288 288 c 1,12,13
 216 288 216 288 0 288 c 1,14,15
 0 312 0 312 0 384 c 1,16,17
 96 384 l 0,18,19
 192 384 192 384 288 384 c 1,20,21
 288 512 288 512 288 768 c 1,22,23
 312 768 312 768 384 768 c 1,0,1
EndSplineSet
EndChar

StartChar: uni2537
Encoding: 9527 9527 246
Width: 576
VWidth: 960
Flags: W
LayerCount: 2
Fore
SplineSet
384 768 m 1,0,1
 384 624 l 0,2,3
 384 480 384 480 384 384 c 1,4,5
 456 384 l 0,6,7
 528 384 528 384 576 384 c 1,8,9
 576 312 l 256,10,11
 576 240 576 240 576 192 c 1,12,13
 360 192 l 256,14,15
 144 192 144 192 0 192 c 1,16,17
 0 256 0 256 0 384 c 1,18,19
 72 384 72 384 288 384 c 1,20,21
 288 528 l 0,22,23
 288 672 288 672 288 768 c 1,24,25
 320 768 320 768 384 768 c 1,0,1
EndSplineSet
EndChar

StartChar: uni2538
Encoding: 9528 9528 247
Width: 576
VWidth: 960
Flags: W
LayerCount: 2
Fore
SplineSet
384 768 m 1,0,1
 384 672 384 672 384 384 c 1,2,3
 456 384 l 0,4,5
 528 384 528 384 576 384 c 1,6,7
 576 336 l 0,8,9
 576 288 l 257,10,11
 360 288 l 256,12,13
 144 288 144 288 0 288 c 1,14,15
 0 336 l 0,16,17
 0 384 l 1,18,19
 64 384 64 384 192 384 c 1,20,21
 192 480 192 480 192 768 c 1,22,23
 240 768 240 768 384 768 c 1,0,1
EndSplineSet
EndChar

StartChar: uni2539
Encoding: 9529 9529 248
Width: 576
VWidth: 960
Flags: W
LayerCount: 2
Fore
SplineSet
384 768 m 1,0,1
 384 624 l 0,2,3
 384 480 384 480 384 384 c 1,4,5
 456 384 l 0,6,7
 528 384 528 384 576 384 c 1,8,9
 576 352 576 352 576 288 c 1,10,11
 504 288 l 0,12,13
 432 288 432 288 384 288 c 1,14,15
 384 240 l 256,16,17
 384 192 l 257,18,19
 240 192 l 256,20,21
 96 192 96 192 0 192 c 1,22,23
 0 256 0 256 0 384 c 1,24,25
 48 384 48 384 192 384 c 1,26,27
 192 480 192 480 192 768 c 1,28,29
 240 768 240 768 384 768 c 1,0,1
EndSplineSet
EndChar

StartChar: uni253a
Encoding: 9530 9530 249
Width: 576
VWidth: 960
Flags: W
LayerCount: 2
Fore
SplineSet
384 768 m 1,0,1
 384 624 l 0,2,3
 384 480 384 480 384 384 c 1,4,5
 456 384 l 0,6,7
 528 384 528 384 576 384 c 1,8,9
 576 312 l 256,10,11
 576 240 576 240 576 192 c 1,12,13
 432 192 l 0,14,15
 288 192 288 192 192 192 c 1,16,17
 192 224 192 224 192 288 c 1,18,19
 144 288 144 288 0 288 c 1,20,21
 0 336 l 0,22,23
 0 384 l 1,24,25
 64 384 64 384 192 384 c 1,26,27
 192 528 l 0,28,29
 192 672 192 672 192 768 c 1,30,31
 256 768 256 768 384 768 c 1,0,1
EndSplineSet
EndChar

StartChar: uni253b
Encoding: 9531 9531 250
Width: 576
VWidth: 960
Flags: W
LayerCount: 2
Fore
SplineSet
384 768 m 1,0,1
 384 624 l 0,2,3
 384 480 384 480 384 384 c 1,4,5
 456 384 l 0,6,7
 528 384 528 384 576 384 c 1,8,9
 576 312 l 256,10,11
 576 240 576 240 576 192 c 1,12,13
 360 192 l 256,14,15
 144 192 144 192 0 192 c 1,16,17
 0 264 l 0,18,19
 0 336 0 336 0 384 c 1,20,21
 64 384 64 384 192 384 c 1,22,23
 192 528 l 0,24,25
 192 672 192 672 192 768 c 1,26,27
 256 768 256 768 384 768 c 1,0,1
EndSplineSet
EndChar

StartChar: uni253c
Encoding: 9532 9532 251
Width: 576
VWidth: 960
Flags: W
LayerCount: 2
Fore
SplineSet
384 768 m 257,0,1
 384 624 l 0,2,3
 384 480 384 480 384 384 c 1,4,5
 456 384 l 0,6,7
 528 384 528 384 576 384 c 1,8,9
 576 352 576 352 576 288 c 1,10,11
 504 288 l 0,12,13
 432 288 432 288 384 288 c 1,14,15
 384 96 l 0,16,17
 384 -96 384 -96 384 -192 c 1,18,19
 336 -192 l 0,20,21
 288 -192 l 257,22,23
 288 0 l 256,24,25
 288 192 288 192 288 288 c 1,26,27
 192 288 192 288 0 288 c 1,28,29
 0 336 l 0,30,31
 0 384 l 1,32,33
 96 384 96 384 288 384 c 1,34,35
 288 576 l 0,36,37
 288 768 l 257,38,39
 336 768 l 0,40,41
 384 768 l 257,0,1
EndSplineSet
EndChar

StartChar: uni253d
Encoding: 9533 9533 252
Width: 576
VWidth: 960
Flags: W
LayerCount: 2
Fore
SplineSet
384 768 m 1,0,1
 384 624 l 0,2,3
 384 480 384 480 384 384 c 1,4,5
 456 384 l 0,6,7
 528 384 528 384 576 384 c 1,8,9
 576 336 l 0,10,11
 576 288 l 257,12,13
 504 288 l 0,14,15
 432 288 432 288 384 288 c 1,16,17
 384 96 l 0,18,19
 384 -96 384 -96 384 -192 c 1,20,21
 336 -192 l 0,22,23
 288 -192 l 1,24,25
 288 -64 288 -64 288 192 c 1,26,27
 216 192 216 192 0 192 c 1,28,29
 0 264 l 0,30,31
 0 336 0 336 0 384 c 1,32,33
 96 384 96 384 288 384 c 1,34,35
 288 480 288 480 288 768 c 1,36,37
 312 768 312 768 384 768 c 1,0,1
EndSplineSet
EndChar

StartChar: uni253e
Encoding: 9534 9534 253
Width: 576
VWidth: 960
Flags: W
LayerCount: 2
Fore
SplineSet
384 768 m 1,0,1
 384 624 l 0,2,3
 384 480 384 480 384 384 c 1,4,5
 456 384 l 0,6,7
 528 384 528 384 576 384 c 1,8,9
 576 312 l 256,10,11
 576 240 576 240 576 192 c 1,12,13
 504 192 l 0,14,15
 432 192 432 192 384 192 c 1,16,17
 384 48 l 0,18,19
 384 -96 384 -96 384 -192 c 1,20,21
 336 -192 l 0,22,23
 288 -192 l 1,24,25
 288 -32 288 -32 288 288 c 1,26,27
 192 288 l 0,28,29
 96 288 96 288 0 288 c 1,30,31
 0 336 l 0,32,33
 0 384 l 1,34,35
 96 384 96 384 288 384 c 1,36,37
 288 480 288 480 288 768 c 1,38,39
 312 768 312 768 384 768 c 1,0,1
EndSplineSet
EndChar

StartChar: uni253f
Encoding: 9535 9535 254
Width: 576
VWidth: 960
Flags: W
LayerCount: 2
Fore
SplineSet
384 768 m 1,0,1
 384 624 l 0,2,3
 384 480 384 480 384 384 c 1,4,5
 456 384 l 0,6,7
 528 384 528 384 576 384 c 1,8,9
 576 312 l 256,10,11
 576 240 576 240 576 192 c 1,12,13
 504 192 l 0,14,15
 432 192 432 192 384 192 c 1,16,17
 384 64 384 64 384 -192 c 1,18,19
 336 -192 l 0,20,21
 288 -192 l 257,22,23
 288 -48 l 0,24,25
 288 96 288 96 288 192 c 1,26,27
 192 192 l 0,28,29
 96 192 96 192 0 192 c 1,30,31
 0 264 l 0,32,33
 0 336 0 336 0 384 c 1,34,35
 96 384 96 384 288 384 c 1,36,37
 288 528 l 0,38,39
 288 672 288 672 288 768 c 1,40,41
 320 768 320 768 384 768 c 1,0,1
EndSplineSet
EndChar

StartChar: uni2540
Encoding: 9536 9536 255
Width: 576
VWidth: 960
Flags: W
LayerCount: 2
Fore
SplineSet
384 768 m 1,0,1
 384 672 384 672 384 384 c 1,2,3
 456 384 l 0,4,5
 528 384 528 384 576 384 c 1,6,7
 576 352 576 352 576 288 c 1,8,9
 504 288 l 0,10,11
 432 288 432 288 384 288 c 1,12,13
 384 96 l 0,14,15
 384 -96 384 -96 384 -192 c 1,16,17
 336 -192 l 0,18,19
 288 -192 l 1,20,21
 288 -32 288 -32 288 288 c 1,22,23
 216 288 216 288 0 288 c 1,24,25
 0 312 0 312 0 384 c 1,26,27
 48 384 48 384 192 384 c 1,28,29
 192 528 l 0,30,31
 192 672 192 672 192 768 c 1,32,33
 256 768 256 768 384 768 c 1,0,1
EndSplineSet
EndChar

StartChar: uni2541
Encoding: 9537 9537 256
Width: 576
VWidth: 960
Flags: W
LayerCount: 2
Fore
SplineSet
384 768 m 1,0,1
 384 672 384 672 384 384 c 1,2,3
 432 384 432 384 576 384 c 1,4,5
 576 336 l 0,6,7
 576 288 l 257,8,9
 504 288 l 0,10,11
 432 288 432 288 384 288 c 1,12,13
 384 96 l 0,14,15
 384 -96 384 -96 384 -192 c 1,16,17
 312 -192 l 256,18,19
 240 -192 240 -192 192 -192 c 1,20,21
 192 0 l 256,22,23
 192 192 192 192 192 288 c 1,24,25
 128 288 128 288 0 288 c 1,26,27
 0 312 0 312 0 384 c 1,28,29
 72 384 72 384 288 384 c 1,30,31
 288 480 288 480 288 768 c 1,32,33
 312 768 312 768 384 768 c 1,0,1
EndSplineSet
EndChar

StartChar: uni2542
Encoding: 9538 9538 257
Width: 576
VWidth: 960
Flags: W
LayerCount: 2
Fore
SplineSet
384 768 m 1,0,1
 384 624 l 0,2,3
 384 480 384 480 384 384 c 1,4,5
 456 384 l 0,6,7
 528 384 528 384 576 384 c 1,8,9
 576 336 l 0,10,11
 576 288 l 257,12,13
 504 288 l 0,14,15
 432 288 432 288 384 288 c 1,16,17
 384 96 l 0,18,19
 384 -96 384 -96 384 -192 c 1,20,21
 312 -192 l 256,22,23
 240 -192 240 -192 192 -192 c 1,24,25
 192 -32 192 -32 192 288 c 1,26,27
 144 288 144 288 0 288 c 1,28,29
 0 336 l 0,30,31
 0 384 l 1,32,33
 64 384 64 384 192 384 c 1,34,35
 192 528 l 0,36,37
 192 672 192 672 192 768 c 1,38,39
 256 768 256 768 384 768 c 1,0,1
EndSplineSet
EndChar

StartChar: uni2543
Encoding: 9539 9539 258
Width: 576
VWidth: 960
Flags: W
LayerCount: 2
Fore
SplineSet
384 768 m 1,0,1
 384 672 384 672 384 384 c 1,2,3
 456 384 l 0,4,5
 528 384 528 384 576 384 c 1,6,7
 576 336 l 0,8,9
 576 288 l 257,10,11
 504 288 l 0,12,13
 432 288 432 288 384 288 c 1,14,15
 384 96 l 0,16,17
 384 -96 384 -96 384 -192 c 1,18,19
 336 -192 l 0,20,21
 288 -192 l 1,22,23
 288 -64 288 -64 288 192 c 1,24,25
 216 192 216 192 0 192 c 1,26,27
 0 240 0 240 0 384 c 1,28,29
 48 384 48 384 192 384 c 1,30,31
 192 480 192 480 192 768 c 1,32,33
 240 768 240 768 384 768 c 1,0,1
EndSplineSet
EndChar

StartChar: uni2544
Encoding: 9540 9540 259
Width: 576
VWidth: 960
Flags: W
LayerCount: 2
Fore
SplineSet
384 768 m 1,0,1
 384 624 l 0,2,3
 384 480 384 480 384 384 c 1,4,5
 456 384 l 0,6,7
 528 384 528 384 576 384 c 1,8,9
 576 320 576 320 576 192 c 1,10,11
 528 192 528 192 384 192 c 1,12,13
 384 48 l 0,14,15
 384 -96 384 -96 384 -192 c 1,16,17
 352 -192 352 -192 288 -192 c 1,18,19
 288 -72 288 -72 288 288 c 1,20,21
 264 288 264 288 192 288 c 0,22,23
 144 288 144 288 0 288 c 1,24,25
 0 312 0 312 0 384 c 1,26,27
 48 384 48 384 192 384 c 1,28,29
 192 528 l 0,30,31
 192 672 192 672 192 768 c 1,32,33
 256 768 256 768 384 768 c 1,0,1
EndSplineSet
EndChar

StartChar: uni2545
Encoding: 9541 9541 260
Width: 576
VWidth: 960
Flags: W
LayerCount: 2
Fore
SplineSet
384 768 m 1,0,1
 384 672 384 672 384 384 c 1,2,3
 456 384 l 0,4,5
 528 384 528 384 576 384 c 1,6,7
 576 336 l 0,8,9
 576 288 l 257,10,11
 504 288 l 0,12,13
 432 288 432 288 384 288 c 1,14,15
 384 128 384 128 384 -192 c 1,16,17
 336 -192 336 -192 192 -192 c 1,18,19
 192 -96 192 -96 192 192 c 1,20,21
 144 192 144 192 0 192 c 1,22,23
 0 240 0 240 0 384 c 1,24,25
 72 384 72 384 288 384 c 1,26,27
 288 480 288 480 288 768 c 1,28,29
 312 768 312 768 384 768 c 1,0,1
EndSplineSet
EndChar

StartChar: uni2546
Encoding: 9542 9542 261
Width: 576
VWidth: 960
Flags: W
LayerCount: 2
Fore
SplineSet
384 768 m 1,0,1
 384 672 384 672 384 384 c 1,2,3
 456 384 l 0,4,5
 528 384 528 384 576 384 c 1,6,7
 576 312 l 256,8,9
 576 240 576 240 576 192 c 1,10,11
 504 192 l 0,12,13
 432 192 432 192 384 192 c 1,14,15
 384 64 384 64 384 -192 c 1,16,17
 336 -192 336 -192 192 -192 c 1,18,19
 192 -72 192 -72 192 288 c 1,20,21
 144 288 144 288 0 288 c 1,22,23
 0 312 0 312 0 384 c 1,24,25
 96 384 l 0,26,27
 192 384 192 384 288 384 c 1,28,29
 288 512 288 512 288 768 c 1,30,31
 312 768 312 768 384 768 c 1,0,1
EndSplineSet
EndChar

StartChar: uni2547
Encoding: 9543 9543 262
Width: 576
VWidth: 960
Flags: W
LayerCount: 2
Fore
SplineSet
384 768 m 1,0,1
 384 624 l 0,2,3
 384 480 384 480 384 384 c 1,4,5
 456 384 l 0,6,7
 528 384 528 384 576 384 c 1,8,9
 576 312 l 256,10,11
 576 240 576 240 576 192 c 1,12,13
 504 192 l 0,14,15
 432 192 432 192 384 192 c 1,16,17
 384 64 384 64 384 -192 c 1,18,19
 360 -192 360 -192 288 -192 c 1,20,21
 288 -48 l 0,22,23
 288 96 288 96 288 192 c 1,24,25
 192 192 192 192 0 192 c 1,26,27
 0 240 0 240 0 384 c 1,28,29
 48 384 48 384 192 384 c 1,30,31
 192 480 192 480 192 768 c 1,32,33
 240 768 240 768 384 768 c 1,0,1
EndSplineSet
EndChar

StartChar: uni2548
Encoding: 9544 9544 263
Width: 576
VWidth: 960
Flags: W
LayerCount: 2
Fore
SplineSet
384 768 m 1,0,1
 384 624 l 0,2,3
 384 480 384 480 384 384 c 1,4,5
 456 384 l 0,6,7
 528 384 528 384 576 384 c 1,8,9
 576 312 l 256,10,11
 576 240 576 240 576 192 c 1,12,13
 504 192 l 0,14,15
 432 192 432 192 384 192 c 1,16,17
 384 64 384 64 384 -192 c 1,18,19
 336 -192 336 -192 192 -192 c 1,20,21
 192 -96 192 -96 192 192 c 1,22,23
 120 192 l 256,24,25
 48 192 48 192 0 192 c 1,26,27
 0 256 0 256 0 384 c 1,28,29
 72 384 72 384 288 384 c 1,30,31
 288 480 288 480 288 768 c 1,32,33
 312 768 312 768 384 768 c 1,0,1
EndSplineSet
EndChar

StartChar: uni2549
Encoding: 9545 9545 264
Width: 576
VWidth: 960
Flags: W
LayerCount: 2
Fore
SplineSet
384 768 m 1,0,1
 384 672 384 672 384 384 c 1,2,3
 456 384 l 0,4,5
 528 384 528 384 576 384 c 1,6,7
 576 336 l 0,8,9
 576 288 l 257,10,11
 504 288 l 0,12,13
 432 288 432 288 384 288 c 1,14,15
 384 128 384 128 384 -192 c 1,16,17
 312 -192 l 256,18,19
 240 -192 240 -192 192 -192 c 1,20,21
 192 -64 192 -64 192 192 c 1,22,23
 144 192 144 192 0 192 c 1,24,25
 0 264 l 0,26,27
 0 336 0 336 0 384 c 1,28,29
 64 384 64 384 192 384 c 1,30,31
 192 480 192 480 192 768 c 1,32,33
 240 768 240 768 384 768 c 1,0,1
EndSplineSet
EndChar

StartChar: uni254a
Encoding: 9546 9546 265
Width: 576
VWidth: 960
Flags: W
LayerCount: 2
Fore
SplineSet
384 768 m 1,0,1
 384 624 l 0,2,3
 384 480 384 480 384 384 c 1,4,5
 448 384 448 384 576 384 c 1,6,7
 576 336 576 336 576 192 c 1,8,9
 504 192 l 0,10,11
 432 192 432 192 384 192 c 1,12,13
 384 64 384 64 384 -192 c 1,14,15
 312 -192 l 256,16,17
 240 -192 240 -192 192 -192 c 1,18,19
 192 -32 192 -32 192 288 c 1,20,21
 144 288 144 288 0 288 c 1,22,23
 0 336 l 0,24,25
 0 384 l 1,26,27
 64 384 64 384 192 384 c 1,28,29
 192 528 l 0,30,31
 192 672 192 672 192 768 c 1,32,33
 256 768 256 768 384 768 c 1,0,1
EndSplineSet
EndChar

StartChar: uni254b
Encoding: 9547 9547 266
Width: 576
VWidth: 960
Flags: W
LayerCount: 2
Fore
SplineSet
384 768 m 1,0,1
 384 672 384 672 384 384 c 1,2,3
 432 384 432 384 576 384 c 1,4,5
 576 312 l 256,6,7
 576 240 576 240 576 192 c 1,8,9
 512 192 512 192 384 192 c 1,10,11
 384 48 l 0,12,13
 384 -96 384 -96 384 -192 c 1,14,15
 320 -192 320 -192 192 -192 c 1,16,17
 192 -96 192 -96 192 192 c 1,18,19
 144 192 144 192 0 192 c 1,20,21
 0 240 0 240 0 384 c 1,22,23
 48 384 48 384 192 384 c 1,24,25
 192 528 l 0,26,27
 192 672 192 672 192 768 c 1,28,29
 256 768 256 768 384 768 c 1,0,1
EndSplineSet
EndChar

StartChar: uni254c
Encoding: 9548 9548 267
Width: 576
VWidth: 960
Flags: W
LayerCount: 2
Fore
SplineSet
192 384 m 1,0,1
 192 336 l 0,2,3
 192 288 l 257,4,5
 120 288 l 256,6,7
 48 288 48 288 0 288 c 1,8,9
 0 320 0 320 0 384 c 1,10,11
 48 384 48 384 192 384 c 1,0,1
480 384 m 1,12,13
 480 336 l 0,14,15
 480 288 l 257,16,17
 408 288 l 256,18,19
 336 288 336 288 288 288 c 1,20,21
 288 320 288 320 288 384 c 1,22,23
 336 384 336 384 480 384 c 1,12,13
EndSplineSet
EndChar

StartChar: uni254d
Encoding: 9549 9549 268
Width: 576
VWidth: 960
Flags: W
LayerCount: 2
Fore
SplineSet
192 384 m 1,0,1
 192 336 192 336 192 192 c 1,2,3
 120 192 l 256,4,5
 48 192 48 192 0 192 c 1,6,7
 0 264 l 0,8,9
 0 336 0 336 0 384 c 1,10,11
 64 384 64 384 192 384 c 1,0,1
480 384 m 1,12,13
 480 312 l 256,14,15
 480 240 480 240 480 192 c 1,16,17
 416 192 416 192 288 192 c 1,18,19
 288 240 288 240 288 384 c 1,20,21
 336 384 336 384 480 384 c 1,12,13
EndSplineSet
EndChar

StartChar: uni254e
Encoding: 9550 9550 269
Width: 576
VWidth: 960
Flags: W
LayerCount: 2
Fore
SplineSet
384 384 m 1,0,1
 360 384 360 384 288 384 c 1,2,3
 288 456 288 456 288 672 c 1,4,5
 312 672 312 672 384 672 c 1,6,7
 384 600 384 600 384 384 c 1,0,1
288 192 m 1,8,9
 312 192 312 192 384 192 c 1,10,11
 384 120 384 120 384 -96 c 1,12,13
 336 -96 l 0,14,15
 288 -96 l 1,16,17
 288 0 288 0 288 192 c 1,8,9
EndSplineSet
EndChar

StartChar: uni254f
Encoding: 9551 9551 270
Width: 576
VWidth: 960
Flags: W
LayerCount: 2
Fore
SplineSet
192 672 m 1,0,1
 240 672 240 672 384 672 c 1,2,3
 384 600 384 600 384 384 c 1,4,5
 336 384 336 384 192 384 c 1,6,7
 192 456 192 456 192 672 c 1,0,1
192 192 m 1,8,9
 240 192 240 192 312 192 c 256,10,11
 384 192 l 1,12,13
 384 96 384 96 384 0 c 256,14,15
 384 -96 l 1,16,17
 320 -96 320 -96 192 -96 c 1,18,19
 192 -24 192 -24 192 192 c 1,8,9
EndSplineSet
EndChar

StartChar: uni2550
Encoding: 9552 9552 271
Width: 576
VWidth: 960
Flags: W
LayerCount: 2
Fore
SplineSet
0 480 m 1,0,1
 144 480 144 480 576 480 c 1,2,3
 576 456 576 456 576 384 c 1,4,5
 432 384 432 384 0 384 c 1,6,7
 0 408 0 408 0 480 c 1,0,1
0 288 m 1,8,9
 144 288 144 288 576 288 c 1,10,11
 576 264 576 264 576 192 c 1,12,13
 432 192 432 192 0 192 c 1,14,15
 0 216 0 216 0 288 c 1,8,9
EndSplineSet
EndChar

StartChar: uni2551
Encoding: 9553 9553 272
Width: 576
VWidth: 960
Flags: W
LayerCount: 2
Fore
SplineSet
288 768 m 1,0,1
 288 528 288 528 288 -192 c 1,2,3
 240 -192 l 256,4,5
 192 -192 l 1,6,7
 192 128 192 128 192 768 c 1,8,9
 216 768 216 768 288 768 c 1,0,1
480 768 m 1,10,11
 480 528 480 528 480 -192 c 1,12,13
 456 -192 456 -192 384 -192 c 1,14,15
 384 48 384 48 384 768 c 1,16,17
 408 768 408 768 480 768 c 1,10,11
EndSplineSet
EndChar

StartChar: uni2552
Encoding: 9554 9554 273
Width: 576
VWidth: 960
Flags: W
LayerCount: 2
Fore
SplineSet
576 384 m 1,0,1
 528 384 528 384 384 384 c 1,2,3
 384 360 384 360 384 288 c 1,4,5
 432 288 432 288 576 288 c 1,6,7
 576 240 l 256,8,9
 576 192 l 257,10,11
 504 192 l 0,12,13
 432 192 432 192 384 192 c 1,14,15
 384 64 384 64 384 -192 c 1,16,17
 360 -192 360 -192 288 -192 c 1,18,19
 288 -24 288 -24 288 480 c 1,20,21
 360 480 360 480 576 480 c 1,22,23
 576 456 576 456 576 384 c 1,0,1
EndSplineSet
EndChar

StartChar: uni2553
Encoding: 9555 9555 274
Width: 576
VWidth: 960
Flags: W
LayerCount: 2
Fore
SplineSet
576 288 m 1,0,1
 552 288 552 288 480 288 c 1,2,3
 480 168 480 168 480 -192 c 1,4,5
 456 -192 456 -192 384 -192 c 1,6,7
 384 -72 384 -72 384 288 c 1,8,9
 360 288 360 288 288 288 c 1,10,11
 288 96 l 0,12,13
 288 -96 288 -96 288 -192 c 1,14,15
 240 -192 l 256,16,17
 192 -192 l 1,18,19
 192 0 192 0 192 384 c 1,20,21
 288 384 288 384 576 384 c 1,22,23
 576 360 576 360 576 288 c 1,0,1
EndSplineSet
EndChar

StartChar: uni2554
Encoding: 9556 9556 275
Width: 576
VWidth: 960
Flags: W
LayerCount: 2
Fore
SplineSet
576 384 m 1,0,1
 480 384 l 256,2,3
 384 384 384 384 288 384 c 1,4,5
 288 168 l 0,6,7
 288 -48 288 -48 288 -192 c 1,8,9
 256 -192 256 -192 192 -192 c 1,10,11
 192 -24 192 -24 192 480 c 1,12,13
 288 480 288 480 576 480 c 1,14,15
 576 456 576 456 576 384 c 1,0,1
576 192 m 1,16,17
 528 192 l 256,18,19
 480 192 l 1,20,21
 480 64 480 64 480 -192 c 1,22,23
 456 -192 456 -192 384 -192 c 1,24,25
 384 -72 384 -72 384 288 c 1,26,27
 432 288 432 288 576 288 c 1,28,29
 576 264 576 264 576 192 c 1,16,17
EndSplineSet
EndChar

StartChar: uni2555
Encoding: 9557 9557 276
Width: 576
VWidth: 960
Flags: W
LayerCount: 2
Fore
SplineSet
0 480 m 1,0,1
 96 480 96 480 384 480 c 1,2,3
 384 312 384 312 384 -192 c 1,4,5
 360 -192 360 -192 288 -192 c 1,6,7
 288 -96 288 -96 288 192 c 1,8,9
 216 192 216 192 0 192 c 1,10,11
 0 216 0 216 0 288 c 1,12,13
 72 288 72 288 288 288 c 1,14,15
 288 312 288 312 288 384 c 1,16,17
 216 384 216 384 0 384 c 1,18,19
 0 408 0 408 0 480 c 1,0,1
EndSplineSet
EndChar

StartChar: uni2556
Encoding: 9558 9558 277
Width: 576
VWidth: 960
Flags: W
LayerCount: 2
Fore
SplineSet
0 384 m 1,0,1
 120 384 120 384 480 384 c 1,2,3
 480 240 480 240 480 -192 c 1,4,5
 456 -192 456 -192 384 -192 c 1,6,7
 384 -72 384 -72 384 288 c 1,8,9
 360 288 360 288 288 288 c 1,10,11
 288 168 288 168 288 -192 c 1,12,13
 264 -192 264 -192 192 -192 c 1,14,15
 192 -72 192 -72 192 288 c 1,16,17
 144 288 144 288 0 288 c 1,18,19
 0 312 0 312 0 384 c 1,0,1
EndSplineSet
EndChar

StartChar: uni2557
Encoding: 9559 9559 278
Width: 576
VWidth: 960
Flags: W
LayerCount: 2
Fore
SplineSet
0 480 m 1,0,1
 120 480 120 480 480 480 c 1,2,3
 480 312 480 312 480 -192 c 1,4,5
 432 -192 l 256,6,7
 384 -192 l 1,8,9
 384 0 384 0 384 384 c 1,10,11
 288 384 288 384 0 384 c 1,12,13
 0 408 0 408 0 480 c 1,0,1
0 288 m 1,14,15
 72 288 72 288 288 288 c 1,16,17
 288 168 288 168 288 -192 c 1,18,19
 264 -192 264 -192 192 -192 c 1,20,21
 192 -96 192 -96 192 48 c 0,22,23
 192 192 l 1,24,25
 144 192 144 192 72 192 c 256,26,27
 0 192 l 1,28,29
 0 224 0 224 0 288 c 1,14,15
EndSplineSet
EndChar

StartChar: uni2558
Encoding: 9560 9560 279
Width: 576
VWidth: 960
Flags: W
LayerCount: 2
Fore
SplineSet
384 768 m 1,0,1
 384 696 384 696 384 480 c 1,2,3
 432 480 432 480 576 480 c 1,4,5
 576 456 576 456 576 384 c 1,6,7
 528 384 528 384 384 384 c 1,8,9
 384 360 384 360 384 288 c 1,10,11
 432 288 432 288 576 288 c 1,12,13
 576 264 576 264 576 192 c 1,14,15
 504 192 504 192 288 192 c 1,16,17
 288 336 288 336 288 552 c 0,18,19
 288 768 l 257,20,21
 336 768 l 0,22,23
 384 768 l 1,0,1
EndSplineSet
EndChar

StartChar: uni2559
Encoding: 9561 9561 280
Width: 576
VWidth: 960
Flags: W
LayerCount: 2
Fore
SplineSet
288 768 m 1,0,1
 288 624 l 0,2,3
 288 480 288 480 288 384 c 1,4,5
 320 384 320 384 384 384 c 1,6,7
 384 480 384 480 384 768 c 1,8,9
 408 768 408 768 480 768 c 1,10,11
 480 624 l 0,12,13
 480 480 480 480 480 384 c 1,14,15
 512 384 512 384 576 384 c 1,16,17
 576 336 l 0,18,19
 576 288 l 1,20,21
 448 288 448 288 192 288 c 1,22,23
 192 408 192 408 192 768 c 1,24,25
 216 768 216 768 288 768 c 1,0,1
EndSplineSet
EndChar

StartChar: uni255a
Encoding: 9562 9562 281
Width: 576
VWidth: 960
Flags: W
LayerCount: 2
Fore
SplineSet
288 768 m 1,0,1
 288 648 288 648 288 288 c 1,2,3
 360 288 360 288 576 288 c 1,4,5
 576 264 576 264 576 192 c 1,6,7
 432 192 l 0,8,9
 288 192 288 192 192 192 c 1,10,11
 192 384 192 384 192 768 c 1,12,13
 216 768 216 768 288 768 c 1,0,1
480 768 m 257,14,15
 480 672 l 0,16,17
 480 576 480 576 480 480 c 1,18,19
 528 480 l 256,20,21
 576 480 l 257,22,23
 576 432 l 256,24,25
 576 384 l 257,26,27
 504 384 l 0,28,29
 432 384 432 384 384 384 c 1,30,31
 384 576 l 0,32,33
 384 768 l 257,34,35
 432 768 l 256,36,37
 480 768 l 257,14,15
EndSplineSet
EndChar

StartChar: uni255b
Encoding: 9563 9563 282
Width: 576
VWidth: 960
Flags: W
LayerCount: 2
Fore
SplineSet
384 768 m 1,0,1
 384 624 384 624 384 192 c 1,2,3
 288 192 288 192 0 192 c 1,4,5
 0 240 l 256,6,7
 0 288 l 1,8,9
 96 288 96 288 288 288 c 1,10,11
 288 312 288 312 288 384 c 1,12,13
 216 384 216 384 0 384 c 1,14,15
 0 408 0 408 0 480 c 1,16,17
 72 480 72 480 288 480 c 1,18,19
 288 552 288 552 288 768 c 1,20,21
 312 768 312 768 384 768 c 1,0,1
EndSplineSet
EndChar

StartChar: uni255c
Encoding: 9564 9564 283
Width: 576
VWidth: 960
Flags: W
LayerCount: 2
Fore
SplineSet
288 768 m 1,0,1
 288 624 l 0,2,3
 288 480 288 480 288 384 c 1,4,5
 320 384 320 384 384 384 c 1,6,7
 384 528 l 0,8,9
 384 672 384 672 384 768 c 1,10,11
 416 768 416 768 480 768 c 1,12,13
 480 648 480 648 480 288 c 1,14,15
 360 288 360 288 0 288 c 1,16,17
 0 336 l 0,18,19
 0 384 l 1,20,21
 64 384 64 384 192 384 c 1,22,23
 192 480 192 480 192 768 c 1,24,25
 216 768 216 768 288 768 c 1,0,1
EndSplineSet
EndChar

StartChar: uni255d
Encoding: 9565 9565 284
Width: 576
VWidth: 960
Flags: W
LayerCount: 2
Fore
SplineSet
288 768 m 1,0,1
 288 672 288 672 288 384 c 1,2,3
 192 384 l 0,4,5
 96 384 96 384 0 384 c 1,6,7
 0 416 0 416 0 480 c 1,8,9
 48 480 48 480 192 480 c 1,10,11
 192 552 192 552 192 768 c 1,12,13
 216 768 216 768 288 768 c 1,0,1
480 768 m 1,14,15
 480 624 480 624 480 192 c 1,16,17
 288 192 l 256,18,19
 96 192 96 192 0 192 c 1,20,21
 0 240 l 256,22,23
 0 288 l 1,24,25
 128 288 128 288 384 288 c 1,26,27
 384 408 384 408 384 768 c 1,28,29
 408 768 408 768 480 768 c 1,14,15
EndSplineSet
EndChar

StartChar: uni255e
Encoding: 9566 9566 285
Width: 576
VWidth: 960
Flags: W
LayerCount: 2
Fore
SplineSet
384 768 m 1,0,1
 384 696 384 696 384 480 c 1,2,3
 456 480 l 0,4,5
 528 480 528 480 576 480 c 1,6,7
 576 432 l 256,8,9
 576 384 l 1,10,11
 512 384 512 384 384 384 c 1,12,13
 384 336 l 0,14,15
 384 288 l 257,16,17
 456 288 l 0,18,19
 528 288 528 288 576 288 c 1,20,21
 576 240 l 256,22,23
 576 192 l 1,24,25
 512 192 512 192 384 192 c 1,26,27
 384 96 384 96 384 -192 c 1,28,29
 360 -192 360 -192 288 -192 c 1,30,31
 288 48 288 48 288 768 c 1,32,33
 312 768 312 768 384 768 c 1,0,1
EndSplineSet
EndChar

StartChar: uni255f
Encoding: 9567 9567 286
Width: 576
VWidth: 960
Flags: W
LayerCount: 2
Fore
SplineSet
288 768 m 1,0,1
 288 408 l 256,2,3
 288 48 288 48 288 -192 c 1,4,5
 256 -192 256 -192 192 -192 c 1,6,7
 192 48 192 48 192 768 c 1,8,9
 216 768 216 768 288 768 c 1,0,1
480 768 m 1,10,11
 480 624 l 0,12,13
 480 480 480 480 480 384 c 1,14,15
 512 384 512 384 576 384 c 1,16,17
 576 360 576 360 576 288 c 1,18,19
 552 288 552 288 480 288 c 1,20,21
 480 168 480 168 480 -192 c 1,22,23
 456 -192 456 -192 384 -192 c 1,24,25
 384 48 384 48 384 768 c 1,26,27
 408 768 408 768 480 768 c 1,10,11
EndSplineSet
EndChar

StartChar: uni2560
Encoding: 9568 9568 287
Width: 576
VWidth: 960
Flags: W
LayerCount: 2
Fore
SplineSet
288 768 m 1,0,1
 288 528 288 528 288 -192 c 1,2,3
 264 -192 264 -192 192 -192 c 1,4,5
 192 48 192 48 192 768 c 1,6,7
 216 768 216 768 288 768 c 1,0,1
480 768 m 1,8,9
 480 696 480 696 480 480 c 1,10,11
 528 480 l 256,12,13
 576 480 l 257,14,15
 576 432 l 256,16,17
 576 384 l 1,18,19
 512 384 512 384 384 384 c 1,20,21
 384 528 l 0,22,23
 384 672 384 672 384 768 c 1,24,25
 416 768 416 768 480 768 c 1,8,9
576 192 m 1,26,27
 552 192 552 192 480 192 c 1,28,29
 480 96 480 96 480 -192 c 1,30,31
 432 -192 l 256,32,33
 384 -192 l 1,34,35
 384 -32 384 -32 384 288 c 1,36,37
 432 288 432 288 576 288 c 1,38,39
 576 264 576 264 576 192 c 1,26,27
EndSplineSet
EndChar

StartChar: uni2561
Encoding: 9569 9569 288
Width: 576
VWidth: 960
Flags: W
LayerCount: 2
Fore
SplineSet
384 768 m 1,0,1
 384 408 l 256,2,3
 384 48 384 48 384 -192 c 1,4,5
 352 -192 352 -192 288 -192 c 1,6,7
 288 -48 l 0,8,9
 288 96 288 96 288 192 c 1,10,11
 192 192 192 192 0 192 c 1,12,13
 0 216 0 216 0 288 c 1,14,15
 72 288 72 288 288 288 c 1,16,17
 288 312 288 312 288 384 c 1,18,19
 216 384 216 384 0 384 c 1,20,21
 0 432 l 256,22,23
 0 480 l 1,24,25
 96 480 96 480 288 480 c 1,26,27
 288 552 288 552 288 768 c 1,28,29
 312 768 312 768 384 768 c 1,0,1
EndSplineSet
EndChar

